<?xml version="1.0" encoding="utf-8"?>
<!-- Generator: Adobe Illustrator 27.5.0, SVG Export Plug-In . SVG Version: 6.00 Build 0)  -->
<svg version="1.1" xmlns="http://www.w3.org/2000/svg" xmlns:xlink="http://www.w3.org/1999/xlink" x="0px" y="0px"
	 viewBox="0 0 750 500" style="enable-background:new 0 0 750 500;" xml:space="preserve">
<g id="BACKGROUND">
	<rect style="fill:#FEC200;" width="750" height="500"/>
</g>
<g id="OBJECTS_1_">
	<ellipse style="opacity:0.4;fill:#FEC200;" cx="373.369" cy="422.912" rx="255.719" ry="5.454"/>
	<g>
		<g>
			<polygon style="fill:#6343FF;" points="339.062,408.684 339.062,320.444 331.326,320.444 331.326,408.684 312.499,422.394 
				315.796,422.394 335.286,412.94 354.591,422.394 357.889,422.394 			"/>
			<rect x="331.326" y="320.444" width="7.737" height="11.218"/>
		</g>
		<g>
			<path style="fill:#FFFFFF;" d="M488.305,326.256H182.082c-2.209,0-4-1.791-4-4V133.948c0-2.209,1.791-4,4-4h306.223
				c2.209,0,4,1.791,4,4v188.308C492.305,324.465,490.514,326.256,488.305,326.256z"/>
			<g>
				<g>
					<path style="fill:#D6E9ED;" d="M217.263,297.935c-0.552,0-1-0.447-1-1V159.269c0-0.553,0.448-1,1-1c0.552,0,1,0.447,1,1
						v137.666C218.263,297.488,217.815,297.935,217.263,297.935z"/>
				</g>
				<g>
					<path style="fill:#D6E9ED;" d="M246.746,297.935c-0.552,0-1-0.447-1-1V159.269c0-0.553,0.448-1,1-1c0.552,0,1,0.447,1,1
						v137.666C247.746,297.488,247.298,297.935,246.746,297.935z"/>
				</g>
				<g>
					<path style="fill:#D6E9ED;" d="M276.228,297.935c-0.552,0-1-0.447-1-1V159.269c0-0.553,0.448-1,1-1c0.552,0,1,0.447,1,1
						v137.666C277.228,297.488,276.781,297.935,276.228,297.935z"/>
				</g>
				<g>
					<path style="fill:#D6E9ED;" d="M305.711,297.935c-0.552,0-1-0.447-1-1V159.269c0-0.553,0.448-1,1-1c0.552,0,1,0.447,1,1
						v137.666C306.711,297.488,306.263,297.935,305.711,297.935z"/>
				</g>
				<g>
					<path style="fill:#D6E9ED;" d="M335.194,297.935c-0.552,0-1-0.447-1-1V159.269c0-0.553,0.448-1,1-1c0.552,0,1,0.447,1,1
						v137.666C336.194,297.488,335.746,297.935,335.194,297.935z"/>
				</g>
				<g>
					<path style="fill:#D6E9ED;" d="M364.677,297.935c-0.552,0-1-0.447-1-1V159.269c0-0.553,0.448-1,1-1c0.552,0,1,0.447,1,1
						v137.666C365.677,297.488,365.229,297.935,364.677,297.935z"/>
				</g>
				<g>
					<path style="fill:#D6E9ED;" d="M394.159,297.935c-0.552,0-1-0.447-1-1V159.269c0-0.553,0.448-1,1-1c0.552,0,1,0.447,1,1
						v137.666C395.159,297.488,394.711,297.935,394.159,297.935z"/>
				</g>
				<g>
					<path style="fill:#D6E9ED;" d="M423.641,297.935c-0.552,0-1-0.447-1-1V159.269c0-0.553,0.448-1,1-1c0.552,0,1,0.447,1,1
						v137.666C424.641,297.488,424.194,297.935,423.641,297.935z"/>
				</g>
				<g>
					<path style="fill:#D6E9ED;" d="M453.124,297.935c-0.552,0-1-0.447-1-1V159.269c0-0.553,0.448-1,1-1c0.552,0,1,0.447,1,1
						v137.666C454.124,297.488,453.677,297.935,453.124,297.935z"/>
				</g>
			</g>
			<g>
				<path style="fill:#D6E9ED;" d="M395.785,146.796h-5.934c-1.83,0-3.313-1.483-3.313-3.313l0,0c0-1.83,1.483-3.313,3.313-3.313
					h5.934c1.83,0,3.313,1.483,3.313,3.313l0,0C399.098,145.312,397.615,146.796,395.785,146.796z"/>
				<path style="fill:#D6E9ED;" d="M416.979,146.796h-5.934c-1.83,0-3.313-1.483-3.313-3.313l0,0c0-1.83,1.483-3.313,3.313-3.313
					h5.934c1.83,0,3.313,1.483,3.313,3.313l0,0C420.292,145.312,418.809,146.796,416.979,146.796z"/>
				<path style="fill:#D6E9ED;" d="M462.726,146.796h-30.487c-1.83,0-3.313-1.483-3.313-3.313l0,0c0-1.83,1.483-3.313,3.313-3.313
					h30.487c1.83,0,3.313,1.483,3.313,3.313l0,0C466.039,145.312,464.555,146.796,462.726,146.796z"/>
				<path style="fill:#D6E9ED;" d="M350.437,314.943H319.95c-1.83,0-3.313-1.483-3.313-3.313l0,0c0-1.83,1.483-3.313,3.313-3.313
					h30.487c1.83,0,3.313,1.483,3.313,3.313l0,0C353.75,313.459,352.267,314.943,350.437,314.943z"/>
			</g>
			<path style="fill:#001A2D;" d="M459.611,322.982l-41.943-63.255l-32.092-48.398l-11.947-18.017l-6.931-10.453l-0.866-1.307
				l-0.433-0.653l-0.027-0.041c-0.011,0.004-0.023,0.021-0.034,0.031l-0.068,0.07l-0.136,0.141l-0.273,0.282l-2.181,2.253
				l-4.362,4.505l-15.986,16.51l-5.345,5.52c-1.262,1.278-2.51,2.647-3.783,3.851l-12.907-7.055l-11.368-6.214l-2.988-1.633
				l-1.494-0.817c-0.412,0.373-0.82,0.78-1.23,1.168l-4.915,4.714l-15.3,14.674l-4.254,4.08l-2.127,2.04l-0.266,0.252l-0.734-0.826
				l-0.979-1.101l-12.177-13.692l-10.581-11.897l-2.692-3.027l-1.346-1.514l-0.673-0.757l-0.168-0.189
				c-0.062,0.048-0.125,0.111-0.188,0.165l-0.376,0.34l-6.012,5.433l-37.333,33.742l8.508,9.414l31.572-28.535l2.602-2.351
				l0.163-0.147l0.081-0.072l0.073,0.082l0.291,0.327l1.748,1.965l4.85,5.453l18.684,21.009l2.263,2.545l1.132,1.272l0.566,0.636
				c0.204-0.181,0.409-0.389,0.614-0.582l4.915-4.714l9.83-9.428l12.869-12.342l2.127-2.04l0.532-0.506l1.94,1.06l5.756,3.146
				l21.341,11.665c0.028,0.013,0.058,0.038,0.085,0.04l0.068-0.07l0.136-0.141l0.273-0.282l0.545-0.563l3.272-3.379l4.362-4.505
				l7.155-7.389l9.013-9.309l1.888-1.95l0.944-0.975c0.077-0.066,0.161-0.197,0.233-0.209l0.188,0.283l0.375,0.565l3,4.523
				L375,218.341l32.092,48.398l39.464,59.516h15.225L459.611,322.982z"/>
			<g>
				<path style="fill:#FF504C;" d="M211.839,238.261l31.572-28.535l2.602-2.351l0.163-0.147l0.081-0.072l0.073,0.082l0.291,0.327
					l0.583,0.655l1.165,1.31l4.85,5.453l18.684,21.009l2.263,2.545l1.131,1.272l0.566,0.636c0.204-0.181,0.409-0.389,0.614-0.582
					l4.915-4.714l9.831-9.428l12.869-12.342l2.127-2.04l0.532-0.506l0.647,0.353l1.293,0.707l5.756,3.146l21.341,11.665
					c0.028,0.013,0.058,0.038,0.085,0.04l0.068-0.07l0.136-0.141l0.273-0.282l0.545-0.563l1.091-1.126l2.181-2.253l4.362-4.505
					l7.155-7.389l9.013-9.309l1.888-1.95l0.944-0.975c0.077-0.066,0.161-0.197,0.233-0.209l0.187,0.283l0.375,0.565l2.999,4.523
					l7.914,11.935l32.092,48.398l41.943,63.254l36.728,55.389l-8.068,5.35l22.211,4.501l4.5-22.212l-8.067,5.349l-36.728-55.389
					l-41.943-63.254l-32.092-48.398l-11.947-18.017l-6.931-10.453l-0.866-1.307l-0.433-0.653l-0.027-0.041
					c-0.011,0.004-0.022,0.021-0.034,0.031l-0.068,0.07l-0.136,0.141l-0.273,0.282l-2.181,2.253l-4.362,4.505l-15.986,16.51
					l-5.345,5.52c-1.262,1.278-2.51,2.647-3.783,3.851l-12.907-7.055l-11.368-6.214l-2.988-1.633l-1.494-0.817
					c-0.412,0.373-0.82,0.78-1.23,1.169l-4.915,4.714l-15.3,14.674l-4.254,4.08l-2.127,2.04l-0.266,0.252l-0.245-0.275l-0.49-0.551
					l-0.979-1.101L262.7,206.552l-10.581-11.897l-2.692-3.027l-1.346-1.514l-0.673-0.757l-0.168-0.189
					c-0.062,0.048-0.125,0.111-0.188,0.165l-0.376,0.34l-6.012,5.433l-37.333,33.742L211.839,238.261z"/>
			</g>
		</g>
	</g>
	<g>
		<path style="fill:#D6E9ED;" d="M492.305,159.654h-12.688c-1.104,0-2,0.895-2,2v38.138c0,1.105,0.896,2,2,2h12.688V159.654z"/>
		<path style="fill:#6343FF;" d="M550.319,199.809h-69.346c-1.105,0-2-0.895-2-2v-38.138c0-1.105,0.895-2,2-2h69.346
			c1.105,0,2,0.895,2,2v38.138C552.319,198.914,551.424,199.809,550.319,199.809z"/>
		<g>
			<g>
				<path style="fill:#7E6AFF;" d="M499.182,169.694h-10.449c-0.977,0-1.769-0.792-1.769-1.769s0.792-1.769,1.769-1.769h10.449
					c0.977,0,1.769,0.792,1.769,1.769S500.159,169.694,499.182,169.694z"/>
			</g>
			<g>
				<path style="fill:#7E6AFF;" d="M542.621,192.275H513.56c-0.977,0-1.769-0.792-1.769-1.769c0-0.977,0.792-1.769,1.769-1.769
					h29.061c0.977,0,1.769,0.792,1.769,1.769C544.39,191.484,543.598,192.275,542.621,192.275z"/>
			</g>
			<g>
				<path style="fill:#FFFFFF;" d="M542.621,175.7h-53.888c-0.977,0-1.769-0.792-1.769-1.769s0.792-1.769,1.769-1.769h53.888
					c0.977,0,1.769,0.792,1.769,1.769S543.598,175.7,542.621,175.7z"/>
			</g>
			<g>
				<path style="fill:#FFFFFF;" d="M517.164,181.708h-28.432c-0.977,0-1.769-0.792-1.769-1.769c0-0.977,0.792-1.769,1.769-1.769
					h28.432c0.977,0,1.769,0.792,1.769,1.769C518.934,180.915,518.142,181.708,517.164,181.708z"/>
			</g>
			<g>
				<path style="fill:#FEE526;" d="M522.992,181.708h-0.858c-0.977,0-1.769-0.792-1.769-1.769c0-0.977,0.792-1.769,1.769-1.769
					h0.858c0.977,0,1.769,0.792,1.769,1.769C524.761,180.915,523.969,181.708,522.992,181.708z"/>
			</g>
			<g>
				<path style="fill:#FEE526;" d="M528.779,181.708h-0.858c-0.977,0-1.769-0.792-1.769-1.769c0-0.977,0.792-1.769,1.769-1.769
					h0.858c0.977,0,1.769,0.792,1.769,1.769C530.548,180.915,529.756,181.708,528.779,181.708z"/>
			</g>
		</g>
	</g>
	<path style="fill:#D6E9ED;" d="M492.305,285.422h-23.102c-1.105,0-2,0.896-2,2v13.056c0,1.105,0.895,2,2,2h23.102V285.422z"/>
	<path style="fill:#001A2D;" d="M506.52,301.153h-35.991c-1.105,0-2-0.895-2-2v-13.056c0-1.105,0.895-2,2-2h35.991
		c1.105,0,2,0.895,2,2v13.056C508.52,300.257,507.625,301.153,506.52,301.153z"/>
	<g>
		<path style="fill:#04467A;" d="M500.567,295.028h-13.373c-1.327,0-2.403-1.076-2.403-2.403l0,0c0-1.327,1.076-2.403,2.403-2.403
			h13.373c1.327,0,2.403,1.076,2.403,2.403l0,0C502.97,293.952,501.894,295.028,500.567,295.028z"/>
		<polygon style="fill:#FF504C;" points="474.079,291.019 477.29,294.23 480.501,291.019 		"/>
	</g>
	<g>
		<g>
			<polygon style="fill:#FEE526;" points="138.683,162.101 138.683,186.391 137.382,186.391 140.587,189.596 143.792,186.391 
				142.491,186.391 142.491,162.101 			"/>
		</g>
		<g>
			<polygon style="fill:#04467A;" points="147.822,173.525 147.822,182.481 146.52,182.481 149.725,185.686 152.93,182.481 
				151.629,182.481 151.629,173.525 			"/>
		</g>
		<g>
			<polygon style="fill:#04467A;" points="156.971,231.947 156.971,240.903 155.67,240.903 158.874,244.108 162.079,240.903 
				160.778,240.903 160.778,231.947 			"/>
		</g>
		<g>
			<polygon style="fill:#FEE526;" points="167.266,185.737 167.266,194.693 165.965,194.693 169.17,197.898 172.375,194.693 
				171.074,194.693 171.074,185.737 			"/>
		</g>
		<g>
			<polygon style="fill:#FFFFFF;" points="164.839,225.388 164.839,250.075 163.538,250.075 166.743,253.28 169.948,250.075 
				168.647,250.075 168.647,225.388 			"/>
		</g>
		<g>
			<polygon style="fill:#FFFFFF;" points="128.654,181.643 128.654,198.266 126.702,198.266 131.509,203.073 136.317,198.266 
				134.365,198.266 134.365,181.643 			"/>
		</g>
		<g>
			<polygon style="fill:#FFFFFF;" points="155.522,161.751 155.522,187.47 153.57,187.47 158.378,192.277 163.185,187.47 
				161.233,187.47 161.233,161.751 			"/>
		</g>
	</g>
	<g>
		
			<ellipse transform="matrix(0.1588 -0.9873 0.9873 0.1588 -12.5174 734.1337)" style="fill:#04467A;" cx="424.552" cy="374.412" rx="28.573" ry="28.573"/>
		<path style="fill:#001A2D;" d="M396.013,373.076l7.823,2.354l2.58-10.996l10.997-2.58l-3.254-10.814l4.97-4.679
			C406.367,348.813,396.627,359.751,396.013,373.076z"/>
		<g>
			<path style="fill:#FFFFFF;" d="M427.168,368.894c0-1.389-0.913-2.302-2.938-2.302c-2.184,0-3.494,1.469-4.288,3.335l-5.479-3.136
				c1.747-4.089,5.598-6.392,10.005-6.392c4.526,0,9.052,2.779,9.052,7.94c0,5.916-6.352,7.742-6.352,10.482h-6.352
				C420.816,374.175,427.168,372.389,427.168,368.894z M420.22,385.529c0-2.064,1.707-3.771,3.771-3.771
				c2.065,0,3.772,1.708,3.772,3.771c0,2.065-1.707,3.772-3.772,3.772C421.928,389.301,420.22,387.593,420.22,385.529z"/>
		</g>
	</g>
	<g>
		<polygon style="fill:#D6E9ED;" points="381.511,308.138 373.771,316.358 362.957,313.105 360.377,324.101 351.194,326.256 
			411.827,326.256 402.645,324.102 400.065,313.105 389.252,316.358 		"/>
		<polygon style="fill:#FF504C;" points="421.492,342.171 413.271,349.911 416.525,360.725 405.528,363.305 402.948,374.302 
			392.135,371.048 384.395,379.268 376.654,371.048 365.84,374.301 363.26,363.305 352.264,360.725 355.517,349.911 
			347.297,342.171 355.517,334.431 352.264,323.617 363.261,321.037 365.841,310.04 376.654,313.294 384.395,305.074 
			392.135,313.294 402.949,310.041 405.529,321.037 416.525,323.617 413.271,334.431 		"/>
		<g>
			<path style="fill:#FEE526;" d="M379.213,354.219c0-2.498,2.066-4.564,4.564-4.564c2.498,0,4.564,2.066,4.564,4.564
				c0,2.498-2.066,4.564-4.564,4.564C381.279,358.783,379.213,356.717,379.213,354.219z M379.453,334.088v-9.609h8.648v9.609
				l-1.441,12.011h-5.766L379.453,334.088z"/>
		</g>
	</g>
	<g>
		<path style="fill:#FFFFFF;" d="M514.25,221.739c-1.143-1.143-2.65-1.144-4.319,0.525c-1.8,1.8-1.669,4.088-0.783,6.282
			l-7.103,1.929c-1.93-4.81-0.654-9.88,2.979-13.513c3.73-3.73,9.751-5.169,14.003-0.916c4.876,4.876,1.146,11.616,3.405,13.875
			l-5.235,5.235C513.368,231.328,517.13,224.619,514.25,221.739z M522.233,241.176c-1.7-1.7-1.698-4.514,0.003-6.216
			c1.701-1.701,4.514-1.701,6.214-0.001c1.703,1.702,1.703,4.516,0.001,6.217C526.75,242.877,523.936,242.879,522.233,241.176z"/>
		<path style="fill:#FFFFFF;" d="M531.587,215.496c-0.354-0.879-1.166-1.225-2.45-0.709c-1.384,0.557-1.839,1.821-1.866,3.208
			l-4.272-0.591c0.064-3.037,1.916-5.478,4.709-6.603c2.868-1.155,6.445-0.548,7.762,2.722c1.51,3.749-2.05,6.527-1.35,8.264
			l-4.025,1.621C528.91,220.465,532.479,217.711,531.587,215.496z M531.429,227.811c-0.526-1.307,0.121-2.825,1.429-3.351
			s2.825,0.119,3.352,1.426c0.527,1.309-0.119,2.826-1.427,3.353C533.474,229.766,531.956,229.12,531.429,227.811z"/>
	</g>
	<g>
		<path style="fill:#FFFFFF;" d="M563.486,209.659c0-2.665,2.204-4.869,4.869-4.869c2.665,0,4.869,2.204,4.869,4.869
			c0,2.665-2.204,4.869-4.869,4.869C565.69,214.529,563.486,212.324,563.486,209.659z M563.742,188.184v-10.251h9.226v10.251
			l-1.538,12.813h-6.151L563.742,188.184z"/>
	</g>
	<g>
		<g>
			<rect x="150.363" y="400.131" style="fill:#FEE526;" width="19.579" height="5.161"/>
			<polygon style="fill:#FE9A26;" points="150.363,405.293 150.363,400.131 145.649,400.131 145.649,405.697 169.943,405.697 
				169.943,405.293 			"/>
			<rect x="156.646" y="400.131" style="fill:#FEE526;" width="13.297" height="5.161"/>
			<g>
				<rect x="148.6" y="401.221" style="fill:#FFDD00;" width="0.532" height="3.387"/>
				<rect x="151.577" y="401.221" style="fill:#FEC200;" width="0.532" height="3.387"/>
				<rect x="154.553" y="401.221" style="fill:#FEC200;" width="0.532" height="3.387"/>
				<rect x="157.53" y="401.221" style="fill:#FEC200;" width="0.532" height="3.387"/>
				<rect x="160.506" y="401.221" style="fill:#FEC200;" width="0.532" height="3.387"/>
				<rect x="163.483" y="401.221" style="fill:#FEC200;" width="0.532" height="3.387"/>
				<rect x="166.459" y="401.221" style="fill:#FEC200;" width="0.532" height="3.387"/>
			</g>
		</g>
		<g>
			<rect x="151.63" y="405.697" style="fill:#FEE526;" width="19.579" height="5.161"/>
			<polygon style="fill:#FE9A26;" points="151.631,410.858 151.631,405.697 146.916,405.697 146.916,411.262 171.21,411.262 
				171.21,410.858 			"/>
			<rect x="157.913" y="405.697" style="fill:#FEE526;" width="13.297" height="5.161"/>
			<g>
				<rect x="149.867" y="406.786" style="fill:#FFDD00;" width="0.532" height="3.387"/>
				<rect x="152.844" y="406.786" style="fill:#FEC200;" width="0.532" height="3.387"/>
				<rect x="155.82" y="406.786" style="fill:#FEC200;" width="0.532" height="3.387"/>
				<rect x="158.797" y="406.786" style="fill:#FEC200;" width="0.532" height="3.387"/>
				<rect x="161.773" y="406.786" style="fill:#FEC200;" width="0.532" height="3.387"/>
				<rect x="164.75" y="406.786" style="fill:#FEC200;" width="0.532" height="3.387"/>
				<rect x="167.726" y="406.786" style="fill:#FEC200;" width="0.532" height="3.387"/>
			</g>
		</g>
		<g>
			<rect x="149.934" y="411.263" style="fill:#FEE526;" width="19.579" height="5.161"/>
			<polygon style="fill:#FE9A26;" points="149.934,416.424 149.934,411.263 145.219,411.263 145.219,416.828 169.513,416.828 
				169.513,416.424 			"/>
			<rect x="156.216" y="411.263" style="fill:#FEE526;" width="13.297" height="5.161"/>
			<g>
				<rect x="148.171" y="412.352" style="fill:#FFDD00;" width="0.532" height="3.387"/>
				<rect x="151.147" y="412.352" style="fill:#FEC200;" width="0.532" height="3.387"/>
				<rect x="154.123" y="412.352" style="fill:#FEC200;" width="0.532" height="3.387"/>
				<rect x="157.1" y="412.352" style="fill:#FEC200;" width="0.532" height="3.387"/>
				<rect x="160.076" y="412.352" style="fill:#FEC200;" width="0.532" height="3.387"/>
				<rect x="163.053" y="412.352" style="fill:#FEC200;" width="0.532" height="3.387"/>
				<rect x="166.029" y="412.352" style="fill:#FEC200;" width="0.532" height="3.387"/>
			</g>
		</g>
		<g>
			<rect x="152.91" y="416.828" style="fill:#FEE526;" width="19.579" height="5.161"/>
			<polygon style="fill:#FE9A26;" points="152.91,421.99 152.91,416.828 148.195,416.828 148.195,422.394 172.489,422.394 
				172.489,421.99 			"/>
			<rect x="159.192" y="416.828" style="fill:#FEE526;" width="13.297" height="5.161"/>
			<g>
				<rect x="151.147" y="417.918" style="fill:#FFDD00;" width="0.532" height="3.387"/>
				<rect x="154.123" y="417.918" style="fill:#FEC200;" width="0.532" height="3.387"/>
				<rect x="157.1" y="417.918" style="fill:#FEC200;" width="0.532" height="3.387"/>
				<rect x="160.076" y="417.918" style="fill:#FEC200;" width="0.532" height="3.387"/>
				<rect x="163.053" y="417.918" style="fill:#FEC200;" width="0.532" height="3.387"/>
				<rect x="166.029" y="417.918" style="fill:#FEC200;" width="0.532" height="3.387"/>
				<rect x="169.006" y="417.918" style="fill:#FEC200;" width="0.532" height="3.387"/>
			</g>
		</g>
		<g>
			<rect x="182.781" y="416.828" style="fill:#FEE526;" width="19.579" height="5.161"/>
			<polygon style="fill:#FE9A26;" points="182.781,421.99 182.781,416.828 178.066,416.828 178.066,422.394 202.36,422.394 
				202.36,421.99 			"/>
			<rect x="189.063" y="416.828" style="fill:#FEE526;" width="13.297" height="5.161"/>
			<g>
				<rect x="181.018" y="417.918" style="fill:#FFDD00;" width="0.532" height="3.387"/>
				<rect x="183.994" y="417.918" style="fill:#FEC200;" width="0.532" height="3.387"/>
				<rect x="186.971" y="417.918" style="fill:#FEC200;" width="0.532" height="3.387"/>
				<rect x="189.947" y="417.918" style="fill:#FEC200;" width="0.532" height="3.387"/>
				<rect x="192.924" y="417.918" style="fill:#FEC200;" width="0.532" height="3.387"/>
				<rect x="195.9" y="417.918" style="fill:#FEC200;" width="0.532" height="3.387"/>
				<rect x="198.876" y="417.918" style="fill:#FEC200;" width="0.532" height="3.387"/>
			</g>
		</g>
		<g>
			<rect x="184.104" y="411.263" style="fill:#FEE526;" width="19.579" height="5.161"/>
			<polygon style="fill:#FE9A26;" points="184.104,416.424 184.104,411.263 179.39,411.263 179.39,416.828 203.684,416.828 
				203.684,416.424 			"/>
			<rect x="190.387" y="411.263" style="fill:#FEE526;" width="13.297" height="5.161"/>
			<g>
				<rect x="182.341" y="412.352" style="fill:#FFDD00;" width="0.532" height="3.387"/>
				<rect x="185.318" y="412.352" style="fill:#FEC200;" width="0.532" height="3.387"/>
				<rect x="188.294" y="412.352" style="fill:#FEC200;" width="0.532" height="3.387"/>
				<rect x="191.271" y="412.352" style="fill:#FEC200;" width="0.532" height="3.387"/>
				<rect x="194.247" y="412.352" style="fill:#FEC200;" width="0.532" height="3.387"/>
				<rect x="197.224" y="412.352" style="fill:#FEC200;" width="0.532" height="3.387"/>
				<rect x="200.2" y="412.352" style="fill:#FEC200;" width="0.532" height="3.387"/>
			</g>
		</g>
		<g>
			<rect x="178.937" y="405.697" style="fill:#FEE526;" width="19.579" height="5.161"/>
			<polygon style="fill:#FE9A26;" points="178.937,410.858 178.937,405.697 174.223,405.697 174.223,411.263 198.517,411.263 
				198.517,410.858 			"/>
			<rect x="185.22" y="405.697" style="fill:#FEE526;" width="13.297" height="5.161"/>
			<g>
				<rect x="177.174" y="406.786" style="fill:#FFDD00;" width="0.532" height="3.387"/>
				<rect x="180.151" y="406.786" style="fill:#FEC200;" width="0.532" height="3.387"/>
				<rect x="183.127" y="406.786" style="fill:#FEC200;" width="0.532" height="3.387"/>
				<polygon style="fill:#FEC200;" points="186.636,410.173 186.104,410.366 186.104,406.979 186.636,406.786 				"/>
				<rect x="189.08" y="406.786" style="fill:#FEC200;" width="0.532" height="3.387"/>
				<rect x="192.057" y="406.786" style="fill:#FEC200;" width="0.532" height="3.387"/>
				<rect x="195.033" y="406.786" style="fill:#FEC200;" width="0.532" height="3.387"/>
			</g>
		</g>
	</g>
	<g>
		<path style="fill:#D6E9ED;" d="M465.54,225.611l-19.445-19.445l0.951-0.951l-2.357-2.357c5.665-9.034,4.587-21.088-3.274-28.948
			c-9.136-9.136-23.949-9.136-33.085,0c-9.136,9.136-9.136,23.949,0,33.085c7.86,7.861,19.914,8.939,28.948,3.274l2.357,2.357
			l0.951-0.951l19.445,19.445c1.521,1.521,3.988,1.521,5.51,0C467.061,229.599,467.061,227.132,465.54,225.611z"/>
		<path style="fill:#FEE526;" d="M467.134,229.526L467.134,229.526c-1.521,1.521-3.988,1.521-5.509,0l-23.996-23.996l5.509-5.509
			l23.996,23.996C468.656,225.538,468.656,228.005,467.134,229.526z"/>
		
			<rect x="437.769" y="202.678" transform="matrix(0.7071 -0.7071 0.7071 0.7071 -15.4862 373.4151)" style="fill:#04467A;" width="10.48" height="5.446"/>
		<circle style="fill:#04467A;" cx="426.467" cy="188.858" r="23.395"/>
		<circle style="fill:#D6E9ED;" cx="426.467" cy="188.858" r="17.874"/>
		<g>
			<path style="fill:#FFFFFF;" d="M435.082,181.743c-0.384,0-0.768-0.146-1.061-0.439c-2.018-2.018-4.701-3.129-7.555-3.129
				c-2.854,0-5.537,1.111-7.555,3.129c-0.586,0.586-1.535,0.586-2.121,0c-0.586-0.585-0.586-1.535,0-2.121
				c2.584-2.585,6.021-4.008,9.676-4.008s7.092,1.423,9.676,4.008c0.586,0.586,0.586,1.536,0,2.121
				C435.85,181.596,435.466,181.743,435.082,181.743z"/>
		</g>
	</g>
	<g>
		<path style="fill:#001A2D;" d="M233.713,341.392h-91.349c-1.292,0-2.339-1.047-2.339-2.339v-58.837
			c0-1.292,1.047-2.339,2.339-2.339h91.349c1.292,0,2.339,1.047,2.339,2.339v58.837
			C236.052,340.345,235.005,341.392,233.713,341.392z"/>
		<g>
			<g>
				<g>
					<g>
						<polygon style="fill:#FF504C;" points="149.081,287.668 152.837,291.424 156.593,287.668 						"/>
					</g>
				</g>
				<g>
					<path style="fill:#FFFFFF;" d="M173.223,291.046H162.8c-0.829,0-1.5-0.672-1.5-1.5s0.671-1.5,1.5-1.5h10.423
						c0.829,0,1.5,0.672,1.5,1.5S174.052,291.046,173.223,291.046z"/>
				</g>
				<g>
					<path style="fill:#04467A;" d="M203.602,291.046h-23.96c-0.829,0-1.5-0.672-1.5-1.5s0.671-1.5,1.5-1.5h23.96
						c0.829,0,1.5,0.672,1.5,1.5S204.431,291.046,203.602,291.046z"/>
				</g>
				<g>
					<path style="fill:#FF504C;" d="M215.509,291.046h-4.606c-0.829,0-1.5-0.672-1.5-1.5s0.671-1.5,1.5-1.5h4.606
						c0.829,0,1.5,0.672,1.5,1.5S216.338,291.046,215.509,291.046z"/>
				</g>
				<g>
					<path style="fill:#FF504C;" d="M226.995,291.046h-4.606c-0.829,0-1.5-0.672-1.5-1.5s0.671-1.5,1.5-1.5h4.606
						c0.829,0,1.5,0.672,1.5,1.5S227.824,291.046,226.995,291.046z"/>
				</g>
			</g>
			<g>
				<g>
					<g>
						<polygon style="fill:#FF504C;" points="149.081,301.06 152.837,304.816 156.593,301.06 						"/>
					</g>
				</g>
				<g>
					<path style="fill:#FFFFFF;" d="M173.223,304.438H162.8c-0.829,0-1.5-0.672-1.5-1.5s0.671-1.5,1.5-1.5h10.423
						c0.829,0,1.5,0.672,1.5,1.5S174.052,304.438,173.223,304.438z"/>
				</g>
				<g>
					<path style="fill:#04467A;" d="M203.602,304.438h-23.96c-0.829,0-1.5-0.672-1.5-1.5s0.671-1.5,1.5-1.5h23.96
						c0.829,0,1.5,0.672,1.5,1.5S204.431,304.438,203.602,304.438z"/>
				</g>
				<g>
					<path style="fill:#FF504C;" d="M215.509,304.438h-4.606c-0.829,0-1.5-0.672-1.5-1.5s0.671-1.5,1.5-1.5h4.606
						c0.829,0,1.5,0.672,1.5,1.5S216.338,304.438,215.509,304.438z"/>
				</g>
				<g>
					<path style="fill:#FF504C;" d="M226.995,304.438h-4.606c-0.829,0-1.5-0.672-1.5-1.5s0.671-1.5,1.5-1.5h4.606
						c0.829,0,1.5,0.672,1.5,1.5S227.824,304.438,226.995,304.438z"/>
				</g>
			</g>
			<g>
				<g>
					<g>
						<polygon style="fill:#FF504C;" points="149.081,314.453 152.837,318.208 156.593,314.453 						"/>
					</g>
				</g>
				<g>
					<path style="fill:#FFFFFF;" d="M173.223,317.83H162.8c-0.829,0-1.5-0.672-1.5-1.5c0-0.828,0.671-1.5,1.5-1.5h10.423
						c0.829,0,1.5,0.672,1.5,1.5C174.723,317.159,174.052,317.83,173.223,317.83z"/>
				</g>
				<g>
					<path style="fill:#04467A;" d="M203.602,317.83h-23.96c-0.829,0-1.5-0.672-1.5-1.5c0-0.828,0.671-1.5,1.5-1.5h23.96
						c0.829,0,1.5,0.672,1.5,1.5C205.102,317.159,204.431,317.83,203.602,317.83z"/>
				</g>
				<g>
					<path style="fill:#FF504C;" d="M215.509,317.83h-4.606c-0.829,0-1.5-0.672-1.5-1.5c0-0.828,0.671-1.5,1.5-1.5h4.606
						c0.829,0,1.5,0.672,1.5,1.5C217.009,317.159,216.338,317.83,215.509,317.83z"/>
				</g>
				<g>
					<path style="fill:#FF504C;" d="M226.995,317.83h-4.606c-0.829,0-1.5-0.672-1.5-1.5c0-0.828,0.671-1.5,1.5-1.5h4.606
						c0.829,0,1.5,0.672,1.5,1.5C228.495,317.159,227.824,317.83,226.995,317.83z"/>
				</g>
			</g>
			<g>
				<g>
					<g>
						<polygon style="fill:#FF504C;" points="149.081,327.845 152.837,331.601 156.593,327.845 						"/>
					</g>
				</g>
				<g>
					<path style="fill:#FFFFFF;" d="M173.223,331.223H162.8c-0.829,0-1.5-0.672-1.5-1.5s0.671-1.5,1.5-1.5h10.423
						c0.829,0,1.5,0.672,1.5,1.5S174.052,331.223,173.223,331.223z"/>
				</g>
				<g>
					<path style="fill:#04467A;" d="M203.602,331.223h-23.96c-0.829,0-1.5-0.672-1.5-1.5s0.671-1.5,1.5-1.5h23.96
						c0.829,0,1.5,0.672,1.5,1.5S204.431,331.223,203.602,331.223z"/>
				</g>
				<g>
					<path style="fill:#FF504C;" d="M215.509,331.223h-4.606c-0.829,0-1.5-0.672-1.5-1.5s0.671-1.5,1.5-1.5h4.606
						c0.829,0,1.5,0.672,1.5,1.5S216.338,331.223,215.509,331.223z"/>
				</g>
				<g>
					<path style="fill:#FF504C;" d="M226.995,331.223h-4.606c-0.829,0-1.5-0.672-1.5-1.5s0.671-1.5,1.5-1.5h4.606
						c0.829,0,1.5,0.672,1.5,1.5S227.824,331.223,226.995,331.223z"/>
				</g>
			</g>
		</g>
	</g>
	<circle style="fill:#FFFFFF;" cx="150.346" cy="210.956" r="16.397"/>
	<path style="fill:#FEE526;" d="M151.588,220.134v2.231h-1.775v-2.206c-2.865-0.202-4.995-1.674-5.907-4.107l3.499-2.028
		c0.532,1.217,1.268,1.927,2.408,2.13v-3.499c-0.101-0.051-0.228-0.076-0.329-0.127c-2.206-0.887-4.842-2.13-4.842-5.527
		c0-3.296,2.485-4.995,5.172-5.248v-2.206h1.775v2.257c2.18,0.279,4.006,1.445,4.995,3.676l-3.423,2.003
		c-0.33-0.887-0.837-1.394-1.572-1.648v3.423c2.206,0.938,5.197,1.775,5.197,5.476C156.786,217.903,154.605,219.779,151.588,220.134
		z M149.813,208.421v-2.662c-0.735,0.177-1.115,0.659-1.115,1.267C148.698,207.508,148.926,207.914,149.813,208.421z
		 M152.729,214.785c0-0.634-0.38-1.015-1.141-1.394v2.712C152.45,215.875,152.729,215.317,152.729,214.785z"/>
	<g>
		<path style="fill:#D6E9ED;" d="M336.608,132.491c0,11.087,8.988,20.075,20.075,20.075c11.087,0,20.075-8.988,20.075-20.075
			c0-0.863-0.073-1.708-0.178-2.543h-39.794C336.681,130.783,336.608,131.628,336.608,132.491z"/>
		
			<ellipse transform="matrix(0.9312 -0.3645 0.3645 0.9312 -23.161 139.5399)" style="fill:#FEE526;" cx="358.053" cy="131.122" rx="20.075" ry="20.075"/>
		<g>
			<path style="fill:#FFB902;" d="M358.053,148.581c-9.626,0-17.459-7.832-17.459-17.459c0-9.627,7.832-17.459,17.459-17.459
				c9.626,0,17.458,7.832,17.458,17.459C375.511,140.749,367.679,148.581,358.053,148.581z M358.053,114.664
				c-9.075,0-16.459,7.383-16.459,16.459c0,9.076,7.383,16.459,16.459,16.459c9.075,0,16.458-7.383,16.458-16.459
				C374.511,122.047,367.128,114.664,358.053,114.664z"/>
		</g>
		<path style="fill:#FFFFFF;" d="M366.629,138.203c-1.65,3.54-4.469,5.43-8.112,5.43c-5.259,0-8.627-3.608-9.521-9.211h-2.337
			v-2.888h2.063v-0.412c0-0.241,0-0.447,0-0.688h-2.063v-2.887h2.372c0.997-5.43,4.33-8.936,9.486-8.936
			c3.506,0,6.256,1.787,7.94,5.121l-4.571,2.647c-0.859-1.685-1.822-2.406-3.368-2.406c-2.028,0-3.334,1.237-3.918,3.574h6.496
			v2.887h-6.874v0.688c0,0.137,0,0.275,0,0.412h6.874v2.888h-6.565c0.55,2.508,1.89,3.85,3.987,3.85c1.65,0,2.647-0.825,3.54-2.682
			L366.629,138.203z"/>
	</g>
	<g>
		<path style="fill:#001A2D;" d="M194.147,129.948v35.13c0,1.105,0.895,2,2,2h112.985c1.105,0,2-0.895,2-2v-35.13H194.147z"/>
		<path style="fill:#6343FF;" d="M310.976,165.235H197.99c-1.105,0-2-0.895-2-2v-60.162c0-1.104,0.895-2,2-2h112.986
			c1.104,0,2,0.896,2,2v60.162C312.976,164.339,312.081,165.235,310.976,165.235z"/>
		<path style="fill:#7E6AFF;" d="M293.344,123.128h-77.721c-0.829,0-1.5-0.672-1.5-1.5c0-0.828,0.671-1.5,1.5-1.5h77.721
			c0.829,0,1.5,0.672,1.5,1.5C294.844,122.456,294.172,123.128,293.344,123.128z M294.844,133.154c0-0.828-0.671-1.5-1.5-1.5
			h-77.721c-0.829,0-1.5,0.672-1.5,1.5c0,0.828,0.671,1.5,1.5,1.5h77.721C294.172,134.654,294.844,133.982,294.844,133.154z
			 M294.844,144.679c0-0.828-0.671-1.5-1.5-1.5h-77.721c-0.829,0-1.5,0.672-1.5,1.5s0.671,1.5,1.5,1.5h77.721
			C294.172,146.179,294.844,145.507,294.844,144.679z"/>
		<g>
			<path style="fill:#FFFFFF;" d="M213.12,119.017l17.876,17.876l2.884,2.884l0.18,0.18l0.09,0.088l0.09-0.09l0.36-0.36l0.721-0.721
				l1.442-1.442l5.101-5.101l-0.147,0.147l-0.06,0.059l0.078-0.078l0.312-0.312l0.624-0.624l0.624-0.624
				c0.026-0.015,0.052-0.076,0.078-0.054l0.078,0.078l0.156,0.156l0.312,0.312l2.496,2.496l7.864,7.864l4.818,4.817l2.829,2.829
				l1.414,1.414l0.707,0.707l0.177,0.177c0.029,0.027,0.059,0.065,0.088,0.082l0.088-0.088l0.354-0.354l10.807-10.806l2.665-2.665
				l0.656-0.656l0.164-0.164c0.014-0.013,0.027-0.03,0.041-0.039l0.041,0.041l0.082,0.082l0.328,0.328l1.312,1.312l7.086,7.086
				l-3.423,3.423l7.028,0l4.303,0v-4.303v-7.028l-3.422,3.422l-9.259-9.259l-3.033-3.033l-0.758-0.758l-0.19-0.189l-0.095-0.095
				c-0.032,0.021-0.063,0.06-0.095,0.089l-0.379,0.379l-1.516,1.516l-6.024,6.024l-6.573,6.573l-0.153,0.153l-0.038,0.038
				c-0.013-0.007-0.025-0.024-0.038-0.036l-0.077-0.076l-0.306-0.306l-0.612-0.612l-1.224-1.224l-3.288-3.288l-8.347-8.347
				l-5.768-5.768l-0.721-0.721l-0.361-0.36l-0.18-0.18c-0.06-0.05-0.12,0.09-0.18,0.125l-1.442,1.442l-3.324,3.324l-3.163,3.163
				l-0.624,0.624l-0.312,0.312l-0.156,0.156l-0.039,0.039l-0.039-0.038l-0.078-0.078l-1.248-1.248l-15.179-15.179L213.12,119.017z"
				/>
		</g>
	</g>
	<g>
		<g>
			<path style="fill:#04467A;" d="M167.025,148.161h-31.783c-1.749,0-3.168-1.418-3.168-3.167V100.54
				c0-1.749,1.418-3.167,3.168-3.167h31.783c1.749,0,3.167,1.418,3.167,3.167v44.453
				C170.193,146.742,168.774,148.161,167.025,148.161z"/>
		</g>
		<g>
			<circle style="fill:#FFFFFF;" cx="158.563" cy="121.673" r="5.447"/>
		</g>
		<g>
			<circle style="fill:#FFFFFF;" cx="143.705" cy="136.531" r="5.447"/>
		</g>
		<g>
			<circle style="fill:#FFFFFF;" cx="143.705" cy="121.673" r="5.447"/>
		</g>
		<g>
			<circle style="fill:#FFFFFF;" cx="158.563" cy="136.531" r="5.447"/>
		</g>
		<rect x="138.258" y="103.972" style="fill:#FEE526;" width="25.752" height="7.269"/>
		<path style="fill:#04467A;" d="M159.683,121.672l1.311-1.312c0.309-0.309,0.309-0.81,0-1.12c-0.309-0.309-0.81-0.309-1.12,0
			l-1.311,1.311l-1.311-1.311c-0.309-0.309-0.81-0.309-1.12,0c-0.309,0.309-0.309,0.81,0,1.12l1.311,1.312l-1.311,1.312
			c-0.309,0.309-0.309,0.81,0,1.12c0.155,0.155,0.357,0.232,0.56,0.232c0.203,0,0.405-0.077,0.56-0.232l1.311-1.311l1.311,1.311
			c0.155,0.155,0.357,0.232,0.56,0.232c0.203,0,0.405-0.077,0.56-0.232c0.309-0.309,0.309-0.81,0-1.12L159.683,121.672z"/>
		<path style="fill:#04467A;" d="M141.269,120.356c-0.143-0.142-0.222-0.348-0.222-0.554c0-0.206,0.079-0.411,0.222-0.554
			c0.301-0.302,0.839-0.302,1.124,0c0.142,0.142,0.237,0.348,0.237,0.554c0,0.206-0.095,0.411-0.237,0.554
			c-0.143,0.159-0.349,0.238-0.554,0.238c-0.111,0-0.206-0.015-0.301-0.063C141.443,120.5,141.348,120.437,141.269,120.356z
			 M144.959,122.922c-0.142,0.144-0.237,0.35-0.237,0.571c0,0.094,0.032,0.206,0.063,0.302c0.048,0.094,0.095,0.173,0.174,0.252
			c0.08,0.08,0.158,0.127,0.254,0.175c0.095,0.032,0.206,0.063,0.301,0.063c0.111,0,0.222-0.031,0.317-0.063
			c0.095-0.048,0.174-0.094,0.253-0.175c0.063-0.079,0.127-0.158,0.175-0.252c0.032-0.096,0.047-0.207,0.047-0.302
			c0-0.221-0.079-0.411-0.222-0.571C145.782,122.637,145.244,122.637,144.959,122.922z M146.136,119.241
			c-0.309-0.309-0.81-0.309-1.12,0l-3.742,3.743c-0.309,0.309-0.309,0.81,0,1.12c0.155,0.155,0.357,0.232,0.56,0.232
			c0.203,0,0.405-0.077,0.56-0.232l3.742-3.743C146.445,120.051,146.445,119.55,146.136,119.241z"/>
		<path style="fill:#04467A;" d="M146.351,135.739h-1.854v-1.854c0-0.438-0.354-0.792-0.792-0.792s-0.792,0.354-0.792,0.792v1.854
			h-1.854c-0.438,0-0.792,0.354-0.792,0.792s0.354,0.792,0.792,0.792h1.854v1.854c0,0.438,0.354,0.792,0.792,0.792
			s0.792-0.354,0.792-0.792v-1.854h1.854c0.438,0,0.792-0.354,0.792-0.792S146.788,135.739,146.351,135.739z"/>
		<path style="fill:#9CC8EE;" d="M155.559,134.949c0-0.438,0.354-0.792,0.792-0.792h4.423c0.438,0,0.792,0.354,0.792,0.792
			s-0.354,0.792-0.792,0.792h-4.423C155.913,135.74,155.559,135.386,155.559,134.949z M160.774,137.323h-4.423
			c-0.438,0-0.792,0.354-0.792,0.792s0.354,0.792,0.792,0.792h4.423c0.438,0,0.792-0.354,0.792-0.792
			S161.212,137.323,160.774,137.323z"/>
	</g>
	<path style="fill:#E8935D;" d="M602.864,239.859l-3.466-3.696c0,0,2.297-10.889,1.3-11.534c-0.996-0.645-2.19,5.474-2.19,5.474
		s0.996-9.308,0.346-9.553c-0.65-0.245-2.145,7.034-2.145,7.034s0.009-6.967-0.836-7.036c-0.845-0.069-1.431,6.446-1.431,6.446
		s-1.215-5.699-2.101-5.66c-0.886,0.04-0.338,10.951-0.338,10.951s-4.241-2.095-4.72-1.155c-0.478,0.94,6.171,8.261,6.171,8.261
		l5.392,5.553L602.864,239.859z"/>
	<g>
		<g>
			<g>
				<g>
					<path style="fill:#001A2D;" d="M612.272,404.479l5.606,7.661c0,0-8.212,9.279-8.997,9.013
						c-0.784-0.267,1.711-8.329,1.711-8.329l-4.356-5.235L612.272,404.479z"/>
					<path style="fill:#001A2D;" d="M559.862,409.835l1.256,9.41c0,0-11.652,4.217-12.213,3.608
						c-0.561-0.61,5.489-6.494,5.489-6.494l-1.319-6.681L559.862,409.835z"/>
				</g>
			</g>
		</g>
		<g>
			<path style="fill:#E8935D;" d="M540.201,252.28l1.51-4.837c0,0-6.811-8.801-6.195-9.816c0.616-1.014,4.356,3.973,4.356,3.973
				s-4.952-7.945-4.473-8.448c0.478-0.503,4.995,5.397,4.995,5.397s-3.043-6.267-2.313-6.698c0.731-0.431,4.096,5.178,4.096,5.178
				s-1.389-5.659-0.574-6.009c0.815-0.35,5.074,9.71,5.074,9.71s2.905-3.733,3.745-3.095s-1.956,10.124-1.956,10.124l-2.435,7.347
				L540.201,252.28z"/>
			<path style="fill:#001A2D;" d="M569.055,257.149l-28.4,16.553l8.838-21.051l-10.282-4.016c0,0-18.711,31.639-9.937,37.531
				c8.775,5.892,36.846-6.572,36.846-6.572L569.055,257.149z"/>
			<path style="fill:#001A2D;" d="M575.555,254.043c5.059-1.879,14.269-1.765,19.407-0.348l5.29,18.323l11.873,33.034
				l-33.772,14.789c0,0-3.123,0.872-4.383-3.685c-2.673-9.666-10.211-37.04-10.211-37.04l-5.648-10.896
				C558.111,268.22,563.627,258.473,575.555,254.043z"/>
			<g>
				<path style="fill:#001A2D;" d="M557.909,228.102c0,0-5.504,0.335-5.978,5c-0.474,4.665,4.964,10.025,4.964,10.025
					L557.909,228.102z"/>
				<polygon style="fill:#FFFFFF;" points="569.594,265.012 579.76,286.27 578.438,260.723 572.117,261.737 				"/>
				<polygon style="fill:#FF504C;" points="570.463,264.943 573.132,267.083 575.219,276.773 579.76,286.27 579.211,275.66 
					574.537,266.854 576.093,262.489 572.469,261.022 				"/>
				<path style="fill:#FFFFFF;" d="M571.734,254.086l-2.909,2.111c0,0-2.049,0.474-1.601,4.796c0.448,4.322,2.514,8.571,5.49,1.362
					c0,0,3.276,3.717,5.456,2.249c2.232-1.502,1.704-12.992-0.904-12.765C573.469,252.17,571.734,254.086,571.734,254.086z"/>
				<g>
					<path style="fill:#E8935D;" d="M577.664,255.026l-1.596-12.807c0,0,5.265,0.156,4.43-3.846
						c-0.744-3.566-4.593-2.658-5.898-0.468c0,0-0.503-13.104-11.265-10.811c-10.762,2.293-6.406,16.655-5.367,20.136
						c1.829,6.13,7.124,7.698,10.388,7.017l0.921,3.821c0,0,0.768,3.356,3.887,2.522
						C577.319,259.478,577.664,255.026,577.664,255.026z"/>
				</g>
				<path style="fill:#001A2D;" d="M561.271,239.982c0.248,0.566-0.01,1.227-0.577,1.475c-0.566,0.248-1.227-0.01-1.475-0.577
					c-0.248-0.566,0.01-1.227,0.577-1.475C560.363,239.158,561.023,239.416,561.271,239.982z"/>
				<path style="fill:#001A2D;" d="M566.495,238.516c0.248,0.566-0.01,1.227-0.577,1.475c-0.566,0.248-1.227-0.01-1.475-0.577
					c-0.248-0.566,0.01-1.227,0.577-1.475C565.587,237.692,566.247,237.95,566.495,238.516z"/>
				<g>
					<path style="fill:#E8935D;" d="M557.83,243.312c0,0-5.255-1.502-4.757,2.827c0.547,4.761,6.301,1.509,6.301,1.509
						L557.83,243.312z"/>
				</g>
				<g>
					<path style="fill:#001A2D;" d="M563.574,243.303c-0.216,0-0.381-0.057-0.503-0.173c-0.271-0.257-0.255-0.722-0.231-1.426
						c0.021-0.587,0.049-1.392-0.085-2.362c-0.017-0.122,0.068-0.234,0.19-0.251c0.118-0.015,0.234,0.069,0.251,0.19
						c0.138,1.008,0.109,1.834,0.088,2.438c-0.019,0.52-0.034,0.969,0.092,1.088c0.046,0.042,0.136,0.06,0.279,0.047
						c0.14-0.01,0.23,0.081,0.241,0.202c0.011,0.123-0.08,0.23-0.202,0.241C563.653,243.301,563.613,243.303,563.574,243.303z"/>
				</g>
				<g>
					<path style="fill:#001A2D;" d="M564.503,248.858c-0.098,0-0.188-0.065-0.215-0.164c-0.604-2.229-0.513-3.885,0.26-4.661
						c0.787-0.789,2.225-0.592,3.941,0.535c0.103,0.067,0.131,0.206,0.063,0.308c-0.067,0.102-0.204,0.129-0.308,0.064
						c-1.525-1.001-2.76-1.221-3.383-0.593c-0.636,0.64-0.69,2.221-0.145,4.231c0.032,0.118-0.038,0.24-0.156,0.272
						C564.542,248.855,564.522,248.858,564.503,248.858z"/>
				</g>
				<g>
					<path style="fill:#001A2D;" d="M558.056,247.251c-0.086,0-0.168-0.05-0.204-0.135c-0.404-0.946-0.716-1.938-0.925-2.948
						c-0.024-0.12,0.053-0.238,0.173-0.263c0.116-0.023,0.238,0.053,0.263,0.173c0.203,0.98,0.505,1.944,0.897,2.863
						c0.049,0.113-0.004,0.244-0.117,0.292C558.114,247.245,558.085,247.251,558.056,247.251z"/>
				</g>
				<g>
					<path style="fill:#001A2D;" d="M555.761,245.933c-0.108,0-0.203-0.078-0.22-0.188c-0.019-0.122,0.064-0.235,0.186-0.254
						l1.559-0.241c0.129-0.023,0.235,0.065,0.254,0.186c0.018,0.121-0.064,0.235-0.186,0.253l-1.559,0.241
						C555.783,245.932,555.771,245.933,555.761,245.933z"/>
				</g>
				<g>
					<path style="fill:#001A2D;" d="M576.236,240.31c-0.102,0-0.194-0.071-0.217-0.174c-0.152-0.694,0.05-1.451,0.527-1.977
						c0.479-0.525,1.211-0.799,1.919-0.711c0.122,0.015,0.208,0.126,0.193,0.248c-0.015,0.121-0.116,0.203-0.248,0.193
						c-0.565-0.071-1.153,0.149-1.536,0.569c-0.382,0.42-0.543,1.026-0.422,1.581c0.026,0.12-0.049,0.239-0.169,0.265
						C576.268,240.309,576.252,240.31,576.236,240.31z"/>
				</g>
				<g>
					<path style="fill:#001A2D;" d="M577.541,239.505c-0.045,0-0.09-0.013-0.129-0.041l-0.944-0.671
						c-0.1-0.071-0.123-0.21-0.053-0.31c0.072-0.101,0.211-0.124,0.311-0.052l0.944,0.671c0.1,0.071,0.123,0.21,0.053,0.31
						C577.679,239.473,577.61,239.505,577.541,239.505z"/>
				</g>
				<g>
					<path style="fill:#001A2D;" d="M564.118,236.117c-0.057,0-0.113-0.021-0.156-0.064c-0.087-0.086-0.088-0.228-0.002-0.314
						c0.984-0.993,2.492-1.403,3.842-1.041c0.118,0.032,0.188,0.154,0.157,0.272c-0.031,0.118-0.146,0.189-0.273,0.157
						c-1.203-0.322-2.538,0.042-3.41,0.924C564.232,236.095,564.176,236.117,564.118,236.117z"/>
				</g>
				<g>
					<path style="fill:#001A2D;" d="M557.691,238.48c-0.038,0-0.076-0.009-0.111-0.03c-0.107-0.061-0.143-0.197-0.081-0.304
						c0.707-1.22,2.43-1.733,3.689-1.103c0.11,0.055,0.154,0.189,0.099,0.298c-0.055,0.111-0.189,0.153-0.298,0.099
						c-1.06-0.533-2.512-0.101-3.105,0.928C557.843,238.44,557.768,238.48,557.691,238.48z"/>
				</g>
				<path style="fill:#001A2D;" d="M568.355,254.247c2.188-0.303,5.64-3.469,5.64-3.469s-1.565,3.753-5.171,5.419L568.355,254.247z"
					/>
				<path style="fill:#E87555;" d="M569.172,243.233c0.529,0.772,1.584,0.97,2.356,0.441c0.772-0.529,0.97-1.584,0.441-2.356
					c-0.529-0.772-1.584-0.97-2.356-0.441C568.841,241.406,568.643,242.46,569.172,243.233z"/>
				<path style="fill:#E87555;" d="M558.494,246.059c0.529,0.772,1.584,0.97,2.356,0.441c0.772-0.529,0.97-1.584,0.441-2.356
					c-0.529-0.772-1.584-0.97-2.356-0.441C558.162,244.231,557.965,245.286,558.494,246.059z"/>
			</g>
		</g>
		<path style="fill:#001A2D;" d="M594.962,253.695c2.124,0.631,26.827,15.928,26.827,15.928l-26.727-24.154l6.783-10.127
			c0,0,36.802,23.908,29.563,40.766c-7.24,16.857-35.116-3.879-35.116-3.879L594.962,253.695z"/>
		<path style="fill:#001A2D;" d="M569.62,232.59c-3.356,0.825-6.953,0.643-10.208-0.516c-3.256-1.159-6.158-3.292-8.236-6.053
			c2.594-1.385,5.472-2.651,8.398-2.937c2.927-0.286,6.027,0.353,8.313,2.203c-1.518-1.806-3.153-3.742-4.671-5.548
			c2.352,0.127,4.708,0.687,6.652,2.017c1.017,0.696,1.947,1.554,2.561,2.623c0.613,1.069,0.885,2.367,0.57,3.559
			c0.982-0.586,1.871-0.976,3.004-0.818c1.108,0.155,2.019,1.061,2.381,2.119c0.362,1.058,0.239,2.234-0.125,3.292
			c-0.364,1.058-1.256,2.833-1.843,3.786c0,0-1.401,0.786-1.838,2.296c-0.438,1.51-0.472,2.823-0.472,2.823l-1.199-0.438
			l-0.477-4.491c0,0-1.353-0.093-2.228-1.163C569.327,234.273,569.62,232.59,569.62,232.59z"/>
		<path style="fill:#001A2D;" d="M576.195,313.72c0,0-32.772,26.316-34.181,33.279c-1.409,6.963,8.565,65.308,8.565,65.308
			l14.284-1.358l-5.468-57.761l20.888-13.97c0,0-5.741,18.227-5.17,24.045c0.34,3.47,29.725,47.686,29.725,47.686l11.711-7.326
			l-22.408-42.692c0,0,9.865-19.076,15.447-32.578c4.787-11.579,5.723-17.3,2.537-23.301L576.195,313.72z"/>
	</g>
	<g>
		<path style="fill:#04467A;" d="M465.545,120.545h-38.071c-1.564,0-2.833-1.268-2.833-2.833v-20.26
			c0-1.564,1.268-2.833,2.833-2.833h38.071c1.564,0,2.833,1.268,2.833,2.833v20.26C468.378,119.277,467.11,120.545,465.545,120.545z
			"/>
		<rect x="424.641" y="109.716" style="fill:#001A2D;" width="43.736" height="5.772"/>
		<g>
			<path style="fill:#FEE526;" d="M457.859,99.621c-0.659-0.825-1.662-1.365-2.801-1.365c-1.987,0-3.598,1.611-3.598,3.598
				c0,1.987,1.611,3.598,3.598,3.598c1.138,0,2.141-0.539,2.801-1.365c-0.491-0.615-0.798-1.385-0.798-2.233
				C457.061,101.006,457.367,100.236,457.859,99.621z"/>
			<path style="fill:#FF504C;" d="M460.659,98.257c-1.139,0-2.141,0.539-2.801,1.365c0.491,0.615,0.797,1.385,0.797,2.234
				c0,0.849-0.306,1.618-0.797,2.233c0.659,0.825,1.662,1.365,2.801,1.365c1.987,0,3.598-1.611,3.598-3.598
				C464.257,99.868,462.646,98.257,460.659,98.257z"/>
			<path style="fill:#FFFFFF;" d="M457.859,99.621c-0.491,0.615-0.798,1.385-0.798,2.234c0,0.849,0.306,1.618,0.798,2.233
				c0.491-0.615,0.797-1.385,0.797-2.233C458.656,101.006,458.35,100.236,457.859,99.621z"/>
		</g>
		<path style="fill:#235DA2;" d="M436.643,101.387h-6.762c-0.584,0-1.058-0.474-1.058-1.058l0,0c0-0.584,0.474-1.058,1.058-1.058
			h6.762c0.584,0,1.058,0.474,1.058,1.058l0,0C437.701,100.913,437.227,101.387,436.643,101.387z M435.012,105.453L435.012,105.453
			c0-0.584-0.473-1.058-1.058-1.058h-4.073c-0.584,0-1.058,0.473-1.058,1.058l0,0c0,0.584,0.474,1.058,1.058,1.058h4.073
			C434.538,106.51,435.012,106.037,435.012,105.453z M446.33,105.453L446.33,105.453c0-0.584-0.474-1.058-1.058-1.058h-6.761
			c-0.584,0-1.058,0.473-1.058,1.058l0,0c0,0.584,0.474,1.058,1.058,1.058h6.761C445.856,106.51,446.33,106.037,446.33,105.453z"/>
	</g>
	<g>
		<path style="fill:#001A2D;" d="M310.976,101.073h-13.411c1.895,7.914,7.779,14.272,15.411,16.834v-14.834
			C312.976,101.968,312.081,101.073,310.976,101.073z"/>
		<circle style="fill:#FEE526;" cx="322.045" cy="95.2" r="23.566"/>
		<g>
			<path style="fill:#FFB902;" d="M322.02,116.592c-5.318,0-10.375-1.947-14.343-5.544c-4.233-3.838-6.718-9.095-6.998-14.802
				c-0.279-5.707,1.68-11.182,5.518-15.414c3.838-4.233,9.095-6.718,14.802-6.998c5.7-0.283,11.181,1.68,15.415,5.518
				c4.233,3.838,6.718,9.095,6.997,14.802l0,0c0.279,5.707-1.68,11.182-5.518,15.415c-3.838,4.233-9.095,6.718-14.802,6.997
				C322.733,116.583,322.375,116.592,322.02,116.592z M322.068,74.808c-0.339,0-0.68,0.008-1.021,0.025
				c-5.44,0.266-10.451,2.635-14.11,6.67c-3.658,4.035-5.526,9.253-5.26,14.694c0.266,5.44,2.635,10.451,6.67,14.11
				c4.035,3.658,9.254,5.524,14.694,5.26c5.44-0.266,10.451-2.635,14.11-6.67c3.658-4.035,5.526-9.253,5.26-14.694l0,0
				c-0.266-5.44-2.635-10.451-6.67-14.11C331.96,76.664,327.138,74.808,322.068,74.808z"/>
		</g>
		<path style="fill:#FFFFFF;" d="M323.83,108.39v3.206h-2.551v-3.17c-4.118-0.291-7.178-2.405-8.49-5.903l5.028-2.915
			c0.765,1.749,1.822,2.77,3.461,3.062v-5.028c-0.146-0.073-0.328-0.109-0.474-0.183c-3.17-1.275-6.96-3.061-6.96-7.943
			c0-4.737,3.571-7.179,7.433-7.543v-3.17h2.551v3.243c3.134,0.4,5.757,2.077,7.178,5.283l-4.919,2.879
			c-0.474-1.275-1.203-2.004-2.259-2.368v4.919c3.17,1.348,7.47,2.551,7.47,7.87C331.3,105.183,328.166,107.88,323.83,108.39z
			 M321.279,91.555V87.73c-1.057,0.255-1.603,0.947-1.603,1.821C319.676,90.244,320.004,90.827,321.279,91.555z M325.47,100.702
			c0-0.911-0.546-1.458-1.64-2.004v3.898C325.069,102.268,325.47,101.467,325.47,100.702z"/>
	</g>
	<g>
		<path style="fill:#001A2D;" d="M550.319,157.671h-39.663v9.479c0,1.105,0.895,2,2,2h39.663v-9.479
			C552.319,158.567,551.424,157.671,550.319,157.671z"/>
		<path style="fill:#04467A;" d="M613.296,167.282h-99.543c-1.105,0-2-0.895-2-2V93.226c0-1.105,0.895-2,2-2h99.543
			c1.105,0,2,0.895,2,2v72.056C615.296,166.386,614.401,167.282,613.296,167.282z"/>
		<path style="fill:#2A628F;" d="M601.525,118.534h-77.721c-0.829,0-1.5-0.672-1.5-1.5s0.671-1.5,1.5-1.5h77.721
			c0.829,0,1.5,0.672,1.5,1.5S602.353,118.534,601.525,118.534z M603.025,128.559c0-0.828-0.671-1.5-1.5-1.5h-77.721
			c-0.829,0-1.5,0.672-1.5,1.5c0,0.828,0.671,1.5,1.5,1.5h77.721C602.353,130.059,603.025,129.387,603.025,128.559z
			 M603.025,140.084c0-0.828-0.671-1.5-1.5-1.5h-77.721c-0.829,0-1.5,0.672-1.5,1.5c0,0.828,0.671,1.5,1.5,1.5h77.721
			C602.353,141.584,603.025,140.912,603.025,140.084z"/>
		<path style="fill:#FF504C;" d="M595.885,103.928c-2.268,0-4.107,1.839-4.107,4.107c0,0.317,0.044,0.622,0.111,0.918
			l-16.275,14.727c-0.412-0.139-0.845-0.231-1.303-0.231c-2.268,0-4.107,1.839-4.107,4.107c0,0.057,0.015,0.11,0.017,0.166
			l-15.492,9.518c-0.592-0.331-1.264-0.536-1.991-0.536c-1.95,0-3.574,1.362-3.994,3.184l-14.695,4.269
			c-0.742-0.732-1.759-1.187-2.884-1.187c-2.268,0-4.107,1.839-4.107,4.107c0,2.268,1.839,4.107,4.107,4.107
			c1.95,0,3.574-1.362,3.994-3.184l14.695-4.269c0.742,0.732,1.759,1.186,2.884,1.186c2.268,0,4.107-1.839,4.107-4.107
			c0-0.057-0.015-0.11-0.017-0.166l15.492-9.518c0.592,0.331,1.265,0.536,1.991,0.536c2.268,0,4.107-1.839,4.107-4.107
			c0-0.328-0.048-0.643-0.121-0.949l16.281-14.698c0.413,0.139,0.847,0.232,1.307,0.232c2.268,0,4.107-1.839,4.107-4.107
			C599.991,105.767,598.153,103.928,595.885,103.928z"/>
	</g>
	<g>
		<g>
			<polygon style="fill:#6343FF;" points="216.237,404.175 202.409,400.768 202.409,386.44 215.177,383.153 			"/>
			<polygon style="fill:#6343FF;" points="221.904,410.352 223.097,422.394 228.726,422.394 233.535,415.465 			"/>
			<polygon style="fill:#6343FF;" points="267.087,410.352 265.894,422.394 260.264,422.394 255.455,415.465 			"/>
			<g>
				<path d="M233.535,415.465l-11.631-5.113l0.195,1.973c2.643,2.624,5.76,4.78,9.21,6.347L233.535,415.465z"/>
				<path d="M255.455,415.465l2.225,3.206c3.45-1.566,6.567-3.721,9.21-6.343l0.196-1.976L255.455,415.465z"/>
			</g>
			<path style="fill:#6343FF;" d="M236.968,355.871l-0.456,1.858l-1.094,4.412l-11.502,3.716l-0.695-2.36l-3.26-11.058
				C219.959,352.44,228.965,350.137,236.968,355.871z"/>
			<path d="M222.6,361.396l0.62,2.102l0.695,2.36l11.502-3.716l0.583-2.352C231.442,359.792,226.979,360.373,222.6,361.396z"/>
			<g>
				<path style="fill:#6343FF;" d="M280.227,394.266c-2.885,0-5.767-1.442-7.411-3.829c-0.536-0.778-0.34-1.842,0.439-2.378
					c0.779-0.535,1.842-0.338,2.378,0.439c1.192,1.731,3.547,2.677,5.607,2.244c0.415-0.087,0.819-0.229,1.203-0.42
					c-0.712-0.973-1.193-2.114-1.348-3.329c-0.185-1.456,0.117-2.821,0.852-3.845c1.011-1.409,2.793-2.037,4.332-1.532
					c2.232,0.737,2.975,3.311,2.557,5.473c-0.195,1.008-0.579,1.968-1.112,2.841c0.072,0.013,0.145,0.023,0.218,0.031
					c1.691,0.199,3.536-0.957,4.117-2.556c0.581-1.598-0.099-3.663-1.515-4.602c-0.787-0.522-1.002-1.583-0.48-2.37
					c0.522-0.788,1.583-1.002,2.37-0.48c2.743,1.82,3.964,5.526,2.839,8.621c-1.124,3.094-4.44,5.156-7.71,4.787
					c-0.834-0.094-1.636-0.341-2.375-0.711c-0.972,0.693-2.076,1.195-3.248,1.441C281.374,394.208,280.801,394.266,280.227,394.266z
					 M285.182,384.862c-0.091,0-0.32,0.089-0.457,0.279c-0.226,0.315-0.313,0.833-0.238,1.421c0.059,0.467,0.221,0.922,0.46,1.339
					c0.249-0.46,0.431-0.953,0.53-1.461c0.156-0.808-0.085-1.515-0.27-1.575C285.2,384.863,285.192,384.862,285.182,384.862z"/>
			</g>
			<path d="M280.578,390.826c-1.884,0.133-3.88-0.779-4.946-2.328c-0.535-0.777-1.599-0.974-2.378-0.439
				c-0.778,0.536-0.974,1.6-0.439,2.378c1.644,2.387,4.526,3.829,7.411,3.829c0.223,0,0.445-0.016,0.667-0.034
				C280.786,393.098,280.662,391.964,280.578,390.826z"/>
			<path style="fill:#6343FF;" d="M279.022,387.984c0,17.168-15.458,31.087-34.53,31.087c-19.061,0-34.519-13.919-34.519-31.087
				c0-9.941,5.187-18.798,13.247-24.487c3.853-2.725,8.368-4.731,13.292-5.768l-1.094,4.412l-2.884,11.605h11.332l-4.993,18.148
				l16.587-25.057h-7.752l4.241-9.222C267.439,360.682,279.022,373.108,279.022,387.984z"/>
		</g>
		<g>
			<path style="fill:#001A2D;" d="M220.927,381.523c-1.594,0-3.177-0.795-4.096-2.105c-0.159-0.226-0.104-0.538,0.122-0.696
				c0.226-0.159,0.538-0.104,0.696,0.122c0.843,1.201,2.386,1.856,3.834,1.638c1.451-0.223,2.724-1.312,3.168-2.711
				c0.083-0.263,0.364-0.406,0.628-0.325c0.263,0.083,0.409,0.364,0.325,0.628c-0.556,1.753-2.151,3.118-3.969,3.396
				C221.4,381.506,221.164,381.523,220.927,381.523z"/>
		</g>
	</g>
	<g>
		<path style="fill:#001A2D;" d="M513.753,91.226c-1.105,0-2,0.895-2,2V109.8h44.444c1.105,0,2-0.896,2-2V91.226H513.753z"/>
		<g>
			<path style="fill:#FEE526;" d="M558.124,107.685h-60.184c-1.105,0-2-0.895-2-2V83.84c0-1.104,0.895-2,2-2h60.184
				c1.104,0,2,0.896,2,2v21.846C560.124,106.79,559.228,107.685,558.124,107.685z"/>
			<path style="fill:#001A2D;" d="M516.116,94.762c0,3.659-2.716,6.468-6.283,6.468h-5.174V88.295h5.174
				C513.399,88.295,516.116,91.104,516.116,94.762z M513.27,94.762c0-2.217-1.404-3.621-3.437-3.621h-2.217v7.243h2.217
				C511.866,98.384,513.27,96.98,513.27,94.762z M527.385,98.384v2.846h-8.13V88.295h8.038v2.846h-5.082v2.144h4.62v2.809h-4.62
				v2.291H527.385z M540.133,97.442c0,2.291-1.866,3.788-4.176,3.788h-5.433V88.295h5.063c2.254,0,4.083,1.46,4.083,3.695
				c0,1.072-0.425,1.922-1.127,2.531C539.505,95.132,540.133,96.13,540.133,97.442z M533.481,91.067v2.291h2.107
				c0.665,0,1.127-0.48,1.127-1.146c0-0.665-0.443-1.145-1.127-1.145H533.481z M537.177,97.22c0-0.721-0.48-1.238-1.219-1.238
				h-2.476v2.477h2.476C536.696,98.458,537.177,97.941,537.177,97.22z M551.404,91.141h-3.326v10.089h-2.956V91.141h-3.326v-2.846
				h9.609V91.141z"/>
		</g>
	</g>
	<g>
		<g>
			<path style="fill:#FE9400;" d="M397.453,115.243c-0.428,0.049-0.814-0.259-0.863-0.687l-0.771-6.796l-6.796,0.771
				c-0.428,0.049-0.814-0.259-0.863-0.687l-0.771-6.795l-6.796,0.771c-0.428,0.049-0.814-0.259-0.863-0.687l-0.771-6.796
				l-6.796,0.771c-0.428,0.049-0.814-0.259-0.862-0.687c-0.049-0.428,0.258-0.814,0.687-0.862l7.57-0.859
				c0.428-0.049,0.814,0.259,0.863,0.687l0.771,6.796l6.796-0.771c0.428-0.049,0.814,0.259,0.862,0.687l0.771,6.795l6.796-0.771
				c0.428-0.049,0.814,0.259,0.863,0.687l0.859,7.571C398.189,114.809,397.882,115.195,397.453,115.243z"/>
		</g>
		<g>
			<path style="fill:#FEE526;" d="M315.506,346.459c-0.19,0.387-0.657,0.546-1.043,0.356l-6.139-3.016l-3.015,6.139
				c-0.19,0.387-0.657,0.546-1.044,0.356l-6.138-3.015l-3.015,6.139c-0.19,0.387-0.657,0.546-1.043,0.356l-6.139-3.016l-3.015,6.139
				c-0.19,0.387-0.657,0.546-1.043,0.356c-0.387-0.19-0.546-0.657-0.356-1.043l3.359-6.838c0.19-0.387,0.657-0.546,1.043-0.356
				l6.139,3.015l3.015-6.139c0.19-0.387,0.657-0.546,1.043-0.356l6.138,3.015l3.015-6.139c0.19-0.387,0.657-0.546,1.043-0.356
				l6.839,3.359C315.537,345.605,315.697,346.072,315.506,346.459z"/>
		</g>
		<g>
			<path style="fill:#FE9400;" d="M156.352,380.949c-0.428,0.045-0.812-0.265-0.857-0.694l-0.719-6.802l-6.801,0.719
				c-0.429,0.045-0.812-0.265-0.857-0.693l-0.718-6.801l-6.801,0.719c-0.429,0.045-0.812-0.265-0.857-0.693l-0.719-6.802
				l-6.802,0.719c-0.429,0.045-0.812-0.265-0.857-0.693c-0.045-0.428,0.265-0.812,0.693-0.857l7.577-0.801
				c0.429-0.045,0.812,0.265,0.857,0.693l0.719,6.802l6.801-0.719c0.429-0.045,0.812,0.265,0.857,0.693l0.719,6.801l6.801-0.719
				c0.429-0.045,0.812,0.265,0.857,0.693l0.801,7.577C157.091,380.521,156.781,380.904,156.352,380.949z"/>
		</g>
		<g>
			<path style="fill:#FEE526;" d="M380.703,408.831l-8.937-1.193c-0.427-0.057-0.727-0.449-0.67-0.876l1.193-8.937
				c0.057-0.427,0.449-0.727,0.876-0.67l8.938,1.193c0.427,0.057,0.727,0.449,0.67,0.876l-1.193,8.937
				C381.522,408.589,381.13,408.888,380.703,408.831z M372.745,406.196l7.392,0.987l0.987-7.391l-7.392-0.987L372.745,406.196z"/>
		</g>
		<g>
			<path style="fill:#FEE526;" d="M125.309,252.951l7.261-5.346c0.347-0.255,0.835-0.181,1.09,0.166l5.346,7.26
				c0.256,0.347,0.181,0.835-0.165,1.09l-7.261,5.346c-0.347,0.255-0.835,0.181-1.09-0.165l-5.346-7.26
				C124.888,253.695,124.962,253.207,125.309,252.951z M132.867,249.323l-6.005,4.422l4.421,6.005l6.005-4.422L132.867,249.323z"/>
		</g>
		<g>
			<path style="fill:#FEE526;" d="M183.35,98.148c-0.133,0.023-0.272,0.01-0.402-0.039c-0.261-0.096-0.451-0.325-0.497-0.6
				l-1.599-9.431c-0.047-0.275,0.057-0.553,0.272-0.73c0.214-0.178,0.508-0.228,0.769-0.13l8.966,3.331
				c0.261,0.096,0.451,0.325,0.497,0.6c0.047,0.275-0.057,0.553-0.272,0.73l-7.367,6.1C183.61,98.069,183.483,98.126,183.35,98.148z
				 M182.615,89.15l1.148,6.768l5.286-4.378L182.615,89.15z"/>
		</g>
		<g>
			<path style="fill:#FE9400;" d="M120.778,165.138c-0.133,0.023-0.272,0.01-0.402-0.038c-0.261-0.096-0.451-0.325-0.497-0.6
				l-1.599-9.431c-0.047-0.275,0.057-0.553,0.272-0.73c0.214-0.178,0.508-0.228,0.769-0.13l8.966,3.331
				c0.261,0.096,0.451,0.325,0.497,0.6c0.047,0.275-0.057,0.553-0.272,0.73l-7.367,6.1
				C121.038,165.059,120.911,165.116,120.778,165.138z M120.043,156.14l1.148,6.768l5.286-4.378L120.043,156.14z"/>
		</g>
		<g>
			<path style="fill:#FE9400;" d="M603.061,195.593c-0.056,0.122-0.144,0.23-0.258,0.31c-0.227,0.162-0.522,0.189-0.776,0.073
				l-8.694-3.989c-0.253-0.116-0.425-0.358-0.451-0.636c-0.027-0.277,0.097-0.548,0.325-0.708l7.801-5.534
				c0.226-0.162,0.522-0.189,0.776-0.073c0.253,0.116,0.425,0.358,0.45,0.636l0.893,9.523
				C603.142,195.333,603.117,195.47,603.061,195.593z M595.211,191.133l6.239,2.863l-0.641-6.834L595.211,191.133z"/>
		</g>
		<path style="fill:#FE9400;" d="M468.21,401.142c-0.123-0.413-0.556-0.648-0.969-0.525l-3.158,0.939l-0.938-3.157
			c-0.123-0.413-0.556-0.648-0.969-0.525c-0.413,0.123-0.648,0.556-0.525,0.969l0.938,3.157l-3.157,0.938
			c-0.413,0.123-0.648,0.556-0.525,0.97c0.123,0.413,0.556,0.648,0.969,0.525l3.157-0.938l0.938,3.157
			c0.123,0.413,0.556,0.648,0.97,0.525c0.413-0.123,0.648-0.557,0.525-0.969l-0.938-3.157l3.158-0.938
			C468.098,401.989,468.333,401.555,468.21,401.142z"/>
		<path style="fill:#FEE526;" d="M486.129,113.49l-2.919-1.527l1.527-2.918c0.2-0.382,0.053-0.853-0.329-1.052
			c-0.382-0.2-0.853-0.052-1.052,0.329l-1.527,2.918l-2.918-1.527c-0.382-0.2-0.852-0.052-1.052,0.329
			c-0.2,0.382-0.053,0.852,0.329,1.052l2.918,1.527l-1.527,2.918c-0.2,0.382-0.053,0.853,0.329,1.052
			c0.382,0.2,0.853,0.052,1.052-0.33l1.527-2.918l2.919,1.527c0.382,0.2,0.853,0.052,1.052-0.329
			C486.659,114.16,486.511,113.689,486.129,113.49z"/>
		<path style="fill:#FEE526;" d="M190.606,362.769l-2.919-1.527l1.527-2.918c0.2-0.382,0.053-0.853-0.329-1.052
			c-0.382-0.2-0.852-0.052-1.052,0.329l-1.527,2.918l-2.918-1.527c-0.382-0.2-0.852-0.052-1.052,0.329
			c-0.2,0.382-0.053,0.853,0.329,1.052l2.918,1.527l-1.527,2.918c-0.2,0.382-0.052,0.853,0.329,1.052
			c0.382,0.2,0.853,0.052,1.052-0.329l1.527-2.918l2.919,1.527c0.382,0.2,0.852,0.053,1.052-0.329
			C191.136,363.44,190.988,362.969,190.606,362.769z"/>
		<path style="fill:#FEE526;" d="M524.701,326.261l-2.987,1.391l-1.39-2.986c-0.182-0.391-0.645-0.56-1.036-0.378
			c-0.391,0.182-0.56,0.645-0.378,1.036l1.39,2.986l-2.986,1.39c-0.391,0.182-0.56,0.645-0.378,1.036
			c0.182,0.391,0.645,0.56,1.036,0.378l2.986-1.39l1.39,2.986c0.182,0.391,0.645,0.56,1.036,0.378
			c0.391-0.182,0.56-0.645,0.378-1.036l-1.39-2.986l2.987-1.39c0.391-0.182,0.56-0.645,0.378-1.036
			C525.555,326.248,525.092,326.079,524.701,326.261z"/>
	</g>
</g>
</svg>
