<?xml version="1.0" encoding="utf-8"?>
<!-- Generator: Adobe Illustrator 27.5.0, SVG Export Plug-In . SVG Version: 6.00 Build 0)  -->
<svg version="1.1" id="Layer_1" xmlns="http://www.w3.org/2000/svg" xmlns:xlink="http://www.w3.org/1999/xlink" x="0px" y="0px"
	 viewBox="0 0 845.463 400" style="enable-background:new 0 0 845.463 400;" xml:space="preserve">
<rect x="0" style="fill:#EAE0E0;" width="845.463" height="400"/>
<g>
	<path style="fill:#5C69A5;" d="M531.127,134.165H389.571c-3.101,0-5.622-2.522-5.622-5.622V19.685c0-3.1,2.522-5.623,5.622-5.623
		h141.556c3.101,0,5.622,2.522,5.622,5.623v108.858C536.749,131.643,534.228,134.165,531.127,134.165z M389.571,14.756
		c-2.718,0-4.929,2.211-4.929,4.928v108.858c0,2.717,2.211,4.928,4.929,4.928h141.556c2.718,0,4.929-2.211,4.929-4.928V19.685
		c0-2.717-2.211-4.928-4.929-4.928H389.571z"/>
</g>
<g>
	<g>
		<path style="fill:#5C69A5;" d="M524.903,140.234H383.348c-2.914,0-5.275-2.362-5.275-5.275V26.101
			c0-2.914,2.362-5.275,5.275-5.275h141.555c2.914,0,5.275,2.362,5.275,5.275v108.858
			C530.178,137.872,527.816,140.234,524.903,140.234z"/>
	</g>
	<g>
		<path style="fill:#FFFFFF;" d="M523.298,31.022v99.015c0,2.642-2.148,4.79-4.802,4.79H389.75c-2.654,0-4.79-2.148-4.79-4.79
			V31.022c0-2.642,2.137-4.791,4.79-4.791h128.746C521.15,26.231,523.298,28.38,523.298,31.022z"/>
	</g>
	<g>
		<path style="fill:#68B6D8;" d="M427.452,42.542H396.27c-0.906,0-1.641-0.735-1.641-1.641c0-0.906,0.735-1.641,1.641-1.641h31.183
			c0.906,0,1.641,0.735,1.641,1.641C429.093,41.808,428.359,42.542,427.452,42.542z"/>
	</g>
	<g>
		<path style="fill:#68B6D8;" d="M427.452,51.389H396.27c-0.906,0-1.641-0.734-1.641-1.641s0.735-1.641,1.641-1.641h31.183
			c0.906,0,1.641,0.735,1.641,1.641S428.359,51.389,427.452,51.389z"/>
	</g>
	<g>
		<path style="fill:#68B6D8;" d="M427.452,60.348H396.27c-0.906,0-1.641-0.735-1.641-1.641c0-0.906,0.735-1.641,1.641-1.641h31.183
			c0.906,0,1.641,0.735,1.641,1.641C429.093,59.614,428.359,60.348,427.452,60.348z"/>
	</g>
	<g>
		<path style="fill:#F7B369;" d="M514.991,42.542c0,1.971-1.598,3.57-3.57,3.57c-1.971,0-3.569-1.598-3.569-3.57
			c0-1.971,1.598-3.569,3.569-3.569C513.393,38.973,514.991,40.571,514.991,42.542z"/>
	</g>
	<g>
		<path style="fill:#A37B90;" d="M514.991,57.067c0,1.972-1.598,3.57-3.57,3.57c-1.971,0-3.569-1.598-3.569-3.57
			c0-1.971,1.598-3.569,3.569-3.569C513.393,53.498,514.991,55.096,514.991,57.067z"/>
	</g>
	<g>
		<path style="fill:#5C69A5;" d="M514.991,71.592c0,1.971-1.598,3.57-3.57,3.57c-1.971,0-3.569-1.598-3.569-3.57
			c0-1.971,1.598-3.57,3.569-3.57C513.393,68.022,514.991,69.62,514.991,71.592z"/>
	</g>
	<g>
		<path style="fill:#92B4EA;" d="M523.298,91.472v38.565c0,2.642-2.148,4.79-4.802,4.79H389.75c-2.654,0-4.79-2.148-4.79-4.79
			v-19.553l18.22-19.909l21.356,15.061l29.593-46.928l24.642,32.89l7.134-11.063l9.19,15.394l8.49-13.786l11.408,27.066
			L523.298,91.472z"/>
	</g>
	<g>
		<path style="fill:#5C69A5;" d="M512.25,128.191c-0.126-0.002-0.236-0.066-0.299-0.17l-16.866-28.364l-5.847,9.115
			c-0.059,0.092-0.157,0.15-0.266,0.159c-0.104,0.01-0.215-0.035-0.287-0.117l-11.683-13.313l-13.031,22.053
			c-0.063,0.105-0.176,0.17-0.299,0.17c-0.112-0.009-0.238-0.066-0.301-0.174l-13.685-23.736l-17.882,30.404
			c-0.057,0.097-0.156,0.16-0.268,0.17c-0.103,0.011-0.221-0.034-0.294-0.118l-8.159-9.418l-7.669,9.409
			c-0.06,0.073-0.145,0.118-0.239,0.126c-0.093,0.009-0.188-0.021-0.257-0.083l-16.33-14.108l-13.378,14.085
			c-0.133,0.138-0.352,0.144-0.491,0.012c-0.139-0.132-0.145-0.352-0.013-0.491l13.606-14.325c0.129-0.134,0.339-0.144,0.479-0.023
			l16.311,14.091l7.704-9.453c0.065-0.08,0.162-0.126,0.265-0.128c0.105,0,0.201,0.044,0.268,0.12l8.113,9.364l17.939-30.501
			c0.063-0.107,0.212-0.166,0.301-0.171c0.123,0,0.237,0.067,0.299,0.174l13.685,23.737l12.973-21.954
			c0.057-0.096,0.155-0.159,0.267-0.169c0.107-0.012,0.219,0.033,0.293,0.117l11.694,13.326l5.9-9.2
			c0.064-0.101,0.181-0.16,0.298-0.16c0.12,0.002,0.232,0.066,0.293,0.17l16.865,28.363l10.745-16.884
			c0.104-0.163,0.319-0.208,0.479-0.106c0.161,0.103,0.209,0.317,0.107,0.479l-11.048,17.36
			C512.48,128.131,512.368,128.191,512.25,128.191z"/>
	</g>
	<g>
		<path style="fill:#5C69A5;" d="M428.104,103.87c0,1.971-1.598,3.57-3.57,3.57s-3.569-1.598-3.569-3.57
			c0-1.971,1.598-3.57,3.569-3.57S428.104,101.898,428.104,103.87z"/>
	</g>
	<g>
		<path style="fill:#A37B90;" d="M457.698,60.348c0,1.971-1.598,3.569-3.569,3.569s-3.57-1.598-3.57-3.569
			c0-1.972,1.598-3.57,3.57-3.57S457.698,58.377,457.698,60.348z"/>
	</g>
	<g>
		<path style="fill:#F7B369;" d="M489.48,80.53c0,1.971-1.598,3.569-3.57,3.569s-3.57-1.598-3.57-3.569
			c0-1.971,1.598-3.57,3.57-3.57S489.48,78.558,489.48,80.53z"/>
	</g>
</g>
<rect x="0" y="358.252" style="fill:#C4ADAD;" width="845.463" height="41.748"/>
<g>
	<path style="fill:#92B4EA;" d="M356.707,196.989H229.492c-2.806,0-5.088-2.282-5.088-5.088V94.07c0-2.806,2.283-5.088,5.088-5.088
		h127.215c2.806,0,5.088,2.283,5.088,5.088v97.831C361.796,194.706,359.513,196.989,356.707,196.989z M229.492,89.676
		c-2.423,0-4.394,1.971-4.394,4.394v97.831c0,2.423,1.971,4.394,4.394,4.394h127.215c2.423,0,4.394-1.971,4.394-4.394V94.07
		c0-2.423-1.971-4.394-4.394-4.394H229.492z"/>
</g>
<g>
	<g>
		<path style="fill:#FCA338;" d="M195.635,378.868c0,2.205-20.867,3.993-46.608,3.993c-25.741,0-46.608-1.788-46.608-3.993
			c0-2.205,20.867-3.993,46.608-3.993C174.768,374.874,195.635,376.662,195.635,378.868z"/>
	</g>
	<g>
		<rect x="102.42" y="370.015" style="fill:#FCA338;" width="93.216" height="8.853"/>
	</g>
	<g>
		<path style="fill:#FFB655;" d="M195.635,370.015c0,2.205-20.867,3.993-46.608,3.993c-25.741,0-46.608-1.788-46.608-3.993
			c0-2.205,20.867-3.993,46.608-3.993C174.768,366.022,195.635,367.81,195.635,370.015z"/>
	</g>
	<g>
		<path style="fill:#F2871C;" d="M161.313,376.506c-0.638,0-1.002-0.002-1.024-0.002c-0.208-0.002-0.374-0.172-0.372-0.379
			c0.001-0.207,0.197-0.353,0.378-0.373c0.136,0.006,13.781,0.092,23.659-0.897c0.201-0.012,0.391,0.13,0.411,0.337
			c0.021,0.206-0.13,0.39-0.336,0.411C175.688,376.438,164.686,376.506,161.313,376.506z"/>
	</g>
	<g>
		<path style="fill:#FCA338;" d="M195.635,369.039c0,2.205-20.867,3.993-46.608,3.993c-25.741,0-46.608-1.788-46.608-3.993
			c0-2.205,20.867-3.993,46.608-3.993C174.768,365.045,195.635,366.833,195.635,369.039z"/>
	</g>
	<g>
		<rect x="102.42" y="360.186" style="fill:#FCA338;" width="93.216" height="8.853"/>
	</g>
	<g>
		<ellipse style="fill:#FFB655;" cx="149.028" cy="360.186" rx="46.608" ry="3.993"/>
	</g>
	<g>
		<path style="fill:#F2871C;" d="M161.313,366.677c-0.638,0-1.002-0.002-1.024-0.002c-0.208-0.002-0.374-0.172-0.372-0.379
			c0.001-0.206,0.169-0.373,0.376-0.373c0.024-0.002,0.36,0.003,1.025,0.003c3.361,0,14.33-0.068,22.637-0.899
			c0.201-0.019,0.391,0.13,0.411,0.337c0.021,0.206-0.13,0.39-0.336,0.411C175.688,366.608,164.686,366.677,161.313,366.677z"/>
	</g>
	<g>
		<path style="fill:#FCA338;" d="M201.165,358.854c0,2.205-20.867,3.993-46.608,3.993c-25.741,0-46.608-1.788-46.608-3.993
			c0-2.205,20.867-3.993,46.608-3.993C180.298,354.861,201.165,356.649,201.165,358.854z"/>
	</g>
	<g>
		<rect x="107.949" y="350.002" style="fill:#FCA338;" width="93.216" height="8.853"/>
	</g>
	<g>
		<ellipse style="fill:#FFB655;" cx="154.557" cy="350.002" rx="46.608" ry="3.993"/>
	</g>
	<g>
		<path style="fill:#F2871C;" d="M166.828,356.493c-0.629,0-0.988-0.002-1.01-0.002c-0.207-0.002-0.374-0.172-0.372-0.379
			c0.001-0.206,0.169-0.373,0.376-0.373c0.025,0.009,0.355,0.003,1.01,0.003c3.344,0,14.333-0.067,22.653-0.899
			c0.203-0.015,0.39,0.13,0.411,0.337c0.021,0.206-0.13,0.391-0.336,0.411C181.206,356.426,170.183,356.493,166.828,356.493z"/>
	</g>
	<g>
		<ellipse style="fill:#FCA338;" cx="154.557" cy="349.026" rx="46.608" ry="3.993"/>
	</g>
	<g>
		<rect x="107.949" y="340.173" style="fill:#FCA338;" width="93.216" height="8.853"/>
	</g>
	<g>
		<path style="fill:#FFB655;" d="M201.165,340.173c0,2.205-20.867,3.993-46.608,3.993c-25.741,0-46.608-1.788-46.608-3.993
			s20.867-3.993,46.608-3.993C180.298,336.18,201.165,337.967,201.165,340.173z"/>
	</g>
	<g>
		<path style="fill:#F2871C;" d="M166.828,346.664c-0.629,0-0.988-0.002-1.01-0.002c-0.207-0.002-0.374-0.172-0.372-0.379
			c0.001-0.206,0.169-0.373,0.376-0.373c0.025,0.002,0.355,0.003,1.01,0.003c3.344,0,14.333-0.067,22.653-0.899
			c0.203-0.014,0.39,0.13,0.411,0.337c0.021,0.206-0.13,0.391-0.336,0.411C181.206,346.597,170.183,346.664,166.828,346.664z"/>
	</g>
</g>
<g>
	<g>
		<path style="fill:#FCA338;" d="M269.373,381.205c0,2.205-20.867,3.993-46.608,3.993c-25.741,0-46.608-1.788-46.608-3.993
			c0-2.205,20.867-3.993,46.608-3.993C248.506,377.211,269.373,378.999,269.373,381.205z"/>
	</g>
	<g>
		<rect x="176.157" y="372.352" style="fill:#FCA338;" width="93.216" height="8.853"/>
	</g>
	<g>
		<ellipse style="fill:#FFB655;" cx="222.765" cy="372.352" rx="46.608" ry="3.993"/>
	</g>
	<g>
		<path style="fill:#F2871C;" d="M235.035,378.844c-0.628,0-0.986-0.002-1.008-0.002c-0.207-0.002-0.374-0.172-0.372-0.379
			c0.002-0.207,0.163-0.414,0.378-0.373c0.137,0.006,13.781,0.092,23.659-0.897c0.206-0.013,0.391,0.13,0.411,0.337
			c0.021,0.206-0.13,0.39-0.336,0.411C249.413,378.776,238.387,378.844,235.035,378.844z"/>
	</g>
	<g>
		<ellipse style="fill:#FCA338;" cx="222.765" cy="371.376" rx="46.608" ry="3.993"/>
	</g>
	<g>
		<rect x="176.157" y="362.523" style="fill:#FCA338;" width="93.216" height="8.853"/>
	</g>
	<g>
		<path style="fill:#FFB655;" d="M269.373,362.523c0,2.205-20.867,3.993-46.608,3.993c-25.741,0-46.608-1.788-46.608-3.993
			c0-2.205,20.867-3.993,46.608-3.993C248.506,358.53,269.373,360.318,269.373,362.523z"/>
	</g>
	<g>
		<path style="fill:#F2871C;" d="M235.035,369.015c-0.628,0-0.986-0.002-1.008-0.002c-0.207-0.002-0.374-0.172-0.372-0.379
			c0.001-0.206,0.169-0.373,0.375-0.373c0.028-0.001,0.354,0.003,1.008,0.003c3.342,0,14.334-0.067,22.654-0.9
			c0.206-0.02,0.391,0.13,0.411,0.337c0.021,0.206-0.13,0.39-0.336,0.411C249.413,368.947,238.387,369.015,235.035,369.015z"/>
	</g>
</g>
<g>
	<g>
		<ellipse style="fill:#FCA338;" cx="731.996" cy="382.439" rx="46.608" ry="3.993"/>
	</g>
	<g>
		<rect x="685.388" y="373.586" style="fill:#FCA338;" width="93.216" height="8.853"/>
	</g>
	<g>
		<path style="fill:#FFB655;" d="M778.604,373.586c0,2.205-20.867,3.993-46.608,3.993c-25.741,0-46.608-1.788-46.608-3.993
			c0-2.205,20.867-3.993,46.608-3.993C757.737,369.593,778.604,371.381,778.604,373.586z"/>
	</g>
	<g>
		<path style="fill:#F2871C;" d="M744.267,380.077c-0.629,0-0.988-0.002-1.01-0.002c-0.207-0.002-0.374-0.172-0.373-0.379
			c0.002-0.206,0.17-0.373,0.376-0.373c0.03,0.009,0.354,0.003,1.01,0.003c3.344,0,14.334-0.067,22.653-0.899
			c0.221-0.017,0.391,0.131,0.411,0.337c0.021,0.206-0.13,0.391-0.337,0.411C758.645,380.01,747.621,380.077,744.267,380.077z"/>
	</g>
	<g>
		<path style="fill:#FCA338;" d="M778.604,372.61c0,2.205-20.867,3.993-46.608,3.993c-25.741,0-46.608-1.788-46.608-3.993
			c0-2.205,20.867-3.993,46.608-3.993C757.737,368.616,778.604,370.404,778.604,372.61z"/>
	</g>
	<g>
		<rect x="685.388" y="363.757" style="fill:#FCA338;" width="93.216" height="8.853"/>
	</g>
	<g>
		<ellipse style="fill:#FFB655;" cx="731.996" cy="363.757" rx="46.608" ry="3.993"/>
	</g>
	<g>
		<path style="fill:#F2871C;" d="M744.267,370.248c-0.629,0-0.988-0.002-1.01-0.002c-0.207-0.002-0.374-0.172-0.373-0.379
			c0.002-0.206,0.17-0.373,0.376-0.373c0.03,0.002,0.354,0.003,1.01,0.003c3.344,0,14.334-0.067,22.653-0.899
			c0.221-0.022,0.391,0.131,0.411,0.337c0.021,0.206-0.13,0.391-0.337,0.411C758.645,370.181,747.621,370.248,744.267,370.248z"/>
	</g>
	<g>
		<path style="fill:#FCA338;" d="M784.133,362.426c0,2.205-20.867,3.993-46.608,3.993c-25.741,0-46.608-1.788-46.608-3.993
			c0-2.205,20.867-3.993,46.608-3.993C763.266,358.432,784.133,360.22,784.133,362.426z"/>
	</g>
	<g>
		<rect x="690.918" y="353.573" style="fill:#FCA338;" width="93.216" height="8.853"/>
	</g>
	<g>
		<ellipse style="fill:#FFB655;" cx="737.526" cy="353.573" rx="46.608" ry="3.993"/>
	</g>
	<g>
		<path style="fill:#F2871C;" d="M749.795,360.065c-0.628,0-0.986-0.002-1.008-0.002c-0.207-0.002-0.374-0.172-0.373-0.379
			c0.002-0.206,0.17-0.373,0.376-0.373c0.03,0.001,0.353,0.003,1.008,0.003c3.342,0,14.334-0.067,22.654-0.9
			c0.218-0.02,0.391,0.131,0.411,0.337c0.021,0.206-0.13,0.39-0.337,0.411C764.173,359.997,753.147,360.065,749.795,360.065z"/>
	</g>
	<g>
		<ellipse style="fill:#FCA338;" cx="737.526" cy="352.597" rx="46.608" ry="3.993"/>
	</g>
	<g>
		<rect x="690.918" y="343.744" style="fill:#FCA338;" width="93.216" height="8.853"/>
	</g>
	<g>
		<path style="fill:#FFB655;" d="M784.133,343.744c0,2.205-20.867,3.993-46.608,3.993c-25.741,0-46.608-1.788-46.608-3.993
			c0-2.205,20.867-3.993,46.608-3.993C763.266,339.751,784.133,341.538,784.133,343.744z"/>
	</g>
	<g>
		<path style="fill:#F2871C;" d="M749.797,350.235c-0.629,0-0.988-0.002-1.01-0.002c-0.207-0.002-0.374-0.172-0.373-0.379
			c0.002-0.206,0.17-0.373,0.376-0.373c0.03,0.006,0.354,0.003,1.01,0.003c3.344,0,14.333-0.067,22.652-0.899
			c0.218-0.018,0.391,0.131,0.411,0.337c0.021,0.206-0.13,0.391-0.337,0.411C764.174,350.168,753.151,350.235,749.797,350.235z"/>
	</g>
</g>
<g>
	<ellipse style="fill:#FCA338;" cx="525.413" cy="361.343" rx="46.608" ry="3.993"/>
</g>
<g>
	<rect x="478.805" y="352.491" style="fill:#FCA338;" width="93.216" height="8.853"/>
</g>
<g>
	<path style="fill:#FFB655;" d="M572.021,352.491c0,2.205-20.867,3.993-46.608,3.993c-25.741,0-46.608-1.788-46.608-3.993
		c0-2.205,20.867-3.993,46.608-3.993C551.154,348.497,572.021,350.285,572.021,352.491z"/>
</g>
<g>
	<path style="fill:#F2871C;" d="M537.699,358.981c-0.638,0-1.003-0.002-1.024-0.002c-0.207-0.002-0.374-0.172-0.373-0.379
		c0.002-0.206,0.17-0.373,0.376-0.373c0.023,0.005,0.36,0.003,1.024,0.003c3.362,0,14.331-0.068,22.638-0.899
		c0.217-0.021,0.391,0.131,0.411,0.337c0.021,0.206-0.13,0.39-0.337,0.411C552.073,358.913,541.071,358.981,537.699,358.981z"/>
</g>
<g>
	<ellipse style="fill:#FCA338;" cx="525.413" cy="351.514" rx="46.608" ry="3.993"/>
</g>
<g>
	<rect x="478.805" y="342.661" style="fill:#FCA338;" width="93.216" height="8.853"/>
</g>
<g>
	<path style="fill:#FFB655;" d="M572.021,342.661c0,2.205-20.867,3.993-46.608,3.993c-25.741,0-46.608-1.788-46.608-3.993
		s20.867-3.993,46.608-3.993C551.154,338.668,572.021,340.456,572.021,342.661z"/>
</g>
<g>
	<path style="fill:#F2871C;" d="M537.683,349.153c-0.628,0-0.986-0.002-1.008-0.002c-0.207-0.002-0.374-0.172-0.373-0.379
		c0.002-0.206,0.17-0.373,0.376-0.373c0.023,0.009,0.354,0.003,1.008,0.003c3.342,0,14.334-0.067,22.654-0.9
		c0.217-0.018,0.391,0.131,0.411,0.337c0.021,0.206-0.13,0.39-0.337,0.411C552.061,349.086,541.035,349.153,537.683,349.153z"/>
</g>
<g>
	<path style="fill:#FCA338;" d="M577.551,341.33c0,2.205-20.867,3.993-46.608,3.993c-25.741,0-46.608-1.788-46.608-3.993
		c0-2.205,20.867-3.993,46.608-3.993C556.684,337.337,577.551,339.125,577.551,341.33z"/>
</g>
<g>
	<rect x="484.335" y="332.477" style="fill:#FCA338;" width="93.216" height="8.853"/>
</g>
<g>
	<ellipse style="fill:#FFB655;" cx="530.943" cy="332.477" rx="46.608" ry="3.993"/>
</g>
<g>
	<path style="fill:#F2871C;" d="M543.214,338.969c-0.629,0-0.988-0.002-1.01-0.002c-0.207-0.002-0.374-0.172-0.373-0.379
		c0.002-0.206,0.17-0.373,0.376-0.373c0.024,0.009,0.354,0.003,1.01,0.003c3.344,0,14.334-0.067,22.653-0.899
		c0.214-0.016,0.391,0.13,0.411,0.337c0.02,0.206-0.13,0.391-0.337,0.411C557.592,338.901,546.568,338.969,543.214,338.969z"/>
</g>
<g>
	<path style="fill:#FCA338;" d="M577.551,331.501c0,2.205-20.867,3.993-46.608,3.993c-25.741,0-46.608-1.788-46.608-3.993
		c0-2.205,20.867-3.993,46.608-3.993C556.684,327.508,577.551,329.296,577.551,331.501z"/>
</g>
<g>
	<rect x="484.335" y="322.648" style="fill:#FCA338;" width="93.216" height="8.853"/>
</g>
<g>
	<ellipse style="fill:#FFB655;" cx="530.943" cy="322.648" rx="46.608" ry="3.993"/>
</g>
<g>
	<path style="fill:#F2871C;" d="M543.214,329.14c-0.629,0-0.988-0.002-1.01-0.002c-0.207-0.002-0.374-0.172-0.373-0.379
		c0.002-0.206,0.17-0.373,0.376-0.373c0.024,0.002,0.354,0.003,1.01,0.003c3.344,0,14.334-0.067,22.653-0.899
		c0.214-0.021,0.391,0.131,0.411,0.337c0.02,0.206-0.13,0.391-0.337,0.411C557.592,329.072,546.568,329.14,543.214,329.14z"/>
</g>
<g>
	<path style="fill:#FCA338;" d="M446.231,362.077c0,2.205-20.867,3.993-46.608,3.993c-25.741,0-46.608-1.788-46.608-3.993
		c0-2.205,20.867-3.993,46.608-3.993C425.364,358.084,446.231,359.872,446.231,362.077z"/>
</g>
<g>
	<rect x="353.015" y="353.225" style="fill:#FCA338;" width="93.216" height="8.853"/>
</g>
<g>
	<ellipse style="fill:#FFB655;" cx="399.623" cy="353.225" rx="46.608" ry="3.993"/>
</g>
<g>
	<path style="fill:#F2871C;" d="M411.895,359.716c-0.629,0-0.988-0.002-1.01-0.002c-0.207-0.002-0.374-0.172-0.373-0.379
		c0.002-0.206,0.17-0.373,0.376-0.373c0.025,0.001,0.354,0.003,1.01,0.003c3.344,0,14.333-0.067,22.652-0.899
		c0.214-0.018,0.391,0.131,0.411,0.337c0.02,0.206-0.13,0.391-0.337,0.411C426.271,359.648,415.249,359.716,411.895,359.716z"/>
</g>
<g>
	<path style="fill:#FCA338;" d="M446.231,352.249c0,2.205-20.867,3.993-46.608,3.993c-25.741,0-46.608-1.788-46.608-3.993
		c0-2.205,20.867-3.993,46.608-3.993C425.364,348.255,446.231,350.043,446.231,352.249z"/>
</g>
<g>
	<rect x="353.015" y="343.396" style="fill:#FCA338;" width="93.216" height="8.853"/>
</g>
<g>
	<ellipse style="fill:#FFB655;" cx="399.623" cy="343.396" rx="46.608" ry="3.993"/>
</g>
<g>
	<path style="fill:#F2871C;" d="M411.909,349.887c-0.638,0-1.003-0.002-1.024-0.002c-0.207-0.002-0.374-0.172-0.373-0.379
		c0.002-0.206,0.17-0.373,0.376-0.373c0.025,0.006,0.36,0.003,1.024,0.003c3.362,0,14.331-0.068,22.638-0.899
		c0.214-0.016,0.391,0.13,0.411,0.337c0.02,0.206-0.13,0.39-0.337,0.411C426.283,349.818,415.281,349.887,411.909,349.887z"/>
</g>
<g>
	<g>
		<path style="fill:#FCA338;" d="M261.037,360.678c0,2.205-20.867,3.993-46.608,3.993c-25.741,0-46.608-1.788-46.608-3.993
			c0-2.205,20.867-3.993,46.608-3.993C240.17,356.684,261.037,358.472,261.037,360.678z"/>
	</g>
	<g>
		<rect x="167.821" y="351.825" style="fill:#FCA338;" width="93.216" height="8.853"/>
	</g>
	<g>
		<ellipse style="fill:#FFB655;" cx="214.429" cy="351.825" rx="46.608" ry="3.993"/>
	</g>
	<g>
		<path style="fill:#F2871C;" d="M226.699,358.316c-0.628,0-0.986-0.002-1.008-0.002c-0.207-0.002-0.374-0.172-0.373-0.379
			c0.001-0.207,0.217-0.383,0.378-0.373c0.138,0.008,13.78,0.092,23.659-0.897c0.206-0.017,0.391,0.13,0.411,0.337
			c0.021,0.206-0.13,0.39-0.336,0.411C241.076,358.249,230.051,358.316,226.699,358.316z"/>
	</g>
	<g>
		<ellipse style="fill:#FCA338;" cx="214.429" cy="350.849" rx="46.608" ry="3.993"/>
	</g>
	<g>
		<rect x="167.821" y="341.996" style="fill:#FCA338;" width="93.216" height="8.853"/>
	</g>
	<g>
		<path style="fill:#FFB655;" d="M261.037,341.996c0,2.205-20.867,3.993-46.608,3.993c-25.741,0-46.608-1.788-46.608-3.993
			c0-2.205,20.867-3.993,46.608-3.993C240.17,338.003,261.037,339.79,261.037,341.996z"/>
	</g>
	<g>
		<path style="fill:#F2871C;" d="M226.7,348.487c-0.629,0-0.988-0.002-1.01-0.002c-0.207-0.002-0.374-0.172-0.373-0.379
			c0.001-0.206,0.169-0.373,0.375-0.373c0.023,0,0.355,0.003,1.01,0.003c3.344,0,14.333-0.067,22.653-0.899
			c0.206-0.017,0.391,0.13,0.411,0.337c0.021,0.206-0.13,0.391-0.337,0.411C241.077,348.42,230.055,348.487,226.7,348.487z"/>
	</g>
	<g>
		<path style="fill:#FCA338;" d="M266.567,340.664c0,2.205-20.867,3.993-46.608,3.993c-25.741,0-46.608-1.788-46.608-3.993
			c0-2.205,20.867-3.993,46.608-3.993C245.7,336.671,266.567,338.459,266.567,340.664z"/>
	</g>
	<g>
		<rect x="173.351" y="331.812" style="fill:#FCA338;" width="93.216" height="8.853"/>
	</g>
	<g>
		<path style="fill:#FFB655;" d="M266.567,331.812c0,2.205-20.867,3.993-46.608,3.993c-25.741,0-46.608-1.788-46.608-3.993
			c0-2.205,20.867-3.993,46.608-3.993C245.7,327.818,266.567,329.606,266.567,331.812z"/>
	</g>
	<g>
		<path style="fill:#F2871C;" d="M232.23,338.303c-0.629,0-0.988-0.002-1.01-0.002c-0.207-0.002-0.374-0.172-0.373-0.379
			c0.002-0.206,0.17-0.373,0.376-0.373c0.024,0,0.355,0.003,1.01,0.003c3.344,0,14.333-0.067,22.653-0.899
			c0.199-0.012,0.39,0.13,0.411,0.337c0.021,0.206-0.13,0.391-0.336,0.411C246.607,338.235,235.584,338.303,232.23,338.303z"/>
	</g>
	<g>
		<path style="fill:#FCA338;" d="M266.567,330.836c0,2.205-20.867,3.993-46.608,3.993c-25.741,0-46.608-1.788-46.608-3.993
			c0-2.205,20.867-3.993,46.608-3.993C245.7,326.842,266.567,328.63,266.567,330.836z"/>
	</g>
	<g>
		<rect x="173.351" y="321.983" style="fill:#FCA338;" width="93.216" height="8.853"/>
	</g>
	<g>
		<ellipse style="fill:#FFB655;" cx="219.959" cy="321.983" rx="46.608" ry="3.993"/>
	</g>
	<g>
		<path style="fill:#F2871C;" d="M232.245,328.474c-0.638,0-1.002-0.002-1.024-0.002c-0.208-0.002-0.374-0.172-0.373-0.379
			c0.002-0.207,0.174-0.353,0.378-0.373c0.137,0.007,13.78,0.092,23.659-0.896c0.2-0.019,0.391,0.13,0.411,0.337
			c0.021,0.206-0.13,0.39-0.336,0.411C246.619,328.405,235.617,328.474,232.245,328.474z"/>
	</g>
</g>
<g>
	<circle style="fill:#FCA338;" cx="206.263" cy="291.474" r="32.434"/>
</g>
<g>
	
		<ellipse transform="matrix(0.916 -0.4011 0.4011 0.916 -99.5929 107.2086)" style="fill:#FFB655;" cx="206.263" cy="291.474" rx="26.869" ry="26.869"/>
</g>
<g>
	<path style="fill:#FFDD92;" d="M185.38,283.217c-0.034,0-0.067-0.004-0.101-0.013c-0.228-0.056-0.368-0.285-0.312-0.513
		c0.021-0.083,2.138-8.408,10.941-11.774c0.221-0.085,0.465,0.025,0.548,0.245c0.084,0.219-0.026,0.464-0.245,0.548
		c-8.376,3.203-10.4,11.104-10.419,11.183C185.745,283.087,185.571,283.217,185.38,283.217z"/>
</g>
<g>
	<g>
		<path style="fill:#F48462;" d="M679.352,152.439c0,0,5.014,10.308,9.488,9.176c4.474-1.133,7.878-4.997,7.878-4.997
			s0.441-10.119-5.091-11.409C684.871,143.632,679.352,152.439,679.352,152.439z"/>
	</g>
	<g>
		<path style="fill:#F48462;" d="M803.424,148.589c0,0-8.919,22.302-21.777,29.438c-10.52,5.838-22.288,3.441-22.288,3.441
			l2.012-21.086l11.6-2.887c2.161-0.928,8.418-5.198,10.181-6.755l8.658-9.708L803.424,148.589z"/>
	</g>
	<g>
		<path d="M742.815,135.585c0,0-3.345-8.923,0.726-10.029c4.071-1.106,7.929,4.132,7.929,4.132s8.383,2.235,10.882,7.582
			c2.499,5.347-6.728,12.41-6.728,12.41L742.815,135.585z"/>
	</g>
	<g>
		<g>
			<polygon style="fill:#F48462;" points="711.886,321.771 716.331,315.31 700.879,304.889 694.105,313.563 704.477,322.813 			"/>
		</g>
	</g>
	<g>
		<g>
			<polygon style="fill:#F48462;" points="741.943,316.352 741.731,327.607 761.628,327.398 760.782,315.31 			"/>
		</g>
	</g>
	<g>
		<g>
			<path style="fill:#68B6D8;" d="M731.57,205.681l0.916,47.061c0,0,0.496,23.342,1.352,42.584
				c0.285,6.699,1.168,15.95,1.543,20.502c0.36,4.416,0.214,4.223,0.635,4.478c2.118,1.262,29.332,0.271,29.753-0.766
				c0.075-0.195-0.839,0.944-0.809-3.712c0.12-20.173,1.759-77.461,0.888-87.119c-1.051-11.882-3.154-23.237-3.154-23.237
				l-27.308,0.18L731.57,205.681z"/>
		</g>
	</g>
	<g>
		<g>
			<path style="fill:#68B6D8;" d="M695.114,308.92c0.42,2.073,21.42,12.783,23.117,12.783c0.481,0,2.193-2.583,4.386-6.264
				c3.5-5.873,8.231-14.555,11.221-20.113c1.727-3.199,2.869-5.362,2.869-5.362l-1.322-84.312v-0.18l-9.433-2.463
				c0,0-24.398,78.359-30.842,101.882C693.998,308.96,695.054,308.62,695.114,308.92z"/>
		</g>
	</g>
	<g>
		<path style="fill:#FFFFFF;" d="M760.136,218.667c-5.396,0-8.691-6.701-8.727-6.775c-0.072-0.149-0.01-0.328,0.14-0.4
			c0.148-0.071,0.329-0.01,0.401,0.14c0.037,0.076,3.765,7.646,9.608,6.267c0.164-0.043,0.323,0.061,0.361,0.223
			c0.038,0.162-0.062,0.323-0.223,0.361C761.159,218.609,760.638,218.667,760.136,218.667z"/>
	</g>
	<g>
		<path style="fill:#FFFFFF;" d="M733.958,294.97c-0.172-0.004-0.304-0.141-0.301-0.307l1.42-70.719l-8.066-5.325
			c-0.139-0.092-0.177-0.278-0.086-0.416c0.091-0.139,0.277-0.176,0.416-0.086l8.205,5.417c0.087,0.057,0.138,0.154,0.136,0.257
			l-1.423,70.884C734.255,294.839,734.121,294.97,733.958,294.97z"/>
	</g>
	<g>
		<path style="fill:#A37B90;" d="M741.222,158.256c0,0-7.917,0.332-11.056,6.196c-3.139,5.864-5.511,40.815-5.511,40.815
			s8.778,3.587,21.589,3.432c12.811-0.155,17.143-3.224,17.143-3.224l2.465-21.553c0,0-0.39-23.383-3.584-24.976
			C759.073,157.352,746.524,156.995,741.222,158.256z"/>
	</g>
	<g>
		<g>
			<path style="fill:#F48462;" d="M754.176,150.557l-0.816,8.34c0,0-1.302,1.367-6.22,1.286c-3.663-0.06-5.296-0.123-5.296-0.123
				l0.92-4.174l0.902-4.07l8.999-1.076L754.176,150.557z"/>
		</g>
	</g>
	<g>
		<g>
			<path d="M752.666,150.74c-0.043,0.226-0.156,0.486-0.321,0.781c-2.274,3.983-7.463,4.382-9.58,4.365l0.902-4.07L752.666,150.74z"
				/>
		</g>
	</g>
	<g>
		<g>
			<path style="fill:#F48462;" d="M743.866,133.315c0,0-5.123,10.028-4.026,16.006c1.098,5.978,6.221,5.496,9.332,4.628
				c3.111-0.868,4.666-2.7,4.666-2.7s2.745,1.254,4.849-1.35c2.104-2.603,1.189-5.882-0.366-6.749s-3.568,0.193-3.568,0.193
				l1.738-2.893C756.492,140.45,751.369,124.54,743.866,133.315z"/>
		</g>
	</g>
	<g>
		<path d="M754.659,147.843c-0.101,0-0.199-0.051-0.256-0.144c-0.087-0.142-0.042-0.326,0.099-0.413l3.815-2.335
			c0.144-0.085,0.326-0.043,0.413,0.1c0.087,0.142,0.042,0.326-0.099,0.413l-3.815,2.335
			C754.767,147.829,754.713,147.843,754.659,147.843z"/>
	</g>
	<g>
		<path d="M757.913,148.132c-0.036,0-0.072-0.006-0.108-0.02l-2.289-0.879c-0.155-0.059-0.232-0.233-0.173-0.388
			c0.06-0.154,0.234-0.232,0.388-0.172l2.289,0.879c0.155,0.059,0.232,0.233,0.173,0.388
			C758.147,148.059,758.034,148.132,757.913,148.132z"/>
	</g>
	<g>
		<path d="M750.117,138.365c-0.103,0-0.202-0.052-0.258-0.147c-0.887-1.491-2.206-0.944-2.263-0.919
			c-0.148,0.063-0.329-0.004-0.394-0.155c-0.066-0.151,0.002-0.328,0.152-0.395c0.019-0.01,1.856-0.797,3.021,1.162
			c0.085,0.143,0.038,0.327-0.104,0.412C750.223,138.351,750.17,138.365,750.117,138.365z"/>
	</g>
	<g>
		<path d="M742.479,137.182c-0.094,0-0.187-0.044-0.245-0.126c-0.096-0.135-0.064-0.323,0.071-0.419
			c1.016-0.722,2.066-0.311,2.482,0.007c0.131,0.101,0.155,0.29,0.055,0.421c-0.102,0.132-0.29,0.155-0.42,0.056
			c-0.035-0.027-0.864-0.636-1.769,0.006C742.6,137.164,742.539,137.182,742.479,137.182z"/>
	</g>
	<g>
		<path d="M742.814,145.509c-0.143,0-0.268-0.101-0.296-0.246c-0.65-3.534,2.13-4.63,2.158-4.641
			c0.156-0.06,0.328,0.019,0.387,0.174c0.059,0.154-0.018,0.328-0.173,0.388c-0.096,0.037-2.339,0.941-1.78,3.97
			c0.029,0.164-0.078,0.32-0.241,0.35C742.851,145.507,742.832,145.509,742.814,145.509z"/>
	</g>
	<g>
		<path d="M742.142,141.192c-0.034,0-0.068-0.005-0.103-0.018c-0.155-0.057-0.236-0.229-0.18-0.385l0.673-1.861
			c0.056-0.157,0.227-0.237,0.385-0.181c0.155,0.057,0.236,0.229,0.18,0.385l-0.673,1.861
			C742.38,141.116,742.265,141.192,742.142,141.192z"/>
	</g>
	<g>
		<path d="M747.14,141.811c-0.034,0-0.068-0.005-0.103-0.018c-0.155-0.057-0.236-0.229-0.18-0.385l0.673-1.862
			c0.056-0.156,0.228-0.236,0.385-0.181c0.155,0.057,0.236,0.229,0.18,0.385l-0.673,1.862
			C747.378,141.736,747.263,141.811,747.14,141.811z"/>
	</g>
	<g>
		<path d="M742.815,135.585c0,0,1.015-1.588,2.99-1.399c1.975,0.189,2.992,1.773,2.992,1.773s-1.191,3.414,1.32,5.551
			c2.511,2.138,4.637,1.831,4.637,1.831l2.015-0.531l1.706-2.851l-5.038-6.978l-6.913-4.807l-4.045,3.171L742.815,135.585z"/>
	</g>
	<g>
		<path d="M745.173,148.816c-0.193,0-0.366-0.019-0.506-0.047c-0.162-0.034-0.267-0.192-0.233-0.354
			c0.033-0.162,0.193-0.265,0.354-0.235c0.065,0.012,1.617,0.303,2.428-1.132c0.082-0.145,0.265-0.195,0.409-0.114
			c0.144,0.082,0.195,0.265,0.114,0.409C747.079,148.512,745.955,148.816,745.173,148.816z"/>
	</g>
	<g>
		<g>
			<path style="fill:#F48462;" d="M791.389,140.128c0,0,1.254-5.563,4.226-8.097c2.972-2.534,6.488-4.167,5.873-1.912
				c-0.615,2.255-2.673,5.94-2.673,5.94l5.392-1.436c0,0,3.516-1.633,6.07-2.313c2.554-0.68,3.358,1.197,3.358,1.197
				s2.554-0.68,3.665,0.07c1.111,0.75,0.323,2.354,0.323,2.354s3.665,0.07,2.286,2.877c-1.38,2.807-8.632,7.527-12.148,9.16
				c-3.516,1.633-11.438,2.697-11.438,2.697S789.208,152.222,791.389,140.128z"/>
		</g>
	</g>
	<g>
		<path d="M811.107,141.346c-0.048,0-0.097-0.011-0.142-0.036l-9.353-5.015c-0.146-0.078-0.201-0.26-0.123-0.407
			c0.078-0.146,0.263-0.201,0.406-0.123l9.353,5.015c0.146,0.078,0.201,0.26,0.123,0.407
			C811.317,141.289,811.213,141.346,811.107,141.346z"/>
	</g>
	<g>
		<path d="M795.384,143.658c-0.119,0-0.231-0.071-0.279-0.189c-0.062-0.154,0.014-0.329,0.168-0.391
			c4.341-1.741,3.092-5.94,3.036-6.119c-0.049-0.158,0.039-0.327,0.197-0.376c0.161-0.051,0.326,0.038,0.377,0.197
			c0.015,0.049,1.476,4.905-3.387,6.855C795.459,143.651,795.421,143.658,795.384,143.658z"/>
	</g>
	<g>
		<path style="fill:#5C69A5;" d="M712.103,346.893c0.645,0.243,16.348-0.032,29.932-0.645c0.927-0.042,1.569-0.879,1.449-1.799
			c-0.089-0.685-0.055-1.405,0.118-2.145c0.488-2.084,2.171-3.781,4.255-4.271c3.848-0.905,7.422,3.311,7.422,7.004
			c0,0.616,6.302-0.307,6.542-0.743c0.315-0.571,0.451-2.449,0.481-4.792c0.105-5.543-0.331-13.759-0.331-13.759
			s0.21-2.824,0.075-4.116l-22.952,0.406l-14.225,12.903c0,0-4.116-0.541-8.532,0.451c-2.328,0.511-3.695,3.575-4.311,6.444
			C711.487,344.369,711.562,346.698,712.103,346.893z"/>
	</g>
	<g>
		<path style="fill:#D2F2FA;" d="M728.282,332.141c-0.146,0-0.273-0.105-0.297-0.253c-0.026-0.164,0.086-0.318,0.249-0.345
			l7.869-1.257l-2.767-3.034c-0.112-0.122-0.104-0.313,0.02-0.424c0.122-0.112,0.313-0.104,0.424,0.02l3.142,3.445
			c0.074,0.081,0.099,0.197,0.062,0.302c-0.036,0.104-0.127,0.18-0.235,0.197l-8.418,1.345
			C728.313,332.139,728.298,332.141,728.282,332.141z"/>
	</g>
	<g>
		<path style="fill:#5C69A5;" d="M657.937,320.712c0.45,0.506,13.664,7.441,25.654,13.316c1.167,0.572,2.571,0.2,3.306-0.873
			c1.267-1.849,3.57-2.932,6.065-2.416c2.107,0.436,3.842,2.097,4.395,4.177c0.284,1.066,0.26,2.099,0.003,3.041
			c-0.352,1.289,0.298,2.644,1.536,3.146c2.198,0.892,3.637,1.337,3.938,1.148c0.541-0.36,1.562-1.938,2.719-3.981
			c2.734-4.822,6.294-12.242,6.294-12.242s1.532-2.373,2.028-3.59l-20.338-10.635l-18.656,4.521c0,0-3.365-2.448-7.706-3.695
			c-2.298-0.676-4.972,1.367-6.865,3.59C658.613,318.188,657.562,320.276,657.937,320.712z"/>
	</g>
	<g>
		<path style="fill:#D2F2FA;" d="M687.386,318.393c-0.034,0-0.067-0.006-0.101-0.018l-8.033-2.852
			c-0.156-0.056-0.238-0.228-0.183-0.384c0.056-0.156,0.227-0.237,0.384-0.183l7.509,2.665l-0.975-3.988
			c-0.039-0.161,0.06-0.324,0.221-0.363c0.167-0.039,0.324,0.06,0.363,0.221l1.106,4.529c0.026,0.107-0.009,0.221-0.091,0.294
			C687.531,318.365,687.459,318.393,687.386,318.393z"/>
	</g>
	<g>
		<path style="fill:#F48462;" d="M696.297,151.327c0,0-0.093-4.141-0.967-5.594c-0.874-1.453-4.24-3.963-5.462-3.065
			c-1.222,0.898,1.615,4.034,1.615,4.034s-2.562,3.134-2.643,6.611c-0.082,3.477,4.192,4.182,4.192,4.182L696.297,151.327z"/>
	</g>
	<g>
		<path style="fill:#FFFFFF;" d="M735.464,322.204l30.241-0.893c0.403-0.012,0.721-0.349,0.709-0.752l-0.173-5.871
			c-0.012-0.403-0.349-0.721-0.752-0.709l-30.24,0.893c-0.404,0.012-0.721,0.349-0.709,0.752l0.173,5.871
			C734.724,321.899,735.061,322.216,735.464,322.204z"/>
	</g>
	<g>
		<path style="fill:#FFFFFF;" d="M691.006,310.719l26.95,13.748c0.36,0.183,0.8,0.041,0.983-0.319l2.669-5.232
			c0.183-0.36,0.041-0.8-0.319-0.983l-26.95-13.748c-0.36-0.183-0.8-0.041-0.983,0.319l-2.669,5.232
			C690.504,310.095,690.647,310.535,691.006,310.719z"/>
	</g>
	<g>
		<path style="fill:#A37B90;" d="M803.424,151.263c0,0-8.423,20.199-17.936,25.54c-9.513,5.341-21.864,6.297-21.864,6.297
			l-10.135-25.53c0,0,18.146-0.542,23.153-4.256c5.007-3.715,13.018-11.824,13.018-11.824L803.424,151.263z"/>
	</g>
	<g>
		<path style="fill:#445584;" d="M777.31,161.794c-0.654,0-1.198-0.251-1.618-0.746c-1.588-1.875-0.793-6.763-0.758-6.97
			c0.021-0.125,0.117-0.224,0.242-0.246c0.122-0.023,0.25,0.035,0.313,0.144c0.576,0.989,3.409,5.993,2.602,7.398
			C777.982,161.565,777.756,161.794,777.31,161.794z M775.413,155.063c-0.153,1.471-0.299,4.373,0.737,5.597
			c0.304,0.359,0.684,0.533,1.159,0.533c0.192,0,0.238-0.08,0.261-0.119C777.986,160.35,776.668,157.357,775.413,155.063z"/>
	</g>
	<g>
		<path style="fill:#FFB655;" d="M747.993,160.186c0,0,1.535,2.195,1.409,3.071c-0.126,0.876-3.135,3.88-3.135,3.88
			s1.609,7.385,0.818,10.89c-0.791,3.505-4.994,16.523-5.73,16.022s-1.39-13.644-1.01-16.147c0.38-2.504,3.407-11.078,3.407-11.078
			s-1.663-3.319-1.61-4.028c0.069-0.916,2.481-2.658,2.481-2.658S746.749,159.744,747.993,160.186z"/>
	</g>
	<g>
		<path style="fill:#445584;" d="M753.49,157.569c0,0,0.941,4.672,0,5.172c-0.941,0.501-7.388-2.549-7.388-2.549
			s-5.664,2.151-6.415,1.847c-0.751-0.304,2.455-3.971,2.455-3.971S746.109,161.66,753.49,157.569z"/>
	</g>
	<g>
		<path style="fill:#A37B90;" d="M737.752,158.879c0,0-11.763,4.416-22.097,3.918c-10.333-0.498-19.08-9.484-19.08-9.484
			l-11.824,8.18c0,0,7.968,23.12,24.423,27.034c16.455,3.914,29.541-6.572,29.541-6.572L737.752,158.879z"/>
	</g>
	<g>
		<path style="fill:#445584;" d="M710.897,168.241c-0.177,0-0.36-0.026-0.552-0.078c-0.696-0.19-0.916-0.587-0.978-0.887
			c-0.326-1.579,3.146-4.398,3.542-4.715c0.091-0.072,0.213-0.086,0.316-0.037c0.104,0.049,0.17,0.153,0.172,0.267
			c0.002,0.16,0.037,3.924-1.472,5.092C711.621,168.122,711.276,168.241,710.897,168.241z M712.783,163.448
			c-1.344,1.156-2.995,2.894-2.827,3.708c0.016,0.073,0.062,0.295,0.548,0.428c0.412,0.114,0.758,0.056,1.055-0.173
			C712.436,166.731,712.72,164.695,712.783,163.448z"/>
	</g>
	<g>
		<path style="fill:#445584;" d="M726.13,188.361c-0.206-0.025-0.32-0.177-0.298-0.342l1.694-12.176
			c0.023-0.165,0.174-0.281,0.339-0.256c0.165,0.022,0.279,0.174,0.257,0.339l-1.694,12.176
			C726.406,188.252,726.277,188.361,726.13,188.361z"/>
	</g>
	<g>
		<path style="fill:#F48462;" d="M690.728,145.064c0,0-7.317-6.111-9.052-6.034c-1.736,0.077-0.694,1.862-0.694,1.862
			s-2.893-1.941-4.281-1.862c-1.389,0.078,0,2.658,0,2.658s-2.314-0.934-2.198,0.789c0.116,1.723,4.85,9.963,4.85,9.963l6.952-2.758
			L690.728,145.064z"/>
	</g>
	<g>
		<path d="M689.964,155.191c-0.142,0-0.268-0.101-0.295-0.245c-0.651-3.462,1.138-6.415,1.608-7.118l-1.698-3.346
			c-0.075-0.148-0.017-0.329,0.132-0.404c0.144-0.074,0.328-0.016,0.403,0.132l1.78,3.506c0.052,0.101,0.042,0.223-0.025,0.314
			c-0.023,0.031-2.292,3.178-1.61,6.805c0.031,0.163-0.076,0.32-0.239,0.351C690.001,155.19,689.982,155.191,689.964,155.191z"/>
	</g>
	<g>
		<path d="M680.75,148.153c-0.127,0-0.244-0.08-0.285-0.207c-0.052-0.158,0.034-0.327,0.191-0.379l8.089-2.645
			c0.157-0.053,0.328,0.034,0.379,0.192c0.052,0.158-0.034,0.327-0.191,0.379l-8.089,2.645
			C680.813,148.149,680.781,148.153,680.75,148.153z"/>
	</g>
</g>
<g>
	<path style="fill:#F7B369;" d="M691.969,92.284c0,20.296-16.446,36.742-36.742,36.742s-36.742-16.446-36.742-36.742
		s16.446-36.742,36.742-36.742c6.408,0,12.419,1.631,17.651,4.512c10.111,5.541,17.328,15.726,18.797,27.674
		C691.881,89.212,691.969,90.741,691.969,92.284z"/>
</g>
<g>
	<path style="fill:#5C69A5;" d="M691.675,87.728l-36.448,4.556l17.651-32.23C682.989,65.594,690.206,75.779,691.675,87.728z"/>
</g>
<g>
	<path style="fill:#5C69A5;" d="M572.389,233.276H437.592c-2.377,0-4.304-1.927-4.304-4.304v-75.683
		c0-2.377,1.927-4.304,4.304-4.304h134.798c2.377,0,4.304,1.927,4.304,4.304v75.683
		C576.693,231.349,574.766,233.276,572.389,233.276z"/>
</g>
<g>
	<path style="fill:#FFFFFF;" d="M564.413,228.288H445.568c-2.096,0-3.794-1.699-3.794-3.794v-66.726
		c0-2.095,1.699-3.794,3.794-3.794h118.845c2.095,0,3.794,1.699,3.794,3.794v66.726C568.207,226.59,566.508,228.288,564.413,228.288
		z"/>
</g>
<g>
	<rect x="461.213" y="205.099" style="fill:#92B4EA;" width="8.629" height="17.98"/>
</g>
<g>
	<rect x="540.139" y="191.969" style="fill:#92B4EA;" width="8.629" height="31.109"/>
</g>
<g>
	<rect x="480.945" y="193.147" style="fill:#92B4EA;" width="8.629" height="29.846"/>
</g>
<g>
	<rect x="500.676" y="185.065" style="fill:#92B4EA;" width="8.629" height="37.929"/>
</g>
<g>
	<rect x="520.408" y="173.027" style="fill:#92B4EA;" width="8.629" height="50.156"/>
</g>
<g>
	<g>
		<path style="fill:#F48462;" d="M547.005,203.471c0,0-1.951-8.712-4.346-8.888c-2.395-0.177-0.517,7.01-0.517,7.01l-6.486-2.48
			c0,0-7.381-2.058-8.848-1.415c-1.468,0.642,0.949,3.036,0.949,3.036s-5.255-1.577-4.518,0.985s4.333,4.036,4.333,4.036
			s-5.137-1.821-3.977,1.181c0.627,1.623,11.924,8.463,19.537,8.219c7.613-0.244,4.574-6.115,4.574-6.115L547.005,203.471z"/>
	</g>
	<g>
		<path d="M530.403,207.405c-0.087,0-0.173-0.036-0.234-0.107c-0.11-0.13-0.095-0.324,0.034-0.435l6.535-5.584
			c0.13-0.11,0.322-0.097,0.435,0.034c0.11,0.13,0.095,0.324-0.034,0.434l-6.535,5.584
			C530.545,207.382,530.475,207.405,530.403,207.405z"/>
	</g>
	<g>
		<path d="M544.142,210.589c-0.118-0.008-2.326-0.204-3.353-2.015c-0.853-1.504-0.613-3.624,0.712-6.302
			c0.075-0.152,0.261-0.214,0.413-0.14c0.152,0.076,0.215,0.261,0.14,0.413c-1.228,2.48-1.474,4.405-0.731,5.72
			c0.862,1.526,2.825,1.707,2.846,1.709c0.169,0.014,0.295,0.162,0.281,0.332C544.436,210.467,544.301,210.589,544.142,210.589z"/>
	</g>
	<g>
		<path d="M597.033,167.569c0,0,8.708-6.751,16.141-2.154c7.433,4.597,4.567,14.223,4.567,14.223s9.23,2.523,10.561,14.248
			s-9.817,13.946-9.817,13.946l-16.022-9.491L597.033,167.569z"/>
	</g>
	<g>
		<path style="fill:#F27A5F;" d="M622.726,350.071c0,0-35.767-8.39-39.936-35.427c-5.129-33.259,3.959-49.555,3.959-49.555
			l23.367,27.887l7.013,33.701l9.241,6.685l5.142,10.897L622.726,350.071z"/>
	</g>
	<g>
		<g>
			<path style="fill:#A37B90;" d="M641.924,330.51c-0.083-1.318-1.252-2.339-2.662-2.322c-5.573,0.067-18.072-0.465-18.06,0.552
				c0.016,1.297,3.729,14.273,3.729,14.273s-7.717,0.466-6.264,5.822c1.114,4.11,6.084,8.826,8.336,10.799
				c0.715,0.626,1.217,1.426,1.451,2.316c1.007,3.829,4.288,14.355,9.959,14.437c6.932,0.1,6.105-2.67,6.089-3.966
				C644.488,371.307,642.49,339.497,641.924,330.51z"/>
		</g>
	</g>
	<g>
		<path style="fill:#F48462;" d="M598.103,292.977c0,0,2.049,64.787,4.795,71.639c2.747,6.852,17.757,0,17.757,0l3.546-70.201
			L598.103,292.977z"/>
	</g>
	<g>
		<path style="fill:#5C69A5;" d="M582.79,245.868c0,0-2.54,14.352-2.54,25.053c0,10.701-1.253,22.446,0,23.49
			c1.254,1.044,13.696,4.549,28.738,3.766c15.042-0.783,19.554-4.296,19.304-5.541c-0.251-1.245-2.006-2.295-2.006-2.295
			s1.003-30.935-3.008-39.216c-4.011-8.28-21.111-10.088-21.111-10.088h-18.39L582.79,245.868z"/>
	</g>
	<g>
		<path style="fill:#F7B369;" d="M608.597,244.5c0,0-17.867,1.095-25.037-2.398l0.424-21.472c0,0,3.894-27.499,9.481-28.085
			c5.587-0.586,10.518,0.154,10.518,0.154l19.7,25.682L608.597,244.5z"/>
	</g>
	<g>
		<g>
			<path style="fill:#A37B90;" d="M619.157,382.831c1.32-0.013,2.402-1.126,2.46-2.535c0.23-5.568,1.427-18.022,0.411-18.064
				c-1.296-0.053-14.452,2.964-14.452,2.964s-0.055-7.73-5.48-6.565c-4.163,0.894-9.138,5.605-11.227,7.749
				c-0.663,0.681-1.489,1.139-2.39,1.326c-3.877,0.801-14.563,3.518-14.946,9.176c-0.469,6.917,2.341,6.239,3.637,6.292
				C578.282,383.219,610.153,382.917,619.157,382.831z"/>
		</g>
	</g>
	<g>
		<g>
			<path style="fill:#F48462;" d="M605.79,241.087c0,0-13.547,2.24-16.223,4.704c-2.677,2.465,3.816,11.923,5.484,13.456
				c1.668,1.534,13.557-6.25,13.557-6.25l1.72-6.795L605.79,241.087z"/>
		</g>
	</g>
	<g>
		<g>
			<path style="fill:#F48462;" d="M589.567,245.791c0,0-5.661,8.092-4.726,11.432c0.935,3.34,7.756-6.984,7.756-6.984
				L589.567,245.791z"/>
		</g>
	</g>
	<g>
		<g>
			<path style="fill:#F48462;" d="M599.54,257.002c0,0,7.014-0.99,5.63,1.552c-1.384,2.543-8.879,2.101-10.119,0.693
				c-1.24-1.408,2.673-5.249,2.673-5.249L599.54,257.002z"/>
		</g>
	</g>
	<g>
		<path d="M600.447,257.795c-0.124,0-0.241-0.075-0.288-0.198c-0.06-0.159,0.02-0.337,0.179-0.398l1.489-0.566l-1.154-0.854
			c-0.137-0.102-0.165-0.295-0.064-0.432c0.101-0.137,0.293-0.164,0.432-0.064l1.606,1.189c0.09,0.067,0.137,0.179,0.121,0.29
			c-0.015,0.111-0.09,0.206-0.195,0.246l-2.016,0.768C600.521,257.789,600.483,257.795,600.447,257.795z"/>
	</g>
	<g>
		<path d="M590.382,252.866c-0.037,0-0.074-0.006-0.111-0.02c-0.158-0.062-0.237-0.239-0.176-0.398
			c0.129-0.334,1.28-3.281,1.976-3.872c0.128-0.112,0.323-0.097,0.434,0.035c0.11,0.129,0.095,0.323-0.035,0.434
			c-0.434,0.369-1.334,2.42-1.8,3.626C590.622,252.792,590.505,252.866,590.382,252.866z"/>
	</g>
	<g>
		<path d="M592.524,256.285c-0.047,0-0.095-0.01-0.139-0.033c-0.152-0.076-0.213-0.262-0.136-0.413l2.434-4.807
			c0.076-0.152,0.264-0.216,0.413-0.136c0.152,0.076,0.213,0.262,0.136,0.413l-2.434,4.807
			C592.745,256.224,592.637,256.285,592.524,256.285z"/>
	</g>
	<g>
		<path d="M589.987,181.199c0,0-2.57-2.921-1.755-7.38c0.552-3.023,1.914-3.985,1.914-3.985s-1.996-4.165,4.114-3.829
			c6.111,0.336,9.666,3.388,9.666,3.388s2.814-1.333,4.022,1.943c1.208,3.276-0.113,8.066-0.113,8.066L589.987,181.199z"/>
	</g>
	<g>
		<g>
			<g>
				<g>
					<path style="fill:#F48462;" d="M603.339,186.425l-0.292,7.461c0,0-1.429,2.092-5.808,2.276
						c-3.262,0.137-4.226-1.573-4.226-1.573l1.043-6.498l7.949-1.426L603.339,186.425z"/>
				</g>
			</g>
		</g>
	</g>
	<g>
		<g>
			<g>
				<g>
					<path d="M603.345,185.969c-0.027,0.203-0.114,0.441-0.245,0.712c-1.815,3.662-7.751,4.983-9.635,5.078l0.591-3.667
						L603.345,185.969z"/>
				</g>
			</g>
		</g>
	</g>
	<g>
		<g>
			<g>
				<g>
					<path style="fill:#F48462;" d="M593.057,171.02c0,0-4.281,9.201-2.941,14.459c1.341,5.258,6.119,4.548,8.99,3.605
						c2.871-0.943,4.234-2.658,4.234-2.658s2.638,0.964,4.476-1.467c1.837-2.431,0.809-5.297-0.694-5.984
						c-1.503-0.687-3.335,0.367-3.335,0.367l1.479-2.669C605.265,176.674,599.633,162.803,593.057,171.02z"/>
				</g>
			</g>
		</g>
	</g>
	<g>
		<g>
			<g>
				<g>
					<path d="M603.786,179.343c0,0-4.01,0.751-6.726-3.738c-2.716-4.489-2.435-6.312-2.435-6.312l-2.832,4.555
						c0,0-0.574-3.194,0.728-5.207c1.302-2.013,2.619-1.573,2.619-1.573l8.786,2.326l2.223,7.099L603.786,179.343z"/>
				</g>
			</g>
		</g>
	</g>
	<g>
		<path d="M593.213,182.855c-0.134,0-0.257-0.087-0.296-0.222c-0.583-2.004,0.854-4.007,0.916-4.092
			c0.101-0.136,0.292-0.167,0.43-0.067c0.138,0.1,0.168,0.292,0.068,0.43c-0.014,0.019-1.32,1.847-0.822,3.557
			c0.048,0.163-0.047,0.334-0.21,0.382C593.271,182.851,593.241,182.855,593.213,182.855z"/>
	</g>
	<g>
		<path d="M604.112,183.722c-0.077,0-0.155-0.029-0.215-0.088c-0.122-0.119-0.124-0.313-0.006-0.436l2.571-2.634
			c0.118-0.121,0.313-0.124,0.435-0.005c0.122,0.119,0.124,0.313,0.006,0.436l-2.571,2.634
			C604.272,183.691,604.192,183.722,604.112,183.722z"/>
	</g>
	<g>
		<path d="M606.798,183.05c-0.017,0-0.034-0.001-0.051-0.004l-1.742-0.294c-0.168-0.028-0.281-0.187-0.253-0.355
			c0.028-0.167,0.192-0.278,0.354-0.253l1.742,0.294c0.168,0.028,0.281,0.187,0.253,0.355
			C607.076,182.944,606.946,183.05,606.798,183.05z"/>
	</g>
	<g>
		<path d="M591.528,175.214c-0.149,0-0.28-0.108-0.304-0.26c-0.027-0.168,0.087-0.326,0.255-0.353l1.656-0.264
			c0.177-0.026,0.327,0.088,0.352,0.256c0.027,0.168-0.087,0.326-0.255,0.353l-1.656,0.264
			C591.561,175.213,591.544,175.214,591.528,175.214z"/>
	</g>
	<g>
		<path d="M598.377,176.395c-0.049,0-0.098-0.011-0.143-0.035l-2.688-1.41c-0.151-0.079-0.209-0.265-0.13-0.416
			c0.079-0.152,0.268-0.208,0.415-0.13l2.689,1.41c0.151,0.079,0.209,0.265,0.13,0.416
			C598.595,176.335,598.487,176.395,598.377,176.395z"/>
	</g>
	<g>
		<path d="M591.476,179.032c-0.031,0-0.064-0.005-0.095-0.015c-0.162-0.052-0.251-0.226-0.198-0.388l0.488-1.514l-0.404-0.509
			c-0.105-0.133-0.084-0.327,0.05-0.433c0.134-0.106,0.327-0.084,0.433,0.05l0.507,0.638c0.065,0.081,0.084,0.188,0.052,0.286
			l-0.539,1.671C591.727,178.949,591.605,179.032,591.476,179.032z"/>
	</g>
	<g>
		<path d="M596.166,179.548c-0.031,0-0.063-0.005-0.095-0.015c-0.162-0.052-0.251-0.226-0.198-0.388l0.487-1.51l-0.592-0.711
			c-0.109-0.131-0.092-0.325,0.039-0.434c0.13-0.109,0.325-0.09,0.434,0.04l0.7,0.841c0.068,0.081,0.089,0.191,0.057,0.292
			l-0.539,1.671C596.417,179.465,596.296,179.548,596.166,179.548z"/>
	</g>
	<g>
		<path style="fill:#F7B369;" d="M603.983,192.699c0,0,35.101,4.121,34.631,38.829c-0.288,21.278-28.969,27.646-28.969,27.646
			l-8.856-21.919l14.797-8.46L603.983,192.699z"/>
	</g>
	<g>
		<path style="fill:#F7B369;" d="M601.271,367.485c-0.128,0-0.246-0.082-0.286-0.21c-0.05-0.159,0.037-0.327,0.195-0.377
			l6.305-1.988c0.157-0.05,0.327,0.037,0.377,0.195c0.05,0.159-0.037,0.327-0.195,0.377l-6.305,1.988
			C601.332,367.48,601.302,367.485,601.271,367.485z"/>
	</g>
	<g>
		<path style="fill:#F7B369;" d="M628.302,349.002c-0.102,0-0.202-0.053-0.259-0.148l-3.371-5.688
			c-0.084-0.143-0.037-0.327,0.106-0.412c0.141-0.084,0.326-0.038,0.412,0.105l3.371,5.688c0.084,0.142,0.037,0.327-0.106,0.412
			C628.407,348.988,628.355,349.002,628.302,349.002z"/>
	</g>
	<g>
		<path style="fill:#FFFFFF;" d="M604.918,235.194c-0.091,0-0.18-0.041-0.239-0.119c-0.101-0.132-0.075-0.32,0.058-0.421
			c0.379-0.288,9.325-7.084,12.904-8.35c0.158-0.055,0.328,0.026,0.384,0.183c0.056,0.157-0.026,0.328-0.183,0.384
			c-3.491,1.234-12.649,8.191-12.742,8.262C605.046,235.174,604.982,235.194,604.918,235.194z"/>
	</g>
	<g>
		<path style="fill:#FFFFFF;" d="M613.177,229.227c-0.037,0-0.074-0.007-0.11-0.021c-0.112-0.044-0.187-0.151-0.19-0.273
			c-0.012-0.554-0.074-5.434,1.483-6.439c0.266-0.17,0.706-0.315,1.3-0.03c0.479,0.23,0.779,0.608,0.865,1.096
			c0.345,1.947-2.775,5.211-3.133,5.577C613.334,229.195,613.256,229.227,613.177,229.227z M615.004,222.901
			c-0.144,0-0.245,0.05-0.318,0.098c-0.924,0.596-1.174,3.455-1.208,5.159c1.056-1.196,2.663-3.319,2.455-4.494
			c-0.053-0.301-0.223-0.51-0.533-0.659C615.24,222.93,615.11,222.901,615.004,222.901z"/>
	</g>
	<g>
		<path style="fill:#FFFFFF;" d="M596.579,196.493c-2.786,0-3.782-1.678-3.826-1.755c-0.082-0.144-0.032-0.328,0.111-0.41
			c0.143-0.082,0.327-0.034,0.41,0.111c0.04,0.067,1.035,1.686,3.938,1.423c2.765-0.254,5.637-2.205,5.665-2.225
			c0.137-0.093,0.324-0.059,0.418,0.078c0.094,0.137,0.059,0.324-0.078,0.417c-0.122,0.084-3.026,2.059-5.95,2.328
			C597.026,196.483,596.797,196.493,596.579,196.493z"/>
	</g>
	<g>
		<path style="fill:#F7B369;" d="M541.014,216.91c0,0,7.729,10.637,22.103,12.249c14.374,1.612,23.263-6.257,23.263-6.257
			l6.218-30.203c0,0-14.22,7.124-26.181,11.687c-7.045,2.687-18.604-2.998-18.604-2.998L541.014,216.91z"/>
	</g>
	<g>
		<path style="fill:#FFFFFF;" d="M567.214,212.673c-0.382,0-0.715-0.14-0.976-0.411c-1.496-1.56-0.261-7.293-0.115-7.941
			c0.027-0.123,0.128-0.215,0.252-0.232c0.124-0.017,0.245,0.044,0.306,0.155c0.121,0.224,2.953,5.505,1.963,7.567
			c-0.217,0.451-0.605,0.74-1.121,0.834C567.416,212.663,567.313,212.673,567.214,212.673z M566.54,205.287
			c-0.376,2.032-0.8,5.588,0.132,6.559c0.19,0.199,0.426,0.267,0.743,0.207c0.333-0.061,0.552-0.22,0.688-0.503
			C568.714,210.275,567.416,207.082,566.54,205.287z"/>
	</g>
	<g>
		<path d="M594.943,185.122c-0.096,0-0.155-0.01-0.165-0.012c-0.168-0.03-0.279-0.19-0.249-0.357c0.03-0.165,0.19-0.274,0.353-0.249
			c0.048,0.009,0.909,0.102,1.715-1.247c0.087-0.146,0.276-0.192,0.423-0.106c0.146,0.087,0.193,0.276,0.106,0.422
			C596.29,184.969,595.324,185.122,594.943,185.122z"/>
	</g>
</g>
<g>
	<g>
		<polygon style="fill:#F48462;" points="438.194,353.29 438.194,363.25 456.294,362.547 456.294,353.29 		"/>
	</g>
	<g>
		<polygon style="fill:#F48462;" points="396.401,352.168 396.401,362.129 413.156,361.425 413.156,352.168 		"/>
	</g>
	<g>
		<path style="fill:#A37B90;" d="M432.793,242.381c0,0,13.061,21.426,20.802,55.733c7.061,31.292,8.582,57.173,8.582,57.173h-30.54
			c0,0-3.398-25.514-4.303-35.609c-0.905-10.095-3.916-23.608-3.916-23.608s-4.191,58.232-5.191,59.217
			c-0.999,0.986-30.235,0.218-29.922-1.12c0.313-1.337,9.24-97.911,10.031-104.278C400.771,230.317,432.793,242.381,432.793,242.381
			z"/>
	</g>
	<g>
		<g>
			<g>
				<g>
					<path style="fill:#40507F;" d="M417.315,378.592c0,1.758-0.57,3.769-1.738,4.275c-1.168,0.506-10.616,1.561-18.883,0.815
						c-7.914-0.717-9.557-1.322-10.141-2.067c-0.285-0.38,0.272-2.137,0.91-3.839c0.041-0.084,0.068-0.183,0.109-0.267
						c0.326-0.858,0.665-1.687,0.91-2.278c0.244-0.563,0.543-1.097,0.896-1.617c0.855-1.223,2.552-3.754,2.987-5.062
						c0.57-1.744,1.439-5.512,2.023-7.284c0.584-1.744,2.009-2.109,2.009-2.109s16.276-1.153,17.444-0.141
						c1.154,0.998,1.738,9.295,1.738,10.546v1.251c0,1.167,0.774,3.473,1.276,5.385c0.136,0.478,0.244,0.928,0.326,1.336
						C417.261,377.945,417.315,378.297,417.315,378.592z"/>
				</g>
			</g>
		</g>
	</g>
	<g>
		<path style="fill:#40507F;" d="M485.421,382.178c-1.086,0.464-47.282,1.772-48.354,0c-0.326-0.534-0.557-2.348-0.706-4.626
			c-0.38-5.371-0.38-13.358-0.38-13.358s-0.339-2.728-0.271-3.993c0.054-1.251,22.277-0.773,22.277-0.773l14.444,11.797
			c0,0,3.964-0.731,8.294,0c2.294,0.38,3.774,3.29,4.507,6.032C485.883,379.689,485.937,381.953,485.421,382.178z"/>
	</g>
	<g>
		<path style="fill:#F7B369;" d="M485.421,382.178c-1.086,0.464-47.282,1.772-48.354,0c-0.326-0.534-0.557-2.348-0.706-4.626
			c8.783,0.647,30.395,1.87,48.87-0.295C485.883,379.689,485.937,381.953,485.421,382.178z"/>
	</g>
	<g>
		<path style="fill:#F7B369;" d="M417.315,378.592c0,1.758-0.57,3.769-1.738,4.275c-1.168,0.506-10.616,1.561-18.883,0.815
			c-7.914-0.717-9.557-1.322-10.141-2.067c-0.285-0.38,0.272-2.137,0.91-3.839c7.344,0.577,20.607,1.097,29.39-1.575
			c0.136,0.478,0.244,0.928,0.326,1.336C417.261,377.945,417.315,378.297,417.315,378.592z"/>
	</g>
	<g>
		<path style="fill:#F7B369;" d="M423.418,296.37c-0.188-0.014-0.313-0.158-0.3-0.323c0.01-0.126,0.962-12.663,1.239-18.219
			c0.275-5.552,0.286-8.21,0.286-8.236c0.001-0.117,0.068-0.223,0.175-0.271l9.895-4.562c0.153-0.07,0.33-0.003,0.398,0.147
			c0.069,0.15,0.004,0.329-0.147,0.398l-9.722,4.482c-0.008,0.702-0.051,3.341-0.286,8.071c-0.277,5.564-1.229,18.108-1.239,18.234
			C423.705,296.25,423.574,296.37,423.418,296.37z"/>
	</g>
	<g>
		<path style="fill:#FFFFFF;" d="M396.815,367.818c-0.132,0-0.253-0.087-0.289-0.221c-0.045-0.159,0.049-0.325,0.209-0.369
			c0.265-0.074,6.541-1.806,9.874-1.213l2.152,0.383c-1.718-1.324-5.524-3.905-7.861-2.874c-0.153,0.066-0.329-0.001-0.396-0.152
			c-0.067-0.152,0.001-0.329,0.152-0.397c3.428-1.525,9.153,3.482,9.397,3.696c0.101,0.09,0.13,0.235,0.071,0.356
			c-0.059,0.12-0.193,0.187-0.323,0.165l-3.297-0.586c-3.189-0.567-9.544,1.183-9.608,1.199
			C396.869,367.815,396.842,367.818,396.815,367.818z"/>
	</g>
	<g>
		<path style="fill:#FFFFFF;" d="M468.966,368.695c-0.032-0.002-8.264-0.879-8.264-0.879c-0.109-0.012-0.204-0.083-0.246-0.185
			c-0.042-0.103-0.024-0.22,0.046-0.305l2.871-3.501c0.107-0.128,0.297-0.147,0.423-0.042c0.128,0.105,0.147,0.295,0.042,0.423
			l-2.519,3.07l7.679,0.818c0.165,0.018,0.284,0.166,0.267,0.331C469.248,368.58,469.118,368.695,468.966,368.695z"/>
	</g>
	<g>
		<path style="fill:#F7B369;" d="M398.768,264.01c-0.093,0-0.184-0.044-0.243-0.125c-0.098-0.135-0.067-0.322,0.067-0.419
			c5.096-3.681,6.429-9.041,6.441-9.095c0.039-0.161,0.198-0.262,0.361-0.223c0.162,0.038,0.262,0.2,0.223,0.361
			c-0.054,0.229-1.39,5.626-6.674,9.442C398.891,263.991,398.829,264.01,398.768,264.01z"/>
	</g>
	<g>
		<path style="fill:#68B6D8;" d="M411.365,193.692c0,0-9.011-0.032-13.873,4.875c-4.862,4.907-0.776,52.931-0.776,52.931
			s16.586,0.299,26.002,0c6.851-0.217,13.642-3.283,13.642-3.283s-7.35-47.87-9.879-52.595
			C423.953,190.894,411.365,193.692,411.365,193.692z"/>
	</g>
	<g>
		<path style="fill:#68B6D8;" d="M425.759,194.688c0,0,5.149,2.253,12.436,14.094c6.665,10.831,7.62,20.843,4.543,26.996
			c-3.077,6.153-13.4,5.983-13.4,5.983L425.759,194.688z"/>
	</g>
	<g>
		<path d="M412.579,174.211c0,0,7.337,0.651,8.041-6.383c0.749-7.488-6.167-8.491-9.239-5.576c-3.073,2.915-2.652,6.023-2.652,6.023
			s-1.98-1.937-4.315,0.248c-1.714,1.603-0.976,4.368-0.976,4.368s-3.786-0.301-3.567,3.025c0.219,3.325,2.518,5.103,2.518,5.103
			L412.579,174.211z"/>
	</g>
	<g>
		<g>
			<path style="fill:#F48462;" d="M405.329,186.919l0.446,7.843c0,0,1.543,2.174,6.152,2.286c3.434,0.083,4.59-0.757,4.59-0.757
				l-0.702-3.945l-0.69-3.847l-8.388-1.351L405.329,186.919z"/>
		</g>
	</g>
	<g>
		<g>
			<path d="M406.736,187.147c0.032,0.213,0.128,0.461,0.271,0.744c1.978,3.818,6.823,4.39,8.807,4.454l-0.69-3.847L406.736,187.147z
				"/>
		</g>
	</g>
	<g>
		<g>
			<path style="fill:#F48462;" d="M415.857,170.522c0,0,4.675,9.599,3.363,15.154c-1.312,5.556-6.351,4.898-9.389,3.96
				c-3.038-0.938-4.503-2.717-4.503-2.717s-2.757,1.064-4.735-1.459c-1.978-2.523-0.95-5.557,0.619-6.308
				c1.569-0.75,3.515,0.324,3.515,0.324l-1.606-2.779C403.121,176.698,408.785,162.002,415.857,170.522z"/>
		</g>
	</g>
	<g>
		<path d="M404.659,183.724c-0.057,0-0.114-0.016-0.165-0.048l-3.678-2.34c-0.144-0.091-0.187-0.282-0.095-0.425
			c0.091-0.144,0.283-0.186,0.425-0.094l3.678,2.34c0.144,0.091,0.187,0.282,0.095,0.425
			C404.86,183.674,404.761,183.724,404.659,183.724z"/>
	</g>
	<g>
		<path d="M401.437,183.863c-0.131,0-0.252-0.083-0.293-0.214c-0.052-0.162,0.037-0.335,0.199-0.387l2.293-0.731
			c0.161-0.051,0.336,0.038,0.387,0.2c0.052,0.162-0.037,0.335-0.199,0.387l-2.293,0.731
			C401.499,183.858,401.468,183.863,401.437,183.863z"/>
	</g>
	<g>
		<path d="M409.505,175.028c-0.06,0-0.121-0.018-0.174-0.054c-0.141-0.096-0.177-0.288-0.08-0.428
			c0.983-1.436,2.414-1.264,3.031-0.974c0.154,0.072,0.221,0.256,0.148,0.41c-0.073,0.154-0.259,0.218-0.409,0.148
			c-0.052-0.024-1.337-0.589-2.263,0.764C409.699,174.981,409.603,175.028,409.505,175.028z"/>
	</g>
	<g>
		<path d="M417.091,174.227c-0.064,0-0.128-0.02-0.183-0.06c-0.865-0.636-1.709-0.1-1.745-0.077
			c-0.14,0.094-0.332,0.056-0.426-0.087c-0.094-0.142-0.057-0.331,0.085-0.425c0.05-0.034,1.23-0.803,2.451,0.093
			c0.137,0.101,0.166,0.294,0.065,0.431C417.278,174.184,417.186,174.227,417.091,174.227z"/>
	</g>
	<g>
		<path d="M415.68,183.078c-0.023,0-0.047-0.003-0.071-0.008c-0.165-0.039-0.268-0.205-0.229-0.371
			c0.686-2.895-0.938-4.888-0.954-4.907c-0.108-0.131-0.092-0.325,0.039-0.434s0.323-0.092,0.434,0.038
			c0.075,0.09,1.84,2.24,1.081,5.445C415.946,182.982,415.819,183.078,415.68,183.078z"/>
	</g>
	<g>
		<path d="M417.27,177.997c-0.129,0-0.249-0.082-0.292-0.21l-0.593-1.771c-0.054-0.161,0.033-0.336,0.194-0.39
			c0.161-0.054,0.336,0.033,0.39,0.194l0.593,1.77c0.054,0.161-0.033,0.336-0.194,0.39
			C417.335,177.992,417.302,177.997,417.27,177.997z"/>
	</g>
	<g>
		<path d="M412.313,178.376c-0.129,0-0.249-0.082-0.292-0.21l-0.594-1.771c-0.054-0.162,0.033-0.336,0.194-0.39
			c0.16-0.055,0.336,0.033,0.39,0.194l0.594,1.771c0.054,0.162-0.033,0.336-0.194,0.39
			C412.378,178.371,412.345,178.376,412.313,178.376z"/>
	</g>
	<g>
		<path d="M416.808,172.691c0,0-0.941-1.528-2.898-1.43c-1.957,0.098-3.021,1.541-3.021,1.541s1.046,3.246-1.515,5.147
			c-2.561,1.901-4.647,1.529-4.647,1.529l-1.969-0.578l-1.576-2.739l5.24-6.333l7.008-4.225l3.872,3.133L416.808,172.691z"/>
	</g>
	<g>
		<path style="fill:#68B6D8;" d="M405.85,194.38c0,0-13.39-1.51-20.801,11.655c-6.292,11.177-5.98,21.328-5.98,21.328l20.854-3.02
			L405.85,194.38z"/>
	</g>
	<g>
		<path style="fill:#F48462;" d="M379.07,227.363c0,0,0.404,16.132,13.388,14.244c14.743-2.144,20.605-31.594,20.605-31.594
			l4.398-2.802c0,0-0.844,3.595,2.681,1.661c3.525-1.934,2.82-5.562,2.82-5.562L418.839,196c0,0,6.085-5.853,4.286-6.149
			c-2.778-0.456-11.431,5.529-11.431,5.529s0.475-3.607-1.537-3.01c-2.172,0.644-2.94,7.295-2.94,7.295l-23.119,26.458
			L379.07,227.363z"/>
	</g>
	<g>
		<path d="M417.461,207.519c-0.088,0-0.174-0.037-0.233-0.107c-0.091-0.106-0.1-0.26-0.021-0.375l1.612-2.352
			c0.097-0.141,0.29-0.178,0.428-0.08c0.141,0.096,0.177,0.288,0.08,0.428l-0.954,1.394l1.373-0.668
			c0.154-0.073,0.337-0.01,0.412,0.143c0.074,0.153,0.011,0.338-0.143,0.412l-2.42,1.176
			C417.553,207.509,417.507,207.519,417.461,207.519z"/>
	</g>
	<g>
		<path d="M417.27,197.405c-0.097,0-0.192-0.046-0.252-0.132c-0.098-0.139-0.063-0.331,0.075-0.429l1.569-1.097
			c0.138-0.097,0.331-0.064,0.429,0.076c0.098,0.139,0.064,0.331-0.075,0.429l-1.569,1.097
			C417.393,197.387,417.331,197.405,417.27,197.405z"/>
	</g>
	<g>
		<path style="fill:#68B6D8;" d="M405.915,199.829l9.496,11.902c0,0-3.658,22.909-15.06,30.03
			c-11.402,7.121-22.039-3.016-21.282-14.398C379.827,215.982,405.915,199.829,405.915,199.829z"/>
	</g>
	<g>
		<path d="M414.173,185.604c-0.048,0-0.097-0.011-0.143-0.035l-1.86-0.972c-0.15-0.079-0.209-0.265-0.131-0.416
			c0.079-0.151,0.265-0.209,0.416-0.13l1.86,0.972c0.15,0.079,0.209,0.265,0.131,0.416
			C414.391,185.544,414.283,185.604,414.173,185.604z"/>
	</g>
	<g>
		<path d="M411.694,195.688c-0.071,0-0.143-0.025-0.2-0.075c-0.104-0.088-0.137-0.234-0.081-0.359
			c0.009-0.02,0.859-1.983-0.404-3.321c-0.192-0.204-0.336-0.198-0.424-0.179c-0.749,0.169-1.684,2.259-2.098,3.537
			c-0.052,0.162-0.228,0.25-0.388,0.198c-0.162-0.052-0.251-0.226-0.198-0.388c0.12-0.373,1.215-3.647,2.548-3.949
			c0.252-0.058,0.631-0.042,1.007,0.357c0.982,1.04,0.945,2.329,0.775,3.157l2.613-1.682c0.143-0.09,0.335-0.051,0.426,0.093
			c0.093,0.143,0.051,0.333-0.092,0.425l-3.317,2.135C411.811,195.671,411.752,195.688,411.694,195.688z"/>
	</g>
	<g>
		<path style="fill:#F48462;" d="M397.629,210.64c0,0-5.21-0.083-7.623,0.927c-2.413,1.01-6.89,7.263-6.157,8.19
			c0.733,0.927,2.346,0,2.346,0s-0.88,2.283,1.173,2.223C389.419,221.92,397.629,210.64,397.629,210.64z"/>
	</g>
	<g>
		<path style="fill:#5C69A5;" d="M438.122,219.807c-0.051,0-0.102-0.013-0.149-0.04c-6.657-3.803-22.395-4.33-22.553-4.335
			c-0.166-0.005-0.297-0.143-0.291-0.309c0.005-0.163,0.138-0.292,0.3-0.292c0.661,0.02,16.055,0.537,22.843,4.414
			c0.144,0.082,0.193,0.266,0.111,0.41C438.327,219.752,438.227,219.807,438.122,219.807z"/>
	</g>
	<g>
		<path style="fill:#5C69A5;" d="M436.687,240.844c-0.179-0.016-15.289-1.438-27.89-7.222c-0.151-0.069-0.217-0.248-0.148-0.398
			c0.069-0.151,0.249-0.219,0.398-0.148c12.506,5.741,27.517,7.155,27.667,7.169c0.165,0.015,0.287,0.161,0.271,0.326
			C436.972,240.727,436.841,240.844,436.687,240.844z"/>
	</g>
	<g>
		<path style="fill:#5C69A5;" d="M415.411,212.032c-0.091,0-0.18-0.041-0.239-0.119l-9.262-12.185l-6.052,7.67
			c-0.102,0.129-0.291,0.152-0.422,0.049c-0.13-0.103-0.152-0.291-0.049-0.422l6.292-7.973c0.057-0.073,0.145-0.115,0.238-0.114
			c0.093,0.001,0.18,0.044,0.236,0.119l9.496,12.494c0.101,0.132,0.074,0.32-0.058,0.421
			C415.539,212.012,415.475,212.032,415.411,212.032z"/>
	</g>
	<g>
		<path style="fill:#5C69A5;" d="M429.94,216.598c-1.537,0-3.192-0.132-4.21-0.23c-0.134-0.013-0.243-0.112-0.267-0.244
			c-0.024-0.132,0.042-0.265,0.162-0.324c0.236-0.116,5.777-2.833,7.73-0.88c0.388,0.388,0.361,0.7,0.27,0.894
			C433.339,216.422,431.719,216.598,429.94,216.598z M426.946,215.867c3.215,0.232,5.962,0.108,6.136-0.311
			c-0.001,0-0.008-0.068-0.151-0.212C431.812,214.225,428.817,215.105,426.946,215.867z"/>
	</g>
	<g>
		<path style="fill:#5C69A5;" d="M407.877,196.54c-1.557-0.206-2.195-1.465-2.322-2.102c-0.032-0.163,0.073-0.32,0.235-0.353
			c0.165-0.034,0.32,0.072,0.354,0.234c0.012,0.058,0.31,1.426,1.772,1.623c0.164,0.022,0.279,0.173,0.258,0.338
			C408.154,196.431,408.025,196.54,407.877,196.54z"/>
	</g>
	<g>
		<path d="M386.051,220.202c-0.072,0-0.145-0.024-0.203-0.076c-0.128-0.111-0.141-0.307-0.028-0.435l4.505-5.151
			c0.112-0.128,0.307-0.142,0.435-0.028c0.128,0.111,0.141,0.306,0.028,0.435l-4.505,5.151
			C386.222,220.167,386.137,220.202,386.051,220.202z"/>
	</g>
</g>
<g>
	<path style="fill:#40507F;" d="M596.861,296.029c-0.137,0-0.26-0.094-0.293-0.232c-1.565-6.705-1.907-23.523-1.911-23.692
		c-0.003-0.166,0.129-0.303,0.295-0.307c0.176,0.007,0.303,0.129,0.307,0.295c0.003,0.169,0.343,16.924,1.895,23.567
		c0.037,0.161-0.063,0.323-0.225,0.361C596.906,296.026,596.884,296.029,596.861,296.029z"/>
</g>
<g>
	<circle style="fill:#A37B90;" cx="458.237" cy="184.068" r="2.976"/>
</g>
<g>
	<path style="fill:#A37B90;" d="M551.744,181.092c0,1.643-1.332,2.976-2.976,2.976c-1.643,0-2.976-1.332-2.976-2.976
		c0-1.644,1.332-2.976,2.976-2.976C550.411,178.117,551.744,179.449,551.744,181.092z"/>
</g>
<g>
	<path style="fill:#A37B90;" d="M490.593,166.739c0,1.644-1.332,2.976-2.976,2.976c-1.643,0-2.976-1.332-2.976-2.976
		c0-1.644,1.332-2.976,2.976-2.976C489.26,163.763,490.593,165.095,490.593,166.739z"/>
</g>
<g>
	<path style="fill:#A37B90;" d="M527.698,163.763c0,1.644-1.332,2.976-2.976,2.976s-2.976-1.332-2.976-2.976
		c0-1.643,1.332-2.976,2.976-2.976S527.698,162.12,527.698,163.763z"/>
</g>
<g>
	<path style="fill:#A37B90;" d="M510.786,174.418c0,1.644-1.332,2.976-2.976,2.976c-1.643,0-2.976-1.332-2.976-2.976
		s1.332-2.976,2.976-2.976C509.454,171.442,510.786,172.775,510.786,174.418z"/>
</g>
<g>
	<path style="fill:#A37B90;" d="M458.237,184.415c-0.118,0-0.234-0.061-0.299-0.171c-0.098-0.165-0.043-0.378,0.122-0.475
		l29.38-17.33c0.093-0.054,0.204-0.063,0.3-0.026l20.032,7.618l16.765-10.562c0.119-0.077,0.272-0.071,0.388,0.012l24.046,17.329
		c0.155,0.112,0.19,0.329,0.078,0.485c-0.112,0.155-0.329,0.189-0.484,0.079l-23.856-17.192l-16.714,10.53
		c-0.092,0.059-0.206,0.071-0.308,0.031l-20.038-7.62l-29.235,17.245C458.358,184.4,458.298,184.415,458.237,184.415z"/>
</g>
<g>
	<g>
		<path style="fill:#5C69A5;" d="M363.503,190.148H236.287c-2.618,0-4.741-2.123-4.741-4.741v-97.83
			c0-2.618,2.123-4.741,4.741-4.741h127.216c2.618,0,4.741,2.123,4.741,4.741v97.83
			C368.244,188.025,366.121,190.148,363.503,190.148z"/>
	</g>
	<g>
		<path style="fill:#FFFFFF;" d="M357.747,185.292H242.043c-2.381,0-4.312-1.931-4.312-4.312V92.002
			c0-2.382,1.931-4.312,4.312-4.312h115.705c2.381,0,4.312,1.93,4.312,4.312v88.978
			C362.059,183.362,360.128,185.292,357.747,185.292z"/>
	</g>
	<g>
		<path style="fill:#A37B90;" d="M300.336,136.484c0,9.817-5.596,18.315-13.774,22.494c-3.43,1.763-7.331,2.749-11.455,2.749
			c-12.622,0-23.091-9.262-24.952-21.369c-0.194-1.264-0.292-2.555-0.292-3.874c0-13.927,11.303-25.229,25.243-25.229
			C289.033,111.255,300.336,122.557,300.336,136.484z"/>
	</g>
	<g>
		<path style="fill:#92B4EA;" d="M286.562,158.978c-3.43,1.763-7.331,2.749-11.455,2.749c-5.998,0-11.525-2.097-15.857-5.624
			c-4.777-3.832-8.123-9.4-9.095-15.746l24.952-3.874L286.562,158.978z"/>
	</g>
	<g>
		<path style="fill:#F7B369;" d="M275.107,136.484l-15.857,19.62c-4.777-3.832-8.123-9.4-9.095-15.746L275.107,136.484z"/>
	</g>
	<g>
		<path style="fill:#68B6D8;" d="M349.107,102.546h-37.69c-1.095,0-1.983-0.888-1.983-1.983c0-1.095,0.888-1.983,1.983-1.983h37.69
			c1.095,0,1.983,0.888,1.983,1.983C351.09,101.658,350.202,102.546,349.107,102.546z"/>
	</g>
	<g>
		<path style="fill:#68B6D8;" d="M349.107,113.238h-37.69c-1.095,0-1.983-0.888-1.983-1.983c0-1.095,0.888-1.983,1.983-1.983h37.69
			c1.095,0,1.983,0.888,1.983,1.983C351.09,112.35,350.202,113.238,349.107,113.238z"/>
	</g>
	<g>
		<path style="fill:#68B6D8;" d="M349.107,124.067h-37.69c-1.095,0-1.983-0.888-1.983-1.983s0.888-1.983,1.983-1.983h37.69
			c1.095,0,1.983,0.888,1.983,1.983S350.202,124.067,349.107,124.067z"/>
	</g>
	<g>
		<rect x="309.435" y="140.129" style="fill:#F7B369;" width="19.302" height="19.301"/>
	</g>
	<g>
		<rect x="328.736" y="147.636" style="fill:#92B4EA;" width="22.354" height="22.354"/>
	</g>
</g>
<g>
	<g>
		<path d="M260.939,231.793c0,0-12.613,20.94,4.855,22.945C283.262,256.743,260.939,231.793,260.939,231.793z"/>
	</g>
	<g>
		<polygon style="fill:#F48462;" points="316.314,346.285 315.651,355.115 298.712,355.361 298.566,345.375 		"/>
	</g>
	<g>
		<polygon style="fill:#F48462;" points="286.16,350.799 284.579,359.667 265.871,355.517 268.987,345.806 		"/>
	</g>
	<g>
		<path style="fill:#92B4EA;" d="M295.876,296.844c0,0-3.501-31.499-14.887-36.758c-11.386-5.258-29.597,0.586-29.597,0.586
			l1.436,42.176L295.876,296.844z"/>
	</g>
	<g>
		<path style="fill:#40507F;" d="M288.687,295.178c0,0,24.41-6.318,31.277,3.935c6.868,10.253-1.95,49.889-1.95,49.889
			l-22.556,0.328L288.687,295.178z"/>
	</g>
	<g>
		<path style="fill:#5C69A5;" d="M236.793,305.038c0,0-5.89,19.021,4.387,22.688c10.277,3.667,31.479,3.475,31.479,3.475
			l-9.314,17.009l30.878,8.661c0,0,24.86-46.473,9.141-58.534c-15.719-12.061-48.168,6.306-48.168,6.306L236.793,305.038z"/>
	</g>
	<g>
		<path style="fill:#916B81;" d="M316.891,350.352c0,0,5.963,6.833,7.336,7.469c1.372,0.637,15.655,5.216,18.42,7.845
			c2.765,2.629,3.036,7.872,2.264,8.376c-0.772,0.504-47.533,0.692-47.533,0.692l-0.818-22.538L316.891,350.352z"/>
	</g>
	<g>
		<path style="fill:#A37B90;" d="M287.323,355.906c0,0,2.521,9.234,4.458,10.181c1.937,0.947,10.285,6.018,14.848,10.665
			c3.826,3.897,0.091,6.221,0.091,6.221l-26.048,0.379l-22.632-16.124l7.75-17.227L287.323,355.906z"/>
	</g>
	<g>
		<path style="fill:#FFFFFF;" d="M321.693,355.029c0,0-6.411,7.569-4.911,8.155s14.063-1.526,13.718-2.868
			C330.156,358.973,323.201,354.897,321.693,355.029z"/>
	</g>
	<g>
		<path style="fill:#FFFFFF;" d="M289.837,361.481c0,0-8.28,5.463-7.005,6.446c1.275,0.983,13.926,2.487,13.972,1.102
			C296.851,367.643,291.321,361.778,289.837,361.481z"/>
	</g>
	<g>
		<g>
			<g>
				<g>
					<path style="fill:#F48462;" d="M265.877,250.764l-0.941,6.657c0,0,1.087,2.141,5.447,3.193
						c3.248,0.784,4.493,0.321,4.493,0.321l0.019-3.448l0.014-3.363l-7.735-2.876L265.877,250.764z"/>
				</g>
			</g>
		</g>
	</g>
	<g>
		<g>
			<g>
				<g>
					<path d="M267.17,251.268c-0.013,0.209,0.028,0.465,0.107,0.763c1.105,4.034,5.599,5.563,7.473,6.028l0.126-3.8L267.17,251.268z
						"/>
				</g>
			</g>
		</g>
	</g>
	<g>
		<g>
			<g>
				<g>
					<path style="fill:#F48462;" d="M279.226,237.307c0,0,2.496,10.082,0.118,15.101c-2.378,5.018-7.038,3.368-9.737,1.858
						c-2.699-1.51-3.732-3.5-3.732-3.5s-2.839,0.451-4.208-2.351c-1.369-2.803,0.226-5.48,1.871-5.875
						c1.645-0.395,3.278,1.023,3.278,1.023l-0.962-2.971C265.855,240.592,274.232,227.763,279.226,237.307z"/>
				</g>
			</g>
		</g>
	</g>
	<g>
		<path d="M276.809,249.155c-0.046,0-0.094-0.011-0.138-0.034c-0.147-0.076-0.206-0.257-0.129-0.404
			c0.842-1.632-0.119-3.726-0.128-3.747c-0.07-0.15-0.005-0.329,0.145-0.399c0.15-0.067,0.329-0.006,0.399,0.146
			c0.045,0.096,1.094,2.385,0.119,4.276C277.023,249.096,276.917,249.155,276.809,249.155z"/>
	</g>
	<g>
		<path d="M265.691,247.89c-0.098,0-0.194-0.048-0.252-0.136l-2.065-3.15c-0.091-0.139-0.053-0.325,0.086-0.416
			c0.138-0.093,0.324-0.053,0.416,0.086l2.065,3.15c0.091,0.139,0.053,0.325-0.086,0.416
			C265.804,247.873,265.747,247.89,265.691,247.89z"/>
	</g>
	<g>
		<path d="M264.933,246.734c-0.008,0-1.816-0.047-1.816-0.047c-0.166-0.005-0.297-0.143-0.293-0.309
			c0.005-0.165,0.163-0.279,0.308-0.293l1.808,0.047c0.166,0.005,0.297,0.143,0.293,0.309
			C265.229,246.605,265.095,246.734,264.933,246.734z"/>
	</g>
	<g>
		<path style="fill:#FFFFFF;" d="M279.626,291.675c-0.062,0-0.124-0.02-0.177-0.059c-0.134-0.098-0.163-0.286-0.065-0.42
			c0.021-0.028,2.103-2.896,3.732-7.116c2.489-6.444-0.218-16.018-0.246-16.113c-0.046-0.159,0.046-0.326,0.206-0.372
			c0.161-0.045,0.325,0.047,0.372,0.206c0.115,0.399,2.792,9.86,0.229,16.496c-1.66,4.298-3.786,7.226-3.808,7.255
			C279.81,291.632,279.719,291.675,279.626,291.675z"/>
	</g>
	<g>
		<path d="M273.614,251.535c-0.353,0-0.726-0.092-1.074-0.352c-1.095-0.815-1.258-2.203-1.265-2.262
			c-0.012-0.11,0.039-0.22,0.131-0.281c0.092-0.063,0.213-0.068,0.31-0.015l3.447,1.869c0.091,0.049,0.15,0.142,0.157,0.245
			c0.006,0.104-0.041,0.203-0.125,0.263C275.154,251.033,274.439,251.535,273.614,251.535z M272.035,249.481
			c0.142,0.388,0.401,0.876,0.864,1.22c0.488,0.363,1.087,0.227,1.491,0.057L272.035,249.481z"/>
	</g>
	<g>
		<path d="M272.153,241.27c-0.064,0-0.127-0.021-0.182-0.062c-0.132-0.101-0.157-0.289-0.057-0.421
			c0.853-1.121,2.358-0.521,2.422-0.495c0.153,0.063,0.227,0.238,0.164,0.392c-0.062,0.153-0.237,0.226-0.391,0.165
			c-0.045-0.019-1.145-0.449-1.718,0.302C272.333,241.229,272.243,241.27,272.153,241.27z"/>
	</g>
	<g>
		<path d="M279.563,241.473c-0.088,0-0.176-0.038-0.235-0.112c-0.139-0.174-0.6-0.628-1.061-0.651
			c-0.235-0.019-0.443,0.084-0.646,0.291c-0.116,0.118-0.307,0.118-0.425,0.004c-0.118-0.117-0.12-0.307-0.004-0.426
			c0.327-0.332,0.688-0.482,1.108-0.47c0.828,0.044,1.471,0.844,1.498,0.878c0.103,0.13,0.081,0.318-0.048,0.421
			C279.695,241.451,279.629,241.473,279.563,241.473z"/>
	</g>
	<g>
		<path d="M278.442,245.411c-0.175-0.006-0.305-0.144-0.3-0.31l0.054-1.787c0.002-0.084,0.04-0.163,0.103-0.218l0.81-0.704
			c0.125-0.11,0.315-0.096,0.424,0.029c0.109,0.125,0.096,0.315-0.029,0.424l-0.711,0.618l-0.05,1.655
			C278.737,245.282,278.604,245.411,278.442,245.411z"/>
	</g>
	<g>
		<path d="M273.185,244.905c-0.181-0.009-0.309-0.149-0.301-0.316l0.088-1.785c0.005-0.094,0.053-0.18,0.13-0.233l1.144-0.786
			c0.136-0.093,0.325-0.059,0.418,0.078c0.094,0.137,0.059,0.323-0.078,0.418l-1.021,0.701l-0.081,1.637
			C273.477,244.78,273.344,244.905,273.185,244.905z"/>
	</g>
	<g>
		<path d="M267.172,243.484c0,0,4.705-0.698,6.671-3.873c1.966-3.175,1.835-4.673,1.835-4.673s2.346,1.317,3.196,3.065
			c0.85,1.748,1.004,2.682,1.004,2.682s0.725-3.793,0.308-4.945c-0.417-1.152-2.71-7.609-11.747-6.685
			C254.734,230.456,260.478,241.514,267.172,243.484z"/>
	</g>
	<g>
		<path style="fill:#F48462;" d="M266.145,286.232c0,0,0.415-0.189,2.178-0.849c1.67-0.625,7.73-0.253,7.73-0.253
			s5.277,0.7,9.689,2.368c4.411,1.668,3.844,3.653,3.844,3.653s2.846,1.443,1.819,2.704c-1.027,1.262-5.531,0.568-5.531,0.568
			s5.746,1.53,3.585,3.005s-9.49-0.768-9.49-0.768s-10.743,5.154-14.758,1.712C261.195,294.928,266.145,286.232,266.145,286.232z"/>
	</g>
	<g>
		<path style="fill:#92B4EA;" d="M268.355,284.66l4.67,17.589c0,0-28.408,23.014-40.67,5.472
			c-12.262-17.541,9.683-44.417,19.037-47.049c9.353-2.632,5.025,25.972,5.025,25.972L268.355,284.66z"/>
	</g>
	<g>
		<path style="fill:#445584;" d="M272.659,331.501c-0.062,0-0.123-0.02-0.175-0.057c-0.099-0.07-0.145-0.193-0.118-0.311
			c0.066-0.285,1.64-6.995,4.374-8.227c0.664-0.297,1.339-0.265,2.011,0.1c0.639,0.348,0.972,0.83,0.989,1.436
			c0.073,2.614-6.206,6.571-6.923,7.014C272.768,331.485,272.713,331.501,272.659,331.501z M277.64,323.307
			c-0.218,0-0.435,0.049-0.653,0.147c-1.971,0.888-3.361,5.311-3.846,7.081c2.141-1.41,6.046-4.346,5.998-6.076
			c-0.011-0.381-0.231-0.684-0.675-0.925C278.184,323.383,277.911,323.307,277.64,323.307z"/>
	</g>
	<g>
		<path style="fill:#FFFFFF;" d="M246.896,287.738c-0.119,0-0.231-0.071-0.279-0.189c-0.062-0.153,0.013-0.329,0.167-0.391
			c6.181-2.495,18.21-2.288,18.719-2.281c0.166,0.004,0.298,0.141,0.294,0.307c-0.003,0.166-0.124,0.322-0.306,0.295
			c-0.125-0.006-12.415-0.211-18.482,2.236C246.972,287.73,246.934,287.738,246.896,287.738z"/>
	</g>
	<g>
		<path style="fill:#FFFFFF;" d="M256.185,285.86c-2.051-0.223-8.666-1.047-9.026-2.391c-0.053-0.195-0.033-0.488,0.358-0.775
			c2.116-1.555,8.148,2.18,8.829,2.611c0.118,0.075,0.169,0.221,0.123,0.354C256.426,285.78,256.312,285.86,256.185,285.86z
			 M248.891,282.911c-0.415,0-0.764,0.081-1.019,0.268c-0.12,0.088-0.133,0.139-0.133,0.139c0.09,0.501,3.196,1.266,7.061,1.773
			C253.059,284.121,250.493,282.911,248.891,282.911z"/>
	</g>
	<g>
		<path style="fill:#FFFFFF;" d="M274.451,261.242c-1.609,0-7.137-0.255-9.752-3.638c-0.102-0.131-0.077-0.319,0.054-0.421
			c0.131-0.103,0.319-0.078,0.421,0.054c2.823,3.651,9.624,3.397,9.689,3.397c0.169-0.035,0.306,0.12,0.314,0.287
			c0.007,0.165-0.122,0.306-0.287,0.313C274.852,261.236,274.697,261.242,274.451,261.242z"/>
	</g>
	<g>
		<path style="fill:#FFFFFF;" d="M289.489,297.1l36.673-0.534l10.129-23.844l-35.227,0.513c-0.879,0.013-1.668,0.543-2.011,1.352
			L289.489,297.1z"/>
	</g>
	<g>
		<path style="fill:#7C576C;" d="M292.674,297.054l36.673-0.534l9.04-21.28c0.513-1.207-0.385-2.543-1.696-2.524l-33.887,0.493
			L292.674,297.054z"/>
	</g>
	<g>
		<path d="M277.239,300.272l51.778-0.754c0.826-0.012,1.487-0.692,1.474-1.518c-0.012-0.826-0.692-1.487-1.518-1.475l-51.778,0.754
			c-0.826,0.012-1.487,0.692-1.475,1.518C275.733,299.624,276.413,300.284,277.239,300.272z"/>
	</g>
	<g>
		<path d="M289.585,291.451c-0.049,0-0.1-0.013-0.146-0.038c-0.037-0.021-3.798-2.102-8.542-3.378
			c-0.16-0.043-0.255-0.208-0.212-0.368c0.043-0.16,0.207-0.254,0.368-0.212c4.819,1.296,8.641,3.412,8.679,3.433
			c0.145,0.081,0.197,0.264,0.116,0.409C289.793,291.396,289.69,291.451,289.585,291.451z"/>
	</g>
	<g>
		<path d="M286.411,294.573c-0.056,0-0.112-0.016-0.163-0.049c-0.031-0.02-3.173-2.029-5.967-2.229
			c-0.165-0.012-0.29-0.155-0.278-0.321c0.012-0.165,0.161-0.276,0.321-0.278c2.95,0.21,6.117,2.237,6.251,2.324
			c0.139,0.09,0.179,0.275,0.089,0.415C286.607,294.524,286.51,294.573,286.411,294.573z"/>
	</g>
	<g>
		<path d="M264.594,233.923c0,0-5.084-13.133-10.684-7.806c-5.6,5.327,5.485,13.683,5.485,13.683L264.594,233.923z"/>
	</g>
</g>
<g>
	<g>
		<path style="fill:#F48462;" d="M156.184,220.701c0,0-13.338,1.611-14.752-2.821c-1.414-4.432-0.834-7.698-0.834-7.698
			s7.496-10.291,10.9-7.389C156.822,207.329,156.184,220.701,156.184,220.701z"/>
	</g>
	<g>
		<path style="fill:#916B81;" d="M173.012,232.399l-23.306-7.493c-1.132-0.364-1.755-1.577-1.391-2.709l10.689-33.249
			c0.364-1.132,1.577-1.755,2.709-1.391l23.306,7.493c1.132,0.364,1.755,1.577,1.391,2.709l-10.689,33.249
			C175.357,232.14,174.144,232.762,173.012,232.399z"/>
	</g>
	<g>
		<path style="fill:#A37B90;" d="M171.392,231.878l-23.306-7.493c-1.132-0.364-1.755-1.577-1.391-2.709l10.689-33.249
			c0.364-1.132,1.577-1.755,2.709-1.391l23.306,7.493c1.132,0.364,1.755,1.577,1.391,2.709L174.1,230.487
			C173.736,231.619,172.524,232.242,171.392,231.878z"/>
	</g>
	<g>
		<path style="fill:#FFFFFF;" d="M174.549,197.455c-0.596,0-1.216-0.098-1.827-0.293l-5.839-1.868
			c-1.106-0.354-2.054-0.986-2.669-1.781c-0.641-0.828-0.85-1.734-0.588-2.552l0.78-2.438c0.051-0.158,0.22-0.246,0.378-0.195
			c0.158,0.05,0.246,0.22,0.195,0.378l-0.78,2.438c-0.2,0.624-0.025,1.335,0.491,2.001c0.542,0.7,1.386,1.259,2.377,1.577
			l5.838,1.868c0.992,0.317,2.004,0.351,2.852,0.096c0.807-0.243,1.362-0.721,1.561-1.344l0.78-2.439
			c0.051-0.159,0.217-0.245,0.378-0.195c0.158,0.051,0.245,0.22,0.194,0.378l-0.78,2.438c-0.262,0.818-0.958,1.435-1.96,1.737
			C175.499,197.39,175.032,197.455,174.549,197.455z"/>
	</g>
	<g>
		<path style="fill:#86A8E2;" d="M103.191,360.998c0,0,16.69,8.139,21.607,12.85c4.918,4.71,5.147,7.896,4.566,9.457
			c-0.581,1.561-35.209-0.237-35.209-0.237s-0.309-9.517-4.003-8.929c-3.695,0.588-1.739,9.126-1.739,9.126l-10.472-0.172
			c0,0-0.416-9.463,0.37-13.171c0.848-4,3.212-9.394,3.212-9.394L103.191,360.998z"/>
	</g>
	<g>
		<path style="fill:#F48462;" d="M92.901,299.27c0,0,2.665,13.522-8.223,29.291c-12.484,18.081-20.783,27.017-20.783,27.017
			l-17.05-6.346c0,0,19.671-37.813,21.513-53.724C70.2,279.598,92.901,299.27,92.901,299.27z"/>
	</g>
	<g>
		<path style="fill:#F48462;" d="M111.087,294.686c0,0-0.921,17.27-5.107,35.971c-4.186,18.701-6.791,31.129-6.791,31.129
			l-17.665-1.258c0,0,5.716-42.992,4.435-58.947C84.677,285.615,111.087,294.686,111.087,294.686z"/>
	</g>
	<g>
		<path style="fill:#92B4EA;" d="M65.781,359.688c0,0,11.121,14.87,13.341,21.308c2.22,6.438,0.967,9.376-0.263,10.499
			c-1.23,1.123-31.205-16.309-31.205-16.309s4.077-8.605,0.523-9.771c-3.555-1.166-5.719,7.321-5.719,7.321l-9.234-4.941
			c0,0,3.957-8.606,6.351-11.544c2.583-3.17,7.504-7.634,7.504-7.634L65.781,359.688z"/>
	</g>
	<g>
		<path style="fill:#F48462;" d="M99.635,358.207c0,0,14.353,8.231,11.717,9.057s-17.487,0.863-21.83-0.751
			c-4.343-1.615-7.953-6.154-7.953-6.154l9.916-4.609L99.635,358.207z"/>
	</g>
	<g>
		<g>
			<path style="fill:#F7B369;" d="M81.929,304.511c1.702,0.259,3.481,0.492,5.338,0.691c2.769,0.297,5.42,0.367,7.92,0.281
				c6.699-0.229,12.368-1.632,16.607-3.1c2.069-31.42-8.753-61.085-8.753-61.085l-7.962,0.968l-1.412,0.168L81.929,304.511z"/>
		</g>
	</g>
	<g>
		<g>
			<path style="fill:#F7B369;" d="M63.779,271.559c0.155,19.107,1.402,25.849,1.402,25.849s-0.484,1.032-1.297,2.804
				c4.243,1.439,10.338,3.135,18.046,4.3c1.702,0.259,3.481,0.492,5.338,0.691c2.769,0.297,5.42,0.367,7.92,0.281
				c1.32-3.283,2.197-5.539,2.391-6.151c1.097-3.388,0.655-56.713,0.655-56.713l-3.154-0.352l-21.867,0.216
				C73.212,242.483,63.625,252.443,63.779,271.559z"/>
		</g>
	</g>
	<g>
		<path style="fill:#F48462;" d="M63.895,355.579c0,0,9.001,13.883,6.28,13.412c-2.722-0.471-15.947-7.228-19.071-10.65
			s-4.026-9.727-4.026-9.727l10.692,1.052L63.895,355.579z"/>
	</g>
	<g>
		<path style="fill:#ED6D4F;" d="M85.448,327.828c-0.066,0-0.133-0.022-0.188-0.066c-0.129-0.104-0.15-0.293-0.046-0.423
			c6.763-8.415,8.113-19.857,8.127-19.971c0.018-0.165,0.163-0.279,0.332-0.266c0.165,0.019,0.283,0.167,0.265,0.332
			c-0.013,0.116-1.384,11.73-8.254,20.281C85.623,327.789,85.536,327.828,85.448,327.828z"/>
	</g>
	<g>
		<path style="fill:#5C69A5;" d="M97.541,300.724c-0.024,0-0.049-0.003-0.074-0.01c-0.161-0.041-0.258-0.204-0.217-0.365
			c3.571-14.061,1.011-37.792,0.985-38.03c-0.013-0.117,0.044-0.23,0.145-0.291l5.177-3.09c0.142-0.087,0.327-0.037,0.412,0.103
			c0.085,0.143,0.039,0.327-0.104,0.412l-5.012,2.991c0.238,2.304,2.405,24.562-1.021,38.053
			C97.798,300.633,97.675,300.724,97.541,300.724z"/>
	</g>
	<g>
		<path style="fill:#5C69A5;" d="M68.566,298.014c-1.206,0-2.62-0.186-3.431-0.31c-0.129-0.02-0.231-0.121-0.251-0.25
			c-0.02-0.13,0.045-0.257,0.163-0.315c0.438-0.219,4.321-2.096,5.526-0.445c0.276,0.378,0.182,0.658,0.101,0.791
			C70.429,297.885,69.57,298.014,68.566,298.014z M66.289,297.252c1.995,0.229,3.689,0.208,3.87-0.078
			c-0.003,0-0.011-0.043-0.072-0.127C69.499,296.242,67.594,296.749,66.289,297.252z"/>
	</g>
	<g>
		<path d="M84.774,176.253c0,0-4.41-2.659-6.788,6.024c-2.378,8.683-2.425,24.705-2.425,24.705l25.263-2.128l-1.309-22.953
			L84.774,176.253z"/>
	</g>
	<g>
		<path style="fill:#F48462;" d="M149.972,207.533c0,0,0.404,7.511-5.185,8.763c-5.589,1.251-3.223-7.359-3.223-7.359l2.597-3.238
			h5.051L149.972,207.533z"/>
	</g>
	<g>
		<path d="M146.592,215.571c-0.103,0-0.202-0.053-0.258-0.146c-0.085-0.143-0.039-0.327,0.104-0.412
			c2.689-1.611,3.232-5.3,3.238-5.337c0.023-0.164,0.178-0.278,0.339-0.256c0.165,0.023,0.279,0.175,0.256,0.34
			c-0.022,0.162-0.591,4.011-3.524,5.769C146.697,215.558,146.644,215.571,146.592,215.571z"/>
	</g>
	<g>
		<path style="fill:#F48462;" d="M149.332,209.356c0,0,10.39-1.101,9.679-3.491c-0.711-2.39-10.084-4.123-11.37-3.437
			c-1.286,0.686-3.48,3.27-3.48,3.27L149.332,209.356z"/>
	</g>
	<g>
		<path style="fill:#40507F;" d="M81.514,248.863c0,0,17.39,1.065,24.368-2.334l-0.412-20.899c0,0-1.701-25.462-7.062-26.531
			c-6.132-1.223-14.131-0.363-14.131-0.363L66.83,223.442L81.514,248.863z"/>
	</g>
	<g>
		<path d="M98.326,188.135c0,0,2.585-2.838,1.857-7.251c-0.494-2.992-1.821-3.964-1.821-3.964s2.04-4.075-3.994-3.847
			c-6.034,0.228-9.593,3.179-9.593,3.179s-2.753-1.363-4,1.849c-1.247,3.212-0.025,7.96-0.025,7.96L98.326,188.135z"/>
	</g>
	<g>
		<g>
			<g>
				<g>
					<path style="fill:#F48462;" d="M85.168,192.357l0.159,7.265c0,0,1.356,2.06,5.614,2.312c3.172,0.188,4.139-1.46,4.139-1.46
						l-0.906-6.341l-7.712-1.52L85.168,192.357z"/>
				</g>
			</g>
		</g>
	</g>
	<g>
		<g>
			<g>
				<g>
					<path d="M85.067,192.615c0.023,0.201,0.105,0.436,0.23,0.706c1.729,3.643,7.642,5.047,9.5,5.172l-0.469-3.731L85.067,192.615z"
						/>
				</g>
			</g>
		</g>
	</g>
	<g>
		<g>
			<g>
				<g>
					<path style="fill:#F48462;" d="M95.469,178.04c0,0,4.068,9.15,2.657,14.314c-1.411,5.164-6.113,4.383-8.93,3.404
						c-2.816-0.979-4.132-2.693-4.132-2.693s-2.619,0.907-4.391-1.523c-1.771-2.43-0.708-5.24,0.786-5.892
						c1.495-0.652,3.284,0.419,3.284,0.419l-1.414-2.658C83.33,183.412,89.12,169.823,95.469,178.04z"/>
				</g>
			</g>
		</g>
	</g>
	<g>
		<g>
			<g>
				<g>
					<path d="M84.744,186.07c0,0,3.943,0.809,6.698-3.574c2.755-4.382,2.509-6.186,2.509-6.186l2.717,4.542
						c0,0,0.62-3.141-0.63-5.149c-1.251-2.008-2.557-1.596-2.557-1.596l-8.707,2.146l-2.313,6.966L84.744,186.07z"/>
				</g>
			</g>
		</g>
	</g>
	<g>
		<path d="M95.121,189.71c-0.029,0-0.059-0.004-0.089-0.013c-0.159-0.049-0.247-0.217-0.198-0.376
			c0.521-1.681-0.739-3.507-0.752-3.525c-0.095-0.136-0.063-0.323,0.073-0.418c0.134-0.096,0.322-0.063,0.418,0.073
			c0.059,0.084,1.444,2.083,0.835,4.049C95.368,189.627,95.249,189.71,95.121,189.71z"/>
	</g>
	<g>
		<path d="M84.353,190.381c-0.08,0-0.16-0.032-0.219-0.094l-2.492-2.642c-0.114-0.121-0.108-0.311,0.013-0.425
			c0.121-0.113,0.312-0.107,0.425,0.013l2.492,2.642c0.114,0.121,0.108,0.311-0.013,0.425
			C84.501,190.355,84.427,190.381,84.353,190.381z"/>
	</g>
	<g>
		<path d="M81.714,189.673c-0.146,0-0.274-0.106-0.296-0.255c-0.025-0.164,0.088-0.317,0.252-0.342l1.724-0.261
			c0.164-0.022,0.317,0.088,0.342,0.252c0.025,0.164-0.088,0.317-0.252,0.342l-1.724,0.261
			C81.744,189.672,81.729,189.673,81.714,189.673z"/>
	</g>
	<g>
		<path d="M96.912,182.201c-0.018,0-0.035-0.001-0.053-0.004l-1.629-0.288c-0.164-0.029-0.272-0.185-0.244-0.348
			c0.029-0.163,0.188-0.269,0.348-0.244l1.629,0.288c0.164,0.029,0.272,0.185,0.244,0.348
			C97.181,182.098,97.055,182.201,96.912,182.201z"/>
	</g>
	<g>
		<path d="M90.135,183.249c-0.11,0-0.216-0.061-0.269-0.165c-0.074-0.148-0.015-0.329,0.134-0.403l2.676-1.345
			c0.146-0.075,0.328-0.015,0.403,0.134c0.074,0.148,0.015,0.329-0.134,0.403l-2.676,1.345
			C90.227,183.239,90.18,183.249,90.135,183.249z"/>
	</g>
	<g>
		<path d="M96.899,185.967c-0.129,0-0.248-0.083-0.288-0.213l-0.503-1.658c-0.029-0.096-0.008-0.201,0.056-0.278l0.511-0.621
			c0.106-0.128,0.295-0.145,0.423-0.041c0.128,0.105,0.146,0.294,0.041,0.423l-0.409,0.497l0.457,1.504
			c0.048,0.159-0.041,0.327-0.2,0.375C96.957,185.963,96.928,185.967,96.899,185.967z"/>
	</g>
	<g>
		<path d="M92.262,186.398c-0.129,0-0.248-0.083-0.288-0.213l-0.503-1.658c-0.03-0.099-0.007-0.206,0.06-0.284l0.706-0.818
			c0.109-0.126,0.3-0.139,0.424-0.031c0.126,0.108,0.14,0.298,0.031,0.424l-0.598,0.692l0.456,1.5
			c0.048,0.159-0.041,0.327-0.2,0.375C92.32,186.394,92.291,186.398,92.262,186.398z"/>
	</g>
	<g>
		<path style="fill:#FFFFFF;" d="M90.985,202.117c-3.985,0-5.738-2.237-5.812-2.333c-0.101-0.131-0.075-0.319,0.056-0.42
			c0.131-0.101,0.32-0.076,0.421,0.055c0.016,0.021,1.662,2.098,5.337,2.098c0.025,0,0.05,0,0.075-0.001
			c2.867-0.021,3.859-1.387,3.869-1.4c0.094-0.135,0.281-0.171,0.417-0.075c0.136,0.094,0.171,0.279,0.078,0.416
			c-0.045,0.067-1.153,1.637-4.359,1.662C91.041,202.117,91.013,202.117,90.985,202.117z"/>
	</g>
	<g>
		<path style="fill:#40507F;" d="M147.29,222.01c0,0-7.522,10.353-21.512,11.922c-13.99,1.569-22.641-6.09-22.641-6.09l-4.73-28.743
			c0,0,12.519,6.281,24.16,10.721c6.857,2.615,18.107-2.918,18.107-2.918L147.29,222.01z"/>
	</g>
	<g>
		<path style="fill:#FFFFFF;" d="M121.791,217.895c-0.098,0-0.198-0.009-0.302-0.027c-0.505-0.092-0.885-0.374-1.097-0.816
			c-0.949-1.977,1.616-6.827,1.912-7.373c0.059-0.111,0.183-0.174,0.305-0.155c0.124,0.017,0.225,0.109,0.252,0.232
			c0.142,0.631,1.345,6.216-0.114,7.737C122.491,217.758,122.164,217.895,121.791,217.895z M122.443,210.724
			c-0.851,1.75-2.101,4.836-1.51,6.067c0.13,0.273,0.341,0.427,0.663,0.484c0.305,0.055,0.533-0.008,0.717-0.199
			C123.213,216.137,122.807,212.704,122.443,210.724z"/>
	</g>
	<g>
		<path d="M93.394,191.917c-0.357,0-1.33-0.143-2.147-1.564c-0.083-0.144-0.033-0.328,0.11-0.41c0.144-0.084,0.328-0.033,0.41,0.11
			c0.78,1.357,1.637,1.262,1.675,1.261c0.159-0.018,0.314,0.093,0.338,0.255c0.023,0.162-0.085,0.313-0.247,0.339
			C93.523,191.91,93.474,191.917,93.394,191.917z"/>
	</g>
	<g>
		<g>
			<path style="fill:#F48462;" d="M81.518,247.097c0,0,15.028,1.838,16.733,3.191c1.704,1.353,6.592,10.679,5.507,11.981
				c-1.085,1.302-2.636,0.156-2.636,0.156s1.166,1.757,0.12,2.518c-1.047,0.761-2.835-0.458-2.835-0.458s1.015,1.396-1.031,1.339
				c-2.046-0.057-6.036-3.796-6.036-3.796s-3.859,1.169-8.497-1.086s-5.687-4.05-5.687-4.05L81.518,247.097z"/>
		</g>
	</g>
	<g>
		<path d="M101.123,262.726c-0.104,0-0.204-0.054-0.26-0.149l-3.865-6.633c-0.084-0.144-0.035-0.327,0.108-0.411
			c0.144-0.083,0.328-0.035,0.411,0.108l3.865,6.633c0.084,0.144,0.035,0.327-0.108,0.411
			C101.226,262.712,101.174,262.726,101.123,262.726z"/>
	</g>
	<g>
		<path d="M98.407,264.785c-0.105,0-0.207-0.056-0.262-0.153l-3.78-6.698c-0.082-0.145-0.03-0.327,0.114-0.409
			c0.144-0.082,0.328-0.029,0.409,0.114l3.78,6.698c0.082,0.145,0.03,0.327-0.114,0.409
			C98.508,264.772,98.457,264.785,98.407,264.785z"/>
	</g>
	<g>
		<path style="fill:#40507F;" d="M84.275,198.736c0,0-32.434,3.72-31.977,37.501c0.28,20.709,28.195,26.907,28.195,26.907
			l8.619-21.334l-14.401-8.234L84.275,198.736z"/>
	</g>
	<g>
		<path style="fill:#FFFFFF;" d="M85.094,239.814c-0.064,0-0.127-0.021-0.182-0.062c-0.089-0.068-9.001-6.838-12.398-8.04
			c-0.157-0.056-0.238-0.227-0.183-0.384c0.055-0.156,0.227-0.238,0.383-0.183c3.485,1.233,12.193,7.848,12.562,8.128
			c0.132,0.101,0.157,0.289,0.057,0.421C85.273,239.773,85.184,239.814,85.094,239.814z"/>
	</g>
	<g>
		<path style="fill:#FFFFFF;" d="M77.056,234.007c-0.08,0-0.157-0.032-0.215-0.091c-0.348-0.356-3.388-3.535-3.051-5.435
			c0.085-0.477,0.377-0.848,0.847-1.072c0.581-0.28,1.013-0.138,1.272,0.029c1.52,0.981,1.459,5.735,1.447,6.274
			c-0.002,0.121-0.078,0.229-0.19,0.272C77.13,234,77.093,234.007,77.056,234.007z M75.278,227.851c-0.103,0-0.228,0.026-0.381,0.1
			c-0.3,0.144-0.463,0.346-0.515,0.636c-0.201,1.136,1.347,3.185,2.373,4.35c-0.035-1.659-0.279-4.416-1.171-4.992
			C75.513,227.898,75.416,227.851,75.278,227.851z"/>
	</g>
</g>
<g>
	<path style="fill:#9EBFEF;" d="M355.201,181.483v26.396c0,2.166-1.763,3.93-3.916,3.93h-64.4c-2.166,0-3.916-1.763-3.916-3.93
		v-26.396c0-2.166,1.75-3.916,3.916-3.916h64.4C353.437,177.568,355.201,179.317,355.201,181.483z"/>
</g>
<g>
	<path style="fill:#A37B90;" d="M355.201,181.483v2.61H282.97v-2.61c0-2.166,1.75-3.916,3.916-3.916h64.4
		C353.437,177.568,355.201,179.317,355.201,181.483z"/>
</g>
<g>
	<path style="fill:#40507F;" d="M347.68,183.442c-0.085,0-0.17-0.031-0.237-0.093c-0.14-0.131-0.148-0.351-0.017-0.491l3.703-3.966
		c0.131-0.14,0.351-0.148,0.491-0.017c0.14,0.131,0.148,0.351,0.017,0.491l-3.703,3.966
		C347.865,183.405,347.772,183.442,347.68,183.442z"/>
</g>
<g>
	<path style="fill:#40507F;" d="M351.382,183.442c-0.093,0-0.186-0.037-0.254-0.11l-3.703-3.966c-0.131-0.14-0.123-0.36,0.017-0.491
		c0.141-0.131,0.36-0.123,0.491,0.017l3.703,3.966c0.131,0.14,0.123,0.36-0.017,0.491
		C351.552,183.411,351.467,183.442,351.382,183.442z"/>
</g>
<g>
	<rect x="305.793" y="189.844" style="fill:#FFB655;" width="5.4" height="16.98"/>
</g>
<g>
	<rect x="317.055" y="194.688" style="fill:#FFFFFF;" width="5.4" height="12.136"/>
</g>
<g>
	<rect x="327.855" y="199.273" style="fill:#5C69A5;" width="5.4" height="7.55"/>
</g>
<g>
	<path style="fill:#40507F;" d="M340.796,207.17h-43.422c-0.192,0-0.347-0.155-0.347-0.347v-15.1c0-0.192,0.155-0.347,0.347-0.347
		c0.192,0,0.347,0.155,0.347,0.347v14.753h43.075c0.192,0,0.347,0.155,0.347,0.347C341.144,207.015,340.988,207.17,340.796,207.17z"
		/>
</g>
<g>
	<g>
		<path style="fill:#FCA338;" d="M125.933,156.363c-1.961-2.34-1.653-5.825,0.686-7.786l46.793-39.214
			c2.34-1.961,5.826-1.653,7.786,0.686c1.961,2.34,3.489,4.195,1.15,6.156l-48.628,40.844
			C131.38,159.01,127.894,158.702,125.933,156.363z"/>
	</g>
	<g>
		<polygon style="fill:#FCA338;" points="124.068,154.38 126.33,156.79 128.553,157.364 127.831,153.669 		"/>
	</g>
	<g>
		<path style="fill:#FCA338;" d="M218.387,30.261c-26.362-4.081-51.05,13.979-55.133,40.353
			c-4.08,26.362,13.993,51.04,40.354,55.121c26.362,4.081,51.05-13.979,55.131-40.341C262.822,59.021,244.748,34.342,218.387,30.261
			z M204.751,118.351c-22.279-3.449-37.551-24.314-34.102-46.593c3.451-22.291,24.316-37.562,46.595-34.114
			c22.291,3.45,37.55,24.314,34.1,46.604C247.895,106.528,227.042,121.802,204.751,118.351z"/>
	</g>
	<g style="opacity:0.49;">
		
			<ellipse transform="matrix(0.956 -0.2933 0.2933 0.956 -13.1584 64.5739)" style="fill:#FFFFFF;" cx="208.708" cy="76.156" rx="43.609" ry="43.609"/>
	</g>
	<g>
		<path style="fill:#F7B369;" d="M216.087,28.485c-26.362-4.08-51.05,13.979-55.133,40.353
			c-4.08,26.362,13.993,51.041,40.354,55.121c26.362,4.081,51.05-13.979,55.131-40.341
			C260.522,57.245,242.449,32.566,216.087,28.485z M202.451,116.575c-22.279-3.449-37.551-24.314-34.102-46.593
			c3.45-22.291,24.315-37.562,46.595-34.114c22.291,3.45,37.551,24.314,34.1,46.604
			C245.596,104.753,224.742,120.026,202.451,116.575z"/>
	</g>
	<g>
		<path style="fill:#F7B369;" d="M124.068,154.38c-1.961-2.34-1.653-5.826,0.686-7.786l46.793-39.214
			c2.34-1.961,5.826-1.653,7.786,0.686c1.961,2.34,1.653,5.826-0.686,7.786l-46.793,39.214
			C129.515,157.027,126.029,156.719,124.068,154.38z"/>
	</g>
	<g>
		<path style="fill:#FFFFFF;" d="M188.467,50.048c-0.075,0-0.15-0.028-0.209-0.084c-0.119-0.115-0.122-0.305-0.007-0.425
			c0.126-0.13,12.774-12.912,30.335-5.579c0.153,0.064,0.226,0.24,0.162,0.393c-0.064,0.152-0.242,0.225-0.393,0.162
			c-17.178-7.173-29.548,5.316-29.671,5.442C188.624,50.018,188.546,50.048,188.467,50.048z"/>
	</g>
</g>
</svg>
